SplineFontDB: 3.2
FontName: Menomonia-Italic
FullName: Menomonia Italic
FamilyName: Menomonia
Weight: Book
Copyright: Copyright (c) Chank Co, 2012. All rights reserved. Do not redistribute or alter this font without permission.
Version: 1.000;PS 001.001;hotconv 1.0.56
ItalicAngle: 0
UnderlinePosition: -204
UnderlineWidth: 102
Ascent: 1589
Descent: 459
InvalidEm: 0
sfntRevision: 0x00010000
LayerCount: 2
Layer: 0 1 "Back" 1
Layer: 1 1 "Fore" 0
XUID: [1021 773 -1115407556 5737483]
StyleMap: 0x0001
FSType: 4
OS2Version: 3
OS2_WeightWidthSlopeOnly: 0
OS2_UseTypoMetrics: 0
CreationTime: 1343156400
ModificationTime: 1755386567
PfmFamily: 81
TTFWeight: 400
TTFWidth: 5
LineGap: 0
VLineGap: 0
Panose: 0 0 0 0 0 0 0 0 0 0
OS2TypoAscent: 1589
OS2TypoAOffset: 0
OS2TypoDescent: -459
OS2TypoDOffset: 0
OS2TypoLinegap: 0
OS2WinAscent: 1825
OS2WinAOffset: 0
OS2WinDescent: 470
OS2WinDOffset: 0
HheadAscent: 1825
HheadAOffset: 0
HheadDescent: -470
HheadDOffset: 0
OS2SubXSize: 1331
OS2SubYSize: 1229
OS2SubXOff: 0
OS2SubYOff: 154
OS2SupXSize: 1331
OS2SupYSize: 1229
OS2SupXOff: 0
OS2SupYOff: 717
OS2StrikeYSize: 102
OS2StrikeYPos: 610
OS2CapHeight: 1366
OS2XHeight: 975
OS2Vendor: 'CHNK'
OS2CodePages: 20000001.00000000
OS2UnicodeRanges: 00000003.00000000.00000000.00000000
Lookup: 258 0 0 "'kern' Horizontal Kerning in Latin lookup 0" { "'kern' Horizontal Kerning in Latin lookup 0 subtable"  } ['kern' ('latn' <'dflt' > ) ]
MarkAttachClasses: 1
DEI: 91125
TtTable: prep
PUSHW_1
 511
SCANCTRL
PUSHB_1
 1
SCANTYPE
SVTCA[y-axis]
MPPEM
PUSHB_1
 8
LT
IF
PUSHB_2
 1
 1
INSTCTRL
EIF
PUSHB_2
 70
 6
CALL
IF
POP
PUSHB_1
 16
EIF
MPPEM
PUSHB_1
 20
GT
IF
POP
PUSHB_1
 128
EIF
SCVTCI
PUSHB_1
 6
CALL
NOT
IF
SVTCA[y-axis]
PUSHB_1
 3
DUP
RCVT
PUSHB_1
 3
CALL
WCVTP
PUSHB_1
 4
DUP
RCVT
PUSHB_3
 3
 22
 2
CALL
PUSHB_1
 3
CALL
WCVTP
PUSHB_1
 5
DUP
RCVT
PUSHB_3
 4
 22
 2
CALL
PUSHB_1
 3
CALL
WCVTP
PUSHB_1
 6
DUP
RCVT
PUSHW_3
 5
 278
 2
CALL
PUSHB_1
 3
CALL
WCVTP
PUSHB_1
 7
DUP
RCVT
PUSHB_3
 6
 53
 2
CALL
PUSHB_1
 3
CALL

StartChar: exclam
Encoding: 33 33 4
Width: 434
GlyphClass: 2
Flags: W
LayerCount: 2
Fore
SplineSet
113 88 m 0,0,1
 119 128 119 128 151.5 157 c 128,-1,2
 184 186 184 186 223 186 c 0,3,4
 261 186 261 186 283 157 c 128,-1,5
 305 128 305 128 299 88 c 0,6,7
 291 45 291 45 261 16.5 c 128,-1,8
 231 -12 231 -12 193 -12 c 0,9,10
 153 -12 153 -12 129.5 17 c 128,-1,11
 106 46 106 46 113 88 c 0,0,1
195 377 m 1,12,-1
 313 1239 l 2,13,14
 317 1277 317 1277 299 1312.5 c 128,-1,15
 281 1348 281 1348 252 1366 c 1,16,-1
 498 1366 l 1,17,-1
 301 377 l 1,18,-1
 195 377 l 1,12,-1
EndSplineSet
Validated: 33
EndChar

StartChar: quotedbl
Encoding: 34 34 5
Width: 604
GlyphClass: 2
Flags: W
LayerCount: 2
Fore
SplineSet
242 881 m 1,0,-1
 297 1370 l 1,1,-1
 457 1370 l 1,2,-1
 352 879 l 1,3,-1
 242 881 l 1,0,-1
537 881 m 1,4,-1
 592 1370 l 1,5,-1
 752 1370 l 1,6,-1
 647 879 l 1,7,-1
 537 881 l 1,4,-1
EndSplineSet
Validated: 1
EndChar

StartChar: numbersign
Encoding: 35 35 6
Width: 1148
GlyphClass: 2
Flags: W
LayerCount: 2
Fore
SplineSet
111 485 m 1,0,-1
 168 596 l 1,1,-1
 348 596 l 1,2,-1
 451 836 l 1,3,-1
 264 836 l 1,4,-1
 322 952 l 1,5,-1
 500 952 l 1,6,-1
 625 1247 l 1,7,-1
 778 1253 l 1,8,-1
 651 952 l 1,9,-1
 850 952 l 1,10,-1
 975 1247 l 1,11,-1
 1133 1253 l 1,12,-1
 1006 952 l 1,13,-1
 1190 952 l 1,14,-1
 1135 836 l 1,15,-1
 956 836 l 1,16,-1
 854 596 l 1,17,-1
 1049 596 l 1,18,-1
 999 485 l 1,19,-1
 807 485 l 1,20,-1
 672 166 l 1,21,-1
 516 166 l 1,22,-1
 651 485 l 1,23,-1
 453 485 l 1,24,-1
 317 166 l 1,25,-1
 166 166 l 1,26,-1
 301 485 l 1,27,-1
 111 485 l 1,0,-1
500 596 m 1,28,-1
 698 596 l 1,29,-1
 801 836 l 1,30,-1
 612 836 l 1,31,-1
 500 596 l 1,28,-1
EndSplineSet
Validated: 1
EndChar

StartChar: dollar
Encoding: 36 36 7
Width: 956
GlyphClass: 2
Flags: W
LayerCount: 2
Fore
SplineSet
162 274 m 0,0,1
 162 322 162 322 182 408 c 1,2,3
 217 318 217 318 296 262.5 c 128,-1,4
 375 207 375 207 473 199 c 1,5,-1
 547 666 l 1,6,7
 497 693 497 693 469 709 c 128,-1,8
 441 725 441 725 400 754.5 c 128,-1,9
 359 784 359 784 337.5 811 c 128,-1,10
 316 838 316 838 299.5 878 c 128,-1,11
 283 918 283 918 283 963 c 0,12,13
 283 1038 283 1038 314 1098 c 128,-1,14
 345 1158 345 1158 397.5 1196.5 c 128,-1,15
 450 1235 450 1235 513 1257.5 c 128,-1,16
 576 1280 576 1280 647 1286 c 1,17,-1
 668 1417 l 1,18,-1
 782 1417 l 1,19,-1
 762 1288 l 1,20,21
 908 1280 908 1280 1055 1202 c 1,22,-1
 1022 975 l 1,23,24
 983 1084 983 1084 918.5 1128.5 c 128,-1,25
 854 1173 854 1173 743 1178 c 1,26,-1
 680 770 l 1,27,28
 739 738 739 738 777.5 712.5 c 128,-1,29
 816 687 816 687 858.5 648 c 128,-1,30
 901 609 901 609 922.5 560.5 c 128,-1,31
 944 512 944 512 944 453 c 0,32,33
 944 349 944 349 890 269 c 128,-1,34
 836 189 836 189 754 146 c 128,-1,35
 672 103 672 103 571 90 c 1,36,-1
 549 -51 l 1,37,-1
 434 -51 l 1,38,-1
 457 86 l 1,39,40
 380 92 380 92 303 120 c 128,-1,41
 226 148 226 148 170 193 c 1,42,43
 162 247 162 247 162 274 c 0,0,1
442 987 m 0,44,45
 442 938 442 938 475 901.5 c 128,-1,46
 508 865 508 865 573 827 c 1,47,-1
 627 1167 l 1,48,49
 551 1146 551 1146 496.5 1098.5 c 128,-1,50
 442 1051 442 1051 442 987 c 0,44,45
590 211 m 1,51,52
 671 236 671 236 728.5 296 c 128,-1,53
 786 356 786 356 786 432 c 0,54,55
 786 486 786 486 751.5 527 c 128,-1,56
 717 568 717 568 653 608 c 1,57,-1
 590 211 l 1,51,52
EndSplineSet
Validated: 1
EndChar

StartChar: percent
Encoding: 37 37 8
Width: 1337
GlyphClass: 2
Flags: W
LayerCount: 2
Fore
SplineSet
174 872 m 0,0,1
 182 925 182 925 205 969 c 128,-1,2
 228 1013 228 1013 259 1042.5 c 128,-1,3
 290 1072 290 1072 327 1093 c 128,-1,4
 364 1114 364 1114 401.5 1123.5 c 128,-1,5
 439 1133 439 1133 475 1133 c 0,6,7
 508 1133 508 1133 545.5 1116 c 128,-1,8
 583 1099 583 1099 618 1066.5 c 128,-1,9
 653 1034 653 1034 671 976.5 c 128,-1,10
 689 919 689 919 678 848 c 0,11,12
 665 767 665 767 632 708.5 c 128,-1,13
 599 650 599 650 555.5 620.5 c 128,-1,14
 512 591 512 591 470 578 c 128,-1,15
 428 565 428 565 385 565 c 0,16,17
 341 565 341 565 298.5 587.5 c 128,-1,18
 256 610 256 610 224.5 648.5 c 128,-1,19
 193 687 193 687 178.5 746 c 128,-1,20
 164 805 164 805 174 872 c 0,0,1
195 0 m 1,21,-1
 1114 1145 l 1,22,-1
 1290 1145 l 1,23,-1
 369 0 l 1,24,-1
 195 0 l 1,21,-1
324 848 m 0,25,26
 317 769 317 769 344.5 723.5 c 128,-1,27
 372 678 372 678 420 678 c 0,28,29
 462 678 462 678 494 723.5 c 128,-1,30
 526 769 526 769 530 838 c 0,31,32
 535 923 535 923 511 974.5 c 128,-1,33
 487 1026 487 1026 440 1026 c 0,34,35
 402 1026 402 1026 365 972 c 128,-1,36
 328 918 328 918 324 848 c 0,25,26
768 285 m 0,37,38
 778 350 778 350 809.5 403 c 128,-1,39
 841 456 841 456 884 488 c 128,-1,40
 927 520 927 520 974 537.5 c 128,-1,41
 1021 555 1021 555 1067 555 c 128,-1,42
 1113 555 1113 555 1154.5 536 c 128,-1,43
 1196 517 1196 517 1227.5 482 c 128,-1,44
 1259 447 1259 447 1273 389.5 c 128,-1,45
 1287 332 1287 332 1276 262 c 0,46,47
 1262 175 1262 175 1212 111 c 128,-1,48
 1162 47 1162 47 1101 18.5 c 128,-1,49
 1040 -10 1040 -10 977 -10 c 0,50,51
 882 -10 882 -10 815.5 76 c 128,-1,52
 749 162 749 162 768 285 c 0,37,38
918 270 m 0,53,54
 912 193 912 193 942 145.5 c 128,-1,55
 972 98 972 98 1020 98 c 0,56,57
 1062 98 1062 98 1092.5 145 c 128,-1,58
 1123 192 1123 192 1128 262 c 0,59,60
 1134 348 1134 348 1110.5 397 c 128,-1,61
 1087 446 1087 446 1038 446 c 0,62,63
 995 446 995 446 959.5 396 c 128,-1,64
 924 346 924 346 918 270 c 0,53,54
EndSplineSet
Validated: 33
EndChar

StartChar: ampersand
Encoding: 38 38 9
Width: 1261
GlyphClass: 2
Flags: W
LayerCount: 2
Fore
SplineSet
96 274 m 0,0,1
 96 311 96 311 105 348.5 c 128,-1,2
 114 386 114 386 125 416 c 128,-1,3
 136 446 136 446 160.5 481 c 128,-1,4
 185 516 185 516 202.5 539.5 c 128,-1,5
 220 563 220 563 255.5 596.5 c 128,-1,6
 291 630 291 630 309.5 647 c 128,-1,7
 328 664 328 664 370 696 c 128,-1,8
 412 728 412 728 427 739.5 c 128,-1,9
 442 751 442 751 485 782 c 1,10,11
 479 792 479 792 451 835 c 128,-1,12
 423 878 423 878 413 897 c 128,-1,13
 403 916 403 916 385 951.5 c 128,-1,14
 367 987 367 987 360.5 1018.5 c 128,-1,15
 354 1050 354 1050 354 1083 c 0,16,17
 354 1204 354 1204 452.5 1291 c 128,-1,18
 551 1378 551 1378 674 1378 c 0,19,20
 786 1378 786 1378 860 1324 c 128,-1,21
 934 1270 934 1270 934 1163 c 0,22,23
 934 1139 934 1139 929 1115.5 c 128,-1,24
 924 1092 924 1092 911.5 1067 c 128,-1,25
 899 1042 899 1042 889.5 1023.5 c 128,-1,26
 880 1005 880 1005 857 978 c 128,-1,27
 834 951 834 951 823.5 937.5 c 128,-1,28
 813 924 813 924 784 896 c 128,-1,29
 755 868 755 868 747 860 c 128,-1,30
 739 852 739 852 708 823.5 c 128,-1,31
 677 795 677 795 674 793 c 1,32,-1
 877 492 l 1,33,-1
 1026 696 l 1,34,-1
 1167 696 l 1,35,-1
 940 393 l 1,36,-1
 1194 0 l 1,37,-1
 879 0 l 1,38,39
 934 32 934 32 934 88 c 0,40,41
 934 100 934 100 927.5 116.5 c 128,-1,42
 921 133 921 133 908 155.5 c 128,-1,43
 895 178 895 178 886.5 191.5 c 128,-1,44
 878 205 878 205 860.5 229.5 c 128,-1,45
 843 254 843 254 842 256 c 1,46,47
 793 197 793 197 754 157 c 128,-1,48
 715 117 715 117 660.5 73.5 c 128,-1,49
 606 30 606 30 545.5 8 c 128,-1,50
 485 -14 485 -14 420 -14 c 0,51,52
 274 -14 274 -14 185 58.5 c 128,-1,53
 96 131 96 131 96 274 c 0,0,1
258 272 m 0,54,55
 258 200 258 200 303 150 c 128,-1,56
 348 100 348 100 428 100 c 0,57,58
 464 100 464 100 507 119.5 c 128,-1,59
 550 139 550 139 584.5 164 c 128,-1,60
 619 189 619 189 661.5 229 c 128,-1,61
 704 269 704 269 725 292 c 128,-1,62
 746 315 746 315 776 348 c 1,63,-1
 551 694 l 1,64,65
 427 582 427 582 378 526 c 0,66,67
 258 388 258 388 258 272 c 0,54,55
512 1098 m 0,68,69
 512 1061 512 1061 530.5 1017 c 128,-1,70
 549 973 549 973 563 952.5 c 128,-1,71
 577 932 577 932 612 883 c 1,72,73
 780 1040 780 1040 780 1149 c 0,74,75
 780 1201 780 1201 753.5 1233.5 c 128,-1,76
 727 1266 727 1266 676 1266 c 0,77,78
 615 1266 615 1266 563.5 1212.5 c 128,-1,79
 512 1159 512 1159 512 1098 c 0,68,69
EndSplineSet
Validated: 1
EndChar

StartChar: quotesingle
Encoding: 39 39 10
Width: 354
GlyphClass: 2
Flags: W
LayerCount: 2
Fore
SplineSet
242 881 m 1,0,-1
 297 1370 l 1,1,-1
 457 1370 l 1,2,-1
 352 879 l 1,3,-1
 242 881 l 1,0,-1
EndSplineSet
Validated: 1
EndChar

StartChar: parenleft
Encoding: 40 40 11
Width: 636
GlyphClass: 2
Flags: W
LayerCount: 2
Fore
SplineSet
159.5 449 m 128,-1,1
 148 551 148 551 166 651 c 0,2,3
 186 773 186 773 228 882.5 c 128,-1,4
 270 992 270 992 319 1072.5 c 128,-1,5
 368 1153 368 1153 442.5 1237 c 128,-1,6
 517 1321 517 1321 576.5 1376 c 128,-1,7
 636 1431 636 1431 725 1505 c 1,8,-1
 780 1421 l 1,9,10
 695 1345 695 1345 639 1288.5 c 128,-1,11
 583 1232 583 1232 528 1161 c 128,-1,12
 473 1090 473 1090 437.5 1018.5 c 128,-1,13
 402 947 402 947 373 854.5 c 128,-1,14
 344 762 344 762 326 649 c 0,15,16
 303 504 303 504 363 285 c 128,-1,17
 423 66 423 66 535 -129 c 1,18,-1
 457 -209 l 1,19,20
 403 -147 403 -147 356 -77.5 c 128,-1,21
 309 -8 309 -8 265.5 79.5 c 128,-1,22
 222 167 222 167 196.5 257 c 128,-1,0
 171 347 171 347 159.5 449 c 128,-1,1
EndSplineSet
Validated: 33
EndChar

StartChar: parenright
Encoding: 41 41 12
Width: 636
GlyphClass: 2
Flags: W
LayerCount: 2
Fore
SplineSet
43 -129 m 1,0,1
 217 66 217 66 346 284.5 c 128,-1,2
 475 503 475 503 498 649 c 0,3,4
 516 762 516 762 516.5 854.5 c 128,-1,5
 517 947 517 947 504 1018.5 c 128,-1,6
 491 1090 491 1090 458 1161 c 128,-1,7
 425 1232 425 1232 387.5 1288.5 c 128,-1,8
 350 1345 350 1345 289 1421 c 1,9,-1
 369 1505 l 1,10,11
 415 1453 415 1453 446.5 1414 c 128,-1,12
 478 1375 478 1375 517 1319 c 128,-1,13
 556 1263 556 1263 580.5 1213.5 c 128,-1,14
 605 1164 605 1164 628.5 1098.5 c 128,-1,15
 652 1033 652 1033 662 967.5 c 128,-1,16
 672 902 672 902 671.5 820.5 c 128,-1,17
 671 739 671 739 657 651 c 0,18,19
 638 529 638 529 580.5 402 c 128,-1,20
 523 275 523 275 441 164 c 128,-1,21
 359 53 359 53 273 -38.5 c 128,-1,22
 187 -130 187 -130 94 -209 c 1,23,-1
 43 -129 l 1,0,1
EndSplineSet
Validated: 33
EndChar

StartChar: asterisk
Encoding: 42 42 13
Width: 870
GlyphClass: 2
Flags: W
LayerCount: 2
Fore
SplineSet
231 1044 m 1,0,-1
 322 1196 l 1,1,-1
 571 1038 l 1,2,-1
 573 1354 l 1,3,-1
 750 1389 l 1,4,-1
 647 1040 l 1,5,-1
 946 1202 l 1,6,-1
 987 1049 l 1,7,-1
 647 975 l 1,8,-1
 848 743 l 1,9,-1
 696 639 l 1,10,-1
 594 934 l 1,11,-1
 391 647 l 1,12,-1
 276 745 l 1,13,-1
 541 973 l 1,14,-1
 231 1044 l 1,0,-1
EndSplineSet
Validated: 1
EndChar

StartChar: plus
Encoding: 43 43 14
Width: 897
GlyphClass: 2
Flags: W
LayerCount: 2
Fore
SplineSet
154 487 m 1,0,-1
 170 598 l 1,1,-1
 463 598 l 1,2,-1
 512 901 l 1,3,-1
 662 901 l 1,4,-1
 612 598 l 1,5,-1
 907 598 l 1,6,-1
 891 487 l 1,7,-1
 596 487 l 1,8,-1
 547 184 l 1,9,-1
 397 184 l 1,10,-1
 446 487 l 1,11,-1
 154 487 l 1,0,-1
EndSplineSet
Validated: 1
EndChar

StartChar: comma
Encoding: 44 44 15
Width: 344
GlyphClass: 2
Flags: W
LayerCount: 2
Fore
SplineSet
-10 -197 m 1,0,1
 31 -146 31 -146 66.5 -69 c 128,-1,2
 102 8 102 8 109 47 c 0,3,4
 119 109 119 109 96 143 c 1,5,6
 180 166 180 166 264 166 c 1,7,8
 274 130 274 130 264 61 c 0,9,10
 248 -34 248 -34 94 -215 c 1,11,-1
 -10 -197 l 1,0,1
EndSplineSet
Validated: 33
EndChar

StartChar: hyphen
Encoding: 45 45 16
Width: 759
GlyphClass: 2
Flags: W
LayerCount: 2
Fore
SplineSet
174 504 m 1,0,-1
 193 623 l 1,1,-1
 735 623 l 1,2,-1
 717 504 l 1,3,-1
 174 504 l 1,0,-1
EndSplineSet
Validated: 1
EndChar

StartChar: period
Encoding: 46 46 17
Width: 403
GlyphClass: 2
Flags: W
LayerCount: 2
Fore
SplineSet
98 86 m 0,0,1
 104 129 104 129 136 157.5 c 128,-1,2
 168 186 168 186 209 186 c 0,3,4
 249 186 249 186 272 157.5 c 128,-1,5
 295 129 295 129 289 86 c 0,6,7
 281 45 281 45 249.5 16.5 c 128,-1,8
 218 -12 218 -12 178 -12 c 128,-1,9
 138 -12 138 -12 114.5 16 c 128,-1,10
 91 44 91 44 98 86 c 0,0,1
EndSplineSet
Validated: 33
EndChar

StartChar: slash
Encoding: 47 47 18
Width: 966
GlyphClass: 2
Flags: W
LayerCount: 2
Fore
SplineSet
39 0 m 1,0,-1
 995 1370 l 1,1,-1
 1124 1370 l 1,2,-1
 174 0 l 1,3,-1
 39 0 l 1,0,-1
EndSplineSet
Validated: 1
EndChar

StartChar: zero
Encoding: 48 48 19
Width: 1122
GlyphClass: 2
Flags: W
LayerCount: 2
Fore
SplineSet
141.5 512.5 m 128,-1,1
 143 599 143 599 158 694 c 0,2,3
 179 828 179 828 229.5 948.5 c 128,-1,4
 280 1069 280 1069 355.5 1167 c 128,-1,5
 431 1265 431 1265 538 1322.5 c 128,-1,6
 645 1380 645 1380 768 1380 c 0,7,8
 856 1380 856 1380 926 1352.5 c 128,-1,9
 996 1325 996 1325 1042.5 1275.5 c 128,-1,10
 1089 1226 1089 1226 1120.5 1160 c 128,-1,11
 1152 1094 1152 1094 1164.5 1014 c 128,-1,12
 1177 934 1177 934 1176.5 848 c 128,-1,13
 1176 762 1176 762 1161 670 c 0,14,15
 1145 566 1145 566 1111.5 468.5 c 128,-1,16
 1078 371 1078 371 1025 283 c 128,-1,17
 972 195 972 195 905 130 c 128,-1,18
 838 65 838 65 749 26.5 c 128,-1,19
 660 -12 660 -12 561 -12 c 0,20,21
 469 -12 469 -12 396.5 14.5 c 128,-1,22
 324 41 324 41 276 89 c 128,-1,23
 228 137 228 137 196.5 201.5 c 128,-1,24
 165 266 165 266 152.5 346 c 128,-1,0
 140 426 140 426 141.5 512.5 c 128,-1,1
301 421.5 m 128,-1,26
 304 354 304 354 320.5 298.5 c 128,-1,27
 337 243 337 243 365 197.5 c 128,-1,28
 393 152 393 152 443.5 126 c 128,-1,29
 494 100 494 100 561 100 c 0,30,31
 650 100 650 100 728.5 155.5 c 128,-1,32
 807 211 807 211 859.5 298.5 c 128,-1,33
 912 386 912 386 946 477.5 c 128,-1,34
 980 569 980 569 995 657 c 0,35,36
 1007 725 1007 725 1013.5 783 c 128,-1,37
 1020 841 1020 841 1021.5 905 c 128,-1,38
 1023 969 1023 969 1016 1020 c 128,-1,39
 1009 1071 1009 1071 991 1119 c 128,-1,40
 973 1167 973 1167 943.5 1198.5 c 128,-1,41
 914 1230 914 1230 867 1249 c 128,-1,42
 820 1268 820 1268 758 1268 c 0,43,44
 681 1268 681 1268 612.5 1228 c 128,-1,45
 544 1188 544 1188 496 1126 c 128,-1,46
 448 1064 448 1064 409.5 982.5 c 128,-1,47
 371 901 371 901 349 824 c 128,-1,48
 327 747 327 747 315 672 c 0,49,50
 305 609 305 609 301.5 549 c 128,-1,25
 298 489 298 489 301 421.5 c 128,-1,26
EndSplineSet
Validated: 33
EndChar

StartChar: one
Encoding: 49 49 20
Width: 661
GlyphClass: 2
Flags: W
LayerCount: 2
Fore
SplineSet
233 0 m 1,0,1
 282 29 282 29 310 60.5 c 128,-1,2
 338 92 338 92 346 143 c 2,3,-1
 487 1047 l 1,4,5
 397 926 397 926 307 836 c 1,6,-1
 270 948 l 1,7,8
 430 1130 430 1130 629 1393 c 1,9,-1
 690 1358 l 1,10,-1
 475 0 l 1,11,-1
 233 0 l 1,0,1
EndSplineSet
Validated: 1
EndChar

StartChar: two
Encoding: 50 50 21
Width: 1095
GlyphClass: 2
Flags: W
LayerCount: 2
Fore
SplineSet
125 129 m 1,0,-1
 645 612 l 2,1,2
 664 630 664 630 717 675.5 c 128,-1,3
 770 721 770 721 800.5 750.5 c 128,-1,4
 831 780 831 780 871 824 c 128,-1,5
 911 868 911 868 934 913 c 128,-1,6
 957 958 957 958 965 1004 c 0,7,8
 982 1122 982 1122 923.5 1193 c 128,-1,9
 865 1264 865 1264 754 1264 c 0,10,11
 672 1264 672 1264 579.5 1235 c 128,-1,12
 487 1206 487 1206 410.5 1153.5 c 128,-1,13
 334 1101 334 1101 307 1040 c 1,14,-1
 340 1251 l 1,15,16
 424 1311 424 1311 542 1343.5 c 128,-1,17
 660 1376 660 1376 778 1376 c 0,18,19
 857 1376 857 1376 928.5 1350.5 c 128,-1,20
 1000 1325 1000 1325 1047 1278 c 0,21,22
 1094 1229 1094 1229 1115.5 1156 c 128,-1,23
 1137 1083 1137 1083 1124 1001 c 0,24,25
 1118 964 1118 964 1107 929.5 c 128,-1,26
 1096 895 1096 895 1085 868.5 c 128,-1,27
 1074 842 1074 842 1052.5 811 c 128,-1,28
 1031 780 1031 780 1015.5 760.5 c 128,-1,29
 1000 741 1000 741 969 710 c 128,-1,30
 938 679 938 679 920 662 c 128,-1,31
 902 645 902 645 861.5 608.5 c 128,-1,32
 821 572 821 572 801 553 c 2,33,-1
 330 113 l 1,34,-1
 979 113 l 1,35,-1
 961 0 l 1,36,-1
 156 0 l 1,37,-1
 125 129 l 1,0,-1
EndSplineSet
Validated: 33
EndChar

StartChar: three
Encoding: 51 51 22
Width: 1040
GlyphClass: 2
Flags: W
LayerCount: 2
Fore
SplineSet
127 102 m 1,0,-1
 133 268 l 1,1,2
 182 221 182 221 212.5 196 c 128,-1,3
 243 171 243 171 285.5 145 c 128,-1,4
 328 119 328 119 375 108.5 c 128,-1,5
 422 98 422 98 481 98 c 0,6,7
 647 98 647 98 757.5 206 c 128,-1,8
 868 314 868 314 868 479 c 0,9,10
 868 555 868 555 827.5 610.5 c 128,-1,11
 787 666 787 666 715 694 c 1,12,-1
 428 692 l 1,13,-1
 444 809 l 1,14,15
 651 807 651 807 733 809 c 0,16,17
 746 809 746 809 778 825 c 0,18,19
 849 861 849 861 899.5 940 c 128,-1,20
 950 1019 950 1019 950 1098 c 0,21,22
 950 1186 950 1186 886 1226 c 128,-1,23
 822 1266 822 1266 729 1266 c 0,24,25
 621 1266 621 1266 488.5 1200 c 128,-1,26
 356 1134 356 1134 307 1047 c 1,27,-1
 340 1249 l 1,28,29
 422 1310 422 1310 533 1343 c 128,-1,30
 644 1376 644 1376 752 1376 c 0,31,32
 806 1376 806 1376 856 1366.5 c 128,-1,33
 906 1357 906 1357 953 1336 c 128,-1,34
 1000 1315 1000 1315 1034.5 1283.5 c 128,-1,35
 1069 1252 1069 1252 1089.5 1205 c 128,-1,36
 1110 1158 1110 1158 1110 1100 c 0,37,38
 1110 988 1110 988 1036.5 896.5 c 128,-1,39
 963 805 963 805 854 756 c 1,40,41
 931 718 931 718 979.5 638.5 c 128,-1,42
 1028 559 1028 559 1028 473 c 0,43,44
 1028 325 1028 325 947 212 c 128,-1,45
 866 99 866 99 740.5 42.5 c 128,-1,46
 615 -14 615 -14 471 -14 c 0,47,48
 272 -14 272 -14 127 102 c 1,0,-1
EndSplineSet
Validated: 33
EndChar

StartChar: four
Encoding: 52 52 23
Width: 1036
GlyphClass: 2
Flags: W
LayerCount: 2
Fore
SplineSet
129 516 m 1,0,-1
 825 1366 l 1,1,-1
 1006 1366 l 1,2,-1
 872 532 l 1,3,-1
 1042 532 l 1,4,-1
 1020 381 l 1,5,-1
 850 381 l 1,6,-1
 788 0 l 1,7,-1
 547 0 l 1,8,9
 595 29 595 29 623 60.5 c 128,-1,10
 651 92 651 92 659 143 c 2,11,-1
 698 383 l 1,12,-1
 182 385 l 1,13,-1
 129 516 l 1,0,-1
281 532 m 1,14,-1
 721 532 l 1,15,-1
 825 1188 l 1,16,-1
 281 532 l 1,14,-1
EndSplineSet
Validated: 1
EndChar

StartChar: five
Encoding: 53 53 24
Width: 1069
GlyphClass: 2
Flags: W
LayerCount: 2
Fore
SplineSet
143 104 m 1,0,-1
 152 324 l 1,1,2
 269 98 269 98 514 98 c 0,3,4
 615 98 615 98 699.5 154.5 c 128,-1,5
 784 211 784 211 830.5 300.5 c 128,-1,6
 877 390 877 390 877 489 c 0,7,8
 877 596 877 596 809 665.5 c 128,-1,9
 741 735 741 735 635 735 c 0,10,11
 568 735 568 735 471.5 714.5 c 128,-1,12
 375 694 375 694 305 668 c 1,13,-1
 260 717 l 1,14,-1
 365 1366 l 1,15,-1
 1116 1366 l 1,16,-1
 1083 1165 l 1,17,18
 1060 1208 1060 1208 1007 1230.5 c 128,-1,19
 954 1253 954 1253 899 1253 c 2,20,-1
 498 1253 l 1,21,-1
 426 807 l 1,22,23
 568 850 568 850 684 850 c 0,24,25
 831 850 831 850 933.5 751.5 c 128,-1,26
 1036 653 1036 653 1036 506 c 0,27,28
 1036 273 1036 273 885.5 129.5 c 128,-1,29
 735 -14 735 -14 500 -14 c 0,30,31
 406 -14 406 -14 310 17 c 128,-1,32
 214 48 214 48 143 104 c 1,0,-1
EndSplineSet
Validated: 1
EndChar

StartChar: six
Encoding: 54 54 25
Width: 1069
GlyphClass: 2
Flags: W
LayerCount: 2
Fore
SplineSet
170.5 430.5 m 128,-1,1
 171 527 171 527 186 635 c 0,2,3
 203 745 203 745 238 848.5 c 128,-1,4
 273 952 273 952 331.5 1049 c 128,-1,5
 390 1146 390 1146 464 1218.5 c 128,-1,6
 538 1291 538 1291 639 1334.5 c 128,-1,7
 740 1378 740 1378 854 1378 c 0,8,9
 1000 1378 1000 1378 1104 1331 c 1,10,-1
 1071 1133 l 1,11,12
 1000 1264 1000 1264 838 1264 c 0,13,14
 763 1264 763 1264 693.5 1228 c 128,-1,15
 624 1192 624 1192 571 1133 c 128,-1,16
 518 1074 518 1074 474 997 c 128,-1,17
 430 920 430 920 402.5 841 c 128,-1,18
 375 762 375 762 360 684 c 1,19,20
 527 854 527 854 709 854 c 0,21,22
 896 854 896 854 990.5 729 c 128,-1,23
 1085 604 1085 604 1055 416 c 0,24,25
 1042 337 1042 337 1000.5 260.5 c 128,-1,26
 959 184 959 184 897.5 122.5 c 128,-1,27
 836 61 836 61 750 23.5 c 128,-1,28
 664 -14 664 -14 569 -14 c 0,29,30
 467 -14 467 -14 390 19.5 c 128,-1,31
 313 53 313 53 267.5 112 c 128,-1,32
 222 171 222 171 196 252.5 c 128,-1,0
 170 334 170 334 170.5 430.5 c 128,-1,1
328 451 m 1,33,34
 324 390 324 390 332.5 334.5 c 128,-1,35
 341 279 341 279 366 224.5 c 128,-1,36
 391 170 391 170 446 137 c 128,-1,37
 501 104 501 104 580 104 c 0,38,39
 695 104 695 104 786 207 c 128,-1,40
 877 310 877 310 897 434 c 0,41,42
 918 572 918 572 853 655.5 c 128,-1,43
 788 739 788 739 684 739 c 0,44,45
 560 739 560 739 453 646.5 c 128,-1,46
 346 554 346 554 328 451 c 1,33,34
EndSplineSet
Validated: 33
EndChar

StartChar: seven
Encoding: 55 55 26
Width: 1091
GlyphClass: 2
Flags: W
LayerCount: 2
Fore
SplineSet
254 0 m 1,0,-1
 1010 1253 l 1,1,-1
 526 1253 l 2,2,3
 454 1253 454 1253 399 1231 c 128,-1,4
 344 1209 344 1209 291 1163 c 1,5,-1
 324 1366 l 1,6,-1
 1186 1366 l 1,7,-1
 1198 1268 l 1,8,-1
 436 0 l 1,9,-1
 254 0 l 1,0,-1
EndSplineSet
Validated: 1
EndChar

StartChar: eight
Encoding: 56 56 27
Width: 1040
GlyphClass: 2
Flags: W
LayerCount: 2
Fore
SplineSet
122.5 296 m 128,-1,1
 124 332 124 332 127 365 c 0,2,3
 146 483 146 483 246 583.5 c 128,-1,4
 346 684 346 684 467 723 c 1,5,6
 381 772 381 772 328 863 c 128,-1,7
 275 954 275 954 293 1059 c 0,8,9
 316 1202 316 1202 443 1290 c 128,-1,10
 570 1378 570 1378 741 1378 c 0,11,12
 814 1378 814 1378 881.5 1358 c 128,-1,13
 949 1338 949 1338 1003 1299.5 c 128,-1,14
 1057 1261 1057 1261 1084 1198 c 128,-1,15
 1111 1135 1111 1135 1098 1057 c 0,16,17
 1090 1003 1090 1003 1056 947.5 c 128,-1,18
 1022 892 1022 892 976 850 c 128,-1,19
 930 808 930 808 882.5 776 c 128,-1,20
 835 744 835 744 795 729 c 1,21,22
 853 698 853 698 894 668 c 128,-1,23
 935 638 935 638 973.5 594.5 c 128,-1,24
 1012 551 1012 551 1026.5 493 c 128,-1,25
 1041 435 1041 435 1030 365 c 0,26,27
 1011 251 1011 251 935.5 163 c 128,-1,28
 860 75 860 75 753.5 30.5 c 128,-1,29
 647 -14 647 -14 528 -14 c 0,30,31
 453 -14 453 -14 391 -1 c 128,-1,32
 329 12 329 12 286.5 34.5 c 128,-1,33
 244 57 244 57 211 87.5 c 128,-1,34
 178 118 178 118 161 152 c 128,-1,35
 144 186 144 186 132.5 223 c 128,-1,0
 121 260 121 260 122.5 296 c 128,-1,1
283 352 m 0,36,37
 279 324 279 324 284 291.5 c 128,-1,38
 289 259 289 259 307 225 c 128,-1,39
 325 191 325 191 354 164 c 128,-1,40
 383 137 383 137 431.5 119.5 c 128,-1,41
 480 102 480 102 541 102 c 0,42,43
 664 102 664 102 759 184.5 c 128,-1,44
 854 267 854 267 870 373 c 0,45,46
 875 401 875 401 869 427.5 c 128,-1,47
 863 454 863 454 852.5 474 c 128,-1,48
 842 494 842 494 820.5 515 c 128,-1,49
 799 536 799 536 781 550 c 128,-1,50
 763 564 763 564 731.5 582 c 128,-1,51
 700 600 700 600 681.5 609 c 128,-1,52
 663 618 663 618 629 634.5 c 128,-1,53
 595 651 595 651 582 657 c 1,54,55
 453 615 453 615 377 535.5 c 128,-1,56
 301 456 301 456 283 352 c 0,36,37
453 1071 m 0,57,58
 437 971 437 971 491.5 906 c 128,-1,59
 546 841 546 841 662 786 c 1,60,61
 773 831 773 831 850 904.5 c 128,-1,62
 927 978 927 978 936 1038 c 0,63,64
 953 1143 953 1143 894 1204.5 c 128,-1,65
 835 1266 835 1266 733 1266 c 0,66,67
 642 1266 642 1266 554 1209.5 c 128,-1,68
 466 1153 466 1153 453 1071 c 0,57,58
EndSplineSet
Validated: 33
EndChar

StartChar: nine
Encoding: 57 57 28
Width: 1069
GlyphClass: 2
Flags: W
LayerCount: 2
Fore
SplineSet
182 33 m 1,0,-1
 213 231 l 1,1,2
 231 206 231 206 246.5 188.5 c 128,-1,3
 262 171 262 171 290.5 148 c 128,-1,4
 319 125 319 125 358.5 112.5 c 128,-1,5
 398 100 398 100 446 100 c 0,6,7
 521 100 521 100 590.5 136 c 128,-1,8
 660 172 660 172 713 231 c 128,-1,9
 766 290 766 290 810 367 c 128,-1,10
 854 444 854 444 881.5 523 c 128,-1,11
 909 602 909 602 924 680 c 1,12,13
 757 510 757 510 575 510 c 0,14,15
 388 510 388 510 293 635 c 128,-1,16
 198 760 198 760 229 948 c 0,17,18
 246 1054 246 1054 312.5 1151.5 c 128,-1,19
 379 1249 379 1249 489 1313.5 c 128,-1,20
 599 1378 599 1378 725 1378 c 0,21,22
 845 1378 845 1378 929 1330.5 c 128,-1,23
 1013 1283 1013 1283 1054.5 1197.5 c 128,-1,24
 1096 1112 1096 1112 1109 993.5 c 128,-1,25
 1122 875 1122 875 1100 733 c 0,26,27
 1085 623 1085 623 1050 518 c 128,-1,28
 1015 413 1015 413 956.5 316 c 128,-1,29
 898 219 898 219 823 146 c 128,-1,30
 748 73 748 73 646.5 29.5 c 128,-1,31
 545 -14 545 -14 430 -14 c 0,32,33
 282 -14 282 -14 182 33 c 1,0,-1
387 930 m 0,34,35
 366 792 366 792 431 708.5 c 128,-1,36
 496 625 496 625 600 625 c 0,37,38
 727 625 727 625 833.5 720 c 128,-1,39
 940 815 940 815 954 926 c 0,40,41
 957 969 957 969 956.5 1014.5 c 128,-1,42
 956 1060 956 1060 939 1104 c 128,-1,43
 922 1148 922 1148 896 1183 c 128,-1,44
 870 1218 870 1218 821.5 1239 c 128,-1,45
 773 1260 773 1260 709 1260 c 0,46,47
 632 1260 632 1260 560.5 1209 c 128,-1,48
 489 1158 489 1158 444.5 1083.5 c 128,-1,49
 400 1009 400 1009 387 930 c 0,34,35
EndSplineSet
Validated: 33
EndChar

StartChar: colon
Encoding: 58 58 29
Width: 372
GlyphClass: 2
Flags: W
LayerCount: 2
Fore
SplineSet
92 88 m 0,0,1
 98 128 98 128 130.5 157 c 128,-1,2
 163 186 163 186 203 186 c 0,3,4
 241 186 241 186 263 157 c 128,-1,5
 285 128 285 128 279 88 c 0,6,7
 271 45 271 45 240.5 16.5 c 128,-1,8
 210 -12 210 -12 172 -12 c 0,9,10
 132 -12 132 -12 108.5 17 c 128,-1,11
 85 46 85 46 92 88 c 0,0,1
211 864 m 0,12,13
 217 907 217 907 250 936 c 128,-1,14
 283 965 283 965 324 965 c 0,15,16
 363 965 363 965 385 936 c 128,-1,17
 407 907 407 907 401 864 c 0,18,19
 395 823 395 823 363 794.5 c 128,-1,20
 331 766 331 766 291 766 c 128,-1,21
 251 766 251 766 227.5 794 c 128,-1,22
 204 822 204 822 211 864 c 0,12,13
EndSplineSet
Validated: 33
EndChar

StartChar: semicolon
Encoding: 59 59 30
Width: 391
GlyphClass: 2
Flags: W
LayerCount: 2
Fore
SplineSet
-10 -197 m 1,0,1
 31 -146 31 -146 66.5 -69 c 128,-1,2
 102 8 102 8 109 47 c 0,3,4
 119 109 119 109 96 143 c 1,5,6
 180 166 180 166 264 166 c 1,7,8
 274 130 274 130 264 61 c 0,9,10
 248 -34 248 -34 94 -215 c 1,11,-1
 -10 -197 l 1,0,1
211 864 m 0,12,13
 217 907 217 907 250 936 c 128,-1,14
 283 965 283 965 324 965 c 0,15,16
 363 965 363 965 385 936 c 128,-1,17
 407 907 407 907 401 864 c 0,18,19
 395 823 395 823 363 794.5 c 128,-1,20
 331 766 331 766 291 766 c 128,-1,21
 251 766 251 766 227.5 794 c 128,-1,22
 204 822 204 822 211 864 c 0,12,13
EndSplineSet
Validated: 33
EndChar

StartChar: less
Encoding: 60 60 31
Width: 923
GlyphClass: 2
Flags: W
LayerCount: 2
Fore
SplineSet
156 535 m 1,0,-1
 166 600 l 2,1,2
 172 624 172 624 184 629 c 2,3,-1
 909 983 l 2,4,5
 919 988 919 988 940 983 c 1,6,-1
 954 967 l 2,7,8
 961 955 961 955 957 938 c 128,-1,9
 953 921 953 921 942 915 c 2,10,-1
 301 567 l 1,11,12
 394 511 394 511 582 393.5 c 128,-1,13
 770 276 770 276 821 244 c 0,14,15
 845 226 845 226 844.5 203.5 c 128,-1,16
 844 181 844 181 824 165.5 c 128,-1,17
 804 150 804 150 784 160 c 2,18,-1
 168 504 l 2,19,20
 156 508 156 508 156 535 c 1,0,-1
EndSplineSet
Validated: 1
EndChar

StartChar: equal
Encoding: 61 61 32
Width: 962
GlyphClass: 2
Flags: W
LayerCount: 2
Fore
SplineSet
115 307 m 1,0,-1
 133 426 l 1,1,-1
 918 426 l 1,2,-1
 899 307 l 1,3,-1
 115 307 l 1,0,-1
178 717 m 1,4,-1
 197 829 l 1,5,-1
 981 829 l 1,6,-1
 963 717 l 1,7,-1
 178 717 l 1,4,-1
EndSplineSet
Validated: 1
EndChar

StartChar: greater
Encoding: 62 62 33
Width: 927
GlyphClass: 2
Flags: W
LayerCount: 2
Fore
SplineSet
109 201 m 0,0,1
 109 207 109 207 113 214.5 c 128,-1,2
 117 222 117 222 123 225 c 0,3,4
 245 286 245 286 442 391 c 128,-1,5
 639 496 639 496 760 565 c 1,6,7
 552 712 552 712 231 911 c 0,8,9
 221 918 221 918 222.5 936 c 128,-1,10
 224 954 224 954 238 965 c 0,11,12
 244 970 244 970 245.5 971 c 128,-1,13
 247 972 247 972 253 976 c 128,-1,14
 259 980 259 980 262.5 981 c 128,-1,15
 266 982 266 982 272.5 982 c 128,-1,16
 279 982 279 982 285 979 c 0,17,18
 417 891 417 891 897 623 c 0,19,20
 903 620 903 620 905 610.5 c 128,-1,21
 907 601 907 601 905 594 c 2,22,-1
 895 532 l 2,23,24
 892 514 892 514 877 502 c 1,25,-1
 879 502 l 1,26,-1
 791 459 l 2,27,28
 729 429 729 429 488 316 c 128,-1,29
 247 203 247 203 147 152 c 0,30,31
 130 143 130 143 121 158 c 1,32,-1
 125 158 l 1,33,34
 123 164 123 164 117 179.5 c 128,-1,35
 111 195 111 195 109 201 c 0,0,1
EndSplineSet
Validated: 1
EndChar

StartChar: question
Encoding: 63 63 34
Width: 808
GlyphClass: 2
Flags: W
LayerCount: 2
Fore
SplineSet
221 1063 m 1,0,-1
 252 1255 l 1,1,2
 324 1310 324 1310 422.5 1345 c 128,-1,3
 521 1380 521 1380 604 1380 c 0,4,5
 754 1380 754 1380 840 1294.5 c 128,-1,6
 926 1209 926 1209 903 1061 c 0,7,8
 891 987 891 987 839 919 c 128,-1,9
 787 851 787 851 720 801 c 128,-1,10
 653 751 653 751 586.5 706 c 128,-1,11
 520 661 520 661 471.5 614.5 c 128,-1,12
 423 568 423 568 416 526 c 0,13,14
 411 494 411 494 424 472.5 c 128,-1,15
 437 451 437 451 465 451 c 0,16,17
 488 451 488 451 530 465 c 1,18,-1
 514 369 l 1,19,20
 479 346 479 346 430 346 c 0,21,22
 349 346 349 346 299 397.5 c 128,-1,23
 249 449 249 449 262 528 c 0,24,25
 272 591 272 591 310.5 650.5 c 128,-1,26
 349 710 349 710 399.5 752.5 c 128,-1,27
 450 795 450 795 508 839.5 c 128,-1,28
 566 884 566 884 615 919.5 c 128,-1,29
 664 955 664 955 700 997.5 c 128,-1,30
 736 1040 736 1040 743 1081 c 0,31,32
 771 1270 771 1270 590 1270 c 0,33,34
 489 1270 489 1270 382 1212 c 128,-1,35
 275 1154 275 1154 221 1063 c 1,0,-1
258 90 m 0,36,37
 264 130 264 130 297 160 c 128,-1,38
 330 190 330 190 371 190 c 128,-1,39
 412 190 412 190 434.5 161 c 128,-1,40
 457 132 457 132 451 90 c 0,41,42
 445 49 445 49 412 19.5 c 128,-1,43
 379 -10 379 -10 338 -10 c 0,44,45
 298 -10 298 -10 275 19.5 c 128,-1,46
 252 49 252 49 258 90 c 0,36,37
EndSplineSet
Validated: 33
EndChar

StartChar: at
Encoding: 64 64 35
Width: 1542
GlyphClass: 2
Flags: W
LayerCount: 2
Fore
SplineSet
162 668 m 0,0,1
 212 985 212 985 441 1180.5 c 128,-1,2
 670 1376 670 1376 995 1376 c 0,3,4
 1166 1376 1166 1376 1307.5 1287 c 128,-1,5
 1449 1198 1449 1198 1520.5 1047 c 128,-1,6
 1592 896 1592 896 1565 725 c 0,7,8
 1551 641 1551 641 1519 558.5 c 128,-1,9
 1487 476 1487 476 1439 404.5 c 128,-1,10
 1391 333 1391 333 1321.5 288.5 c 128,-1,11
 1252 244 1252 244 1174 244 c 0,12,13
 1088 244 1088 244 1044.5 274 c 128,-1,14
 1001 304 1001 304 983 367 c 1,15,16
 945 325 945 325 886.5 291.5 c 128,-1,17
 828 258 828 258 784 258 c 0,18,19
 610 258 610 258 535 368 c 128,-1,20
 460 478 460 478 489 659 c 0,21,22
 517 830 517 830 617.5 939.5 c 128,-1,23
 718 1049 718 1049 874 1049 c 0,24,25
 932 1049 932 1049 995.5 1020.5 c 128,-1,26
 1059 992 1059 992 1077 963 c 1,27,-1
 1217 1032 l 1,28,-1
 1128 481 l 2,29,30
 1110 354 1110 354 1192 354 c 0,31,32
 1256 354 1256 354 1312 408.5 c 128,-1,33
 1368 463 1368 463 1404 547.5 c 128,-1,34
 1440 632 1440 632 1456 731 c 0,35,36
 1472 836 1472 836 1440.5 935 c 128,-1,37
 1409 1034 1409 1034 1344 1105.5 c 128,-1,38
 1279 1177 1279 1177 1185 1220.5 c 128,-1,39
 1091 1264 1091 1264 987 1264 c 0,40,41
 717 1264 717 1264 515 1095 c 128,-1,42
 313 926 313 926 270 662 c 0,43,44
 250 531 250 531 276 416.5 c 128,-1,45
 302 302 302 302 367.5 220.5 c 128,-1,46
 433 139 433 139 538.5 92 c 128,-1,47
 644 45 644 45 776 45 c 0,48,49
 869 45 869 45 951 73 c 128,-1,50
 1033 101 1033 101 1090 141 c 1,51,-1
 1090 20 l 1,52,53
 1046 -14 1046 -14 957.5 -40 c 128,-1,54
 869 -66 869 -66 766 -66 c 0,55,56
 609 -66 609 -66 483 -10.5 c 128,-1,57
 357 45 357 45 278.5 142.5 c 128,-1,58
 200 240 200 240 168.5 376 c 128,-1,59
 137 512 137 512 162 668 c 0,0,1
647.5 534 m 128,-1,61
 653 471 653 471 691.5 426 c 128,-1,62
 730 381 730 381 795 381 c 0,63,64
 848 381 848 381 899 417.5 c 128,-1,65
 950 454 950 454 979 506 c 1,66,-1
 1024 782 l 2,67,68
 1032 839 1032 839 983.5 887.5 c 128,-1,69
 935 936 935 936 860 936 c 0,70,71
 815 936 815 936 776 908 c 128,-1,72
 737 880 737 880 712.5 837 c 128,-1,73
 688 794 688 794 672.5 750 c 128,-1,74
 657 706 657 706 651 666 c 0,75,60
 642 597 642 597 647.5 534 c 128,-1,61
EndSplineSet
Validated: 33
EndChar

StartChar: A
Encoding: 65 65 36
Width: 1185
GlyphClass: 2
Flags: W
LayerCount: 2
Fore
SplineSet
31 0 m 1,0,-1
 776 1366 l 1,1,-1
 809 1366 l 1,2,-1
 1124 0 l 1,3,-1
 850 0 l 1,4,5
 887 14 887 14 915 52 c 0,6,7
 935 79 935 79 935 113 c 0,8,9
 935 126 935 126 932 141 c 2,10,-1
 885 350 l 1,11,-1
 352 350 l 1,12,-1
 162 0 l 1,13,-1
 31 0 l 1,0,-1
412 463 m 1,14,-1
 858 463 l 1,15,-1
 727 1042 l 1,16,-1
 412 463 l 1,14,-1
EndSplineSet
Validated: 1
EndChar

StartChar: B
Encoding: 66 66 37
Width: 1161
GlyphClass: 2
Flags: W
LayerCount: 2
Fore
SplineSet
41 0 m 1,0,1
 83 24 83 24 118 71 c 128,-1,2
 153 118 153 118 160 164 c 2,3,-1
 350 1366 l 1,4,-1
 860 1366 l 2,5,6
 981 1366 981 1366 1068 1281 c 128,-1,7
 1155 1196 1155 1196 1155 1075 c 0,8,9
 1155 977 1155 977 1094.5 889.5 c 128,-1,10
 1034 802 1034 802 942 743 c 1,11,12
 1019 708 1019 708 1064.5 624.5 c 128,-1,13
 1110 541 1110 541 1110 451 c 0,14,15
 1110 333 1110 333 1042.5 227.5 c 128,-1,16
 975 122 975 122 870.5 61 c 128,-1,17
 766 0 766 0 657 0 c 2,18,-1
 41 0 l 1,0,1
305 113 m 1,19,-1
 608 113 l 2,20,21
 687 113 687 113 766 156.5 c 128,-1,22
 845 200 845 200 898.5 278.5 c 128,-1,23
 952 357 952 357 952 446 c 0,24,25
 952 530 952 530 891.5 597 c 128,-1,26
 831 664 831 664 748 664 c 2,27,-1
 391 664 l 1,28,-1
 305 113 l 1,19,-1
410 776 m 1,29,-1
 700 776 l 2,30,31
 809 776 809 776 900 868 c 128,-1,32
 991 960 991 960 991 1069 c 0,33,34
 991 1152 991 1152 936 1202.5 c 128,-1,35
 881 1253 881 1253 797 1253 c 2,36,-1
 485 1253 l 1,37,-1
 410 776 l 1,29,-1
EndSplineSet
Validated: 1
EndChar

StartChar: C
Encoding: 67 67 38
Width: 1302
GlyphClass: 2
Flags: W
LayerCount: 2
Fore
SplineSet
190 553 m 0,0,1
 190 618 190 618 205 725 c 0,2,3
 235 908 235 908 334 1055.5 c 128,-1,4
 433 1203 433 1203 590.5 1290.5 c 128,-1,5
 748 1378 748 1378 934 1378 c 0,6,7
 1047 1378 1047 1378 1181 1343.5 c 128,-1,8
 1315 1309 1315 1309 1384 1247 c 1,9,-1
 1354 1055 l 1,10,11
 1288 1160 1288 1160 1173 1213 c 128,-1,12
 1058 1266 1058 1266 924 1266 c 0,13,14
 850 1266 850 1266 775.5 1239 c 128,-1,15
 701 1212 701 1212 638.5 1166.5 c 128,-1,16
 576 1121 576 1121 524.5 1062 c 128,-1,17
 473 1003 473 1003 438 938 c 0,18,19
 354 775 354 775 354 571 c 0,20,21
 354 480 354 480 378 397 c 128,-1,22
 402 314 402 314 448 246.5 c 128,-1,23
 494 179 494 179 570 138.5 c 128,-1,24
 646 98 646 98 741 98 c 0,25,26
 890 98 890 98 1025.5 158.5 c 128,-1,27
 1161 219 1161 219 1239 324 c 1,28,-1
 1174 102 l 1,29,30
 1040 34 1040 34 950.5 10 c 128,-1,31
 861 -14 861 -14 721 -14 c 0,32,33
 469 -14 469 -14 329.5 141.5 c 128,-1,34
 190 297 190 297 190 553 c 0,0,1
EndSplineSet
Validated: 1
EndChar

StartChar: D
Encoding: 68 68 39
Width: 1286
GlyphClass: 2
Flags: W
LayerCount: 2
Fore
SplineSet
39 0 m 1,0,1
 81 24 81 24 116.5 72 c 128,-1,2
 152 120 152 120 158 164 c 2,3,-1
 348 1366 l 1,4,-1
 825 1366 l 2,5,6
 943 1366 943 1366 1034.5 1322 c 128,-1,7
 1126 1278 1126 1278 1182.5 1200.5 c 128,-1,8
 1239 1123 1239 1123 1267.5 1024 c 128,-1,9
 1296 925 1296 925 1296 809 c 0,10,11
 1296 685 1296 685 1266.5 567.5 c 128,-1,12
 1237 450 1237 450 1176.5 347 c 128,-1,13
 1116 244 1116 244 1031.5 166.5 c 128,-1,14
 947 89 947 89 830 44.5 c 128,-1,15
 713 0 713 0 578 0 c 2,16,-1
 39 0 l 1,0,1
303 113 m 1,17,-1
 590 113 l 2,18,19
 740 113 740 113 866.5 209 c 128,-1,20
 993 305 993 305 1065 466 c 128,-1,21
 1137 627 1137 627 1137 813 c 0,22,23
 1137 893 1137 893 1123 965.5 c 128,-1,24
 1109 1038 1109 1038 1077.5 1105 c 128,-1,25
 1046 1172 1046 1172 986.5 1212.5 c 128,-1,26
 927 1253 927 1253 846 1253 c 2,27,-1
 485 1253 l 1,28,-1
 303 113 l 1,17,-1
EndSplineSet
Validated: 1
EndChar

StartChar: E
Encoding: 69 69 40
Width: 1021
GlyphClass: 2
Flags: W
LayerCount: 2
Fore
SplineSet
133 0 m 1,0,-1
 350 1366 l 1,1,-1
 1116 1366 l 1,2,3
 1091 1210 1091 1210 1083 1163 c 1,4,5
 1051 1207 1051 1207 1003.5 1230 c 128,-1,6
 956 1253 956 1253 856 1253 c 2,7,-1
 485 1253 l 1,8,-1
 410 776 l 1,9,-1
 915 776 l 1,10,-1
 883 573 l 1,11,12
 827 664 827 664 653 664 c 2,13,-1
 391 664 l 1,14,-1
 305 113 l 1,15,-1
 920 113 l 1,16,-1
 899 0 l 1,17,-1
 133 0 l 1,0,-1
EndSplineSet
Validated: 1
EndChar

StartChar: F
Encoding: 70 70 41
Width: 1001
GlyphClass: 2
Flags: W
LayerCount: 2
Fore
SplineSet
133 0 m 1,0,-1
 350 1366 l 1,1,-1
 1116 1366 l 1,2,3
 1091 1210 1091 1210 1083 1163 c 1,4,5
 1051 1207 1051 1207 1003.5 1230 c 128,-1,6
 956 1253 956 1253 856 1253 c 2,7,-1
 485 1253 l 1,8,-1
 410 776 l 1,9,-1
 915 776 l 1,10,-1
 883 573 l 1,11,12
 827 664 827 664 653 664 c 2,13,-1
 391 664 l 1,14,-1
 287 0 l 1,15,-1
 133 0 l 1,0,-1
EndSplineSet
Validated: 1
EndChar

StartChar: G
Encoding: 71 71 42
Width: 1325
GlyphClass: 2
Flags: W
LayerCount: 2
Fore
SplineSet
203 702 m 0,0,1
 225 843 225 843 287.5 966.5 c 128,-1,2
 350 1090 350 1090 443.5 1182 c 128,-1,3
 537 1274 537 1274 664 1327 c 128,-1,4
 791 1380 791 1380 934 1380 c 0,5,6
 1089 1380 1089 1380 1205.5 1342 c 128,-1,7
 1322 1304 1322 1304 1386 1253 c 1,8,-1
 1356 1059 l 1,9,10
 1311 1138 1311 1138 1200 1204 c 128,-1,11
 1089 1270 1089 1270 934 1270 c 0,12,13
 821 1270 821 1270 720 1221 c 128,-1,14
 619 1172 619 1172 546.5 1090.5 c 128,-1,15
 474 1009 474 1009 425.5 907.5 c 128,-1,16
 377 806 377 806 360 698 c 0,17,18
 351 654 351 654 351 606 c 0,19,20
 351 588 351 588 352 569 c 0,21,22
 357 501 357 501 369 434.5 c 128,-1,23
 381 368 381 368 412.5 307.5 c 128,-1,24
 444 247 444 247 485 201 c 128,-1,25
 526 155 526 155 588.5 127.5 c 128,-1,26
 651 100 651 100 725 100 c 0,27,28
 838 100 838 100 921 136.5 c 128,-1,29
 1004 173 1004 173 1075 252 c 1,30,-1
 1155 625 l 2,31,32
 1157 634 1157 634 1157 642 c 0,33,34
 1157 709 1157 709 1057 788 c 1,35,-1
 1335 788 l 1,36,-1
 1225 223 l 1,37,38
 1171 134 1171 134 1020 61 c 128,-1,39
 869 -12 869 -12 711 -12 c 0,40,41
 627 -12 627 -12 553.5 8.5 c 128,-1,42
 480 29 480 29 425 66 c 128,-1,43
 370 103 370 103 325 155 c 128,-1,44
 280 207 280 207 253 269 c 128,-1,45
 226 331 226 331 209 402 c 0,46,47
 192 471 192 471 192 544 c 0,48,49
 192 620 192 620 203 702 c 0,0,1
EndSplineSet
Validated: 1
EndChar

StartChar: H
Encoding: 72 72 43
Width: 1255
GlyphClass: 2
Flags: W
LayerCount: 2
Fore
SplineSet
133 0 m 1,0,-1
 350 1366 l 1,1,-1
 594 1366 l 1,2,3
 544 1336 544 1336 516 1304.5 c 128,-1,4
 488 1273 488 1273 481 1223 c 2,5,-1
 410 776 l 1,6,-1
 1061 776 l 1,7,-1
 1155 1366 l 1,8,-1
 1309 1366 l 1,9,-1
 1092 0 l 1,10,-1
 848 0 l 1,11,12
 897 29 897 29 925 60.5 c 128,-1,13
 953 92 953 92 961 143 c 2,14,-1
 1042 664 l 1,15,-1
 391 664 l 1,16,-1
 287 0 l 1,17,-1
 133 0 l 1,0,-1
EndSplineSet
Validated: 1
EndChar

StartChar: I
Encoding: 73 73 44
Width: 526
GlyphClass: 2
Flags: W
LayerCount: 2
Fore
SplineSet
74 0 m 1,0,1
 122 29 122 29 150 60.5 c 128,-1,2
 178 92 178 92 186 143 c 2,3,-1
 381 1366 l 1,4,-1
 535 1366 l 1,5,-1
 317 0 l 1,6,-1
 74 0 l 1,0,1
EndSplineSet
Validated: 1
EndChar

StartChar: J
Encoding: 74 74 45
Width: 569
GlyphClass: 2
Flags: W
LayerCount: 2
Fore
SplineSet
-113 -195 m 1,0,1
 -90 -199 -90 -199 -66 -199 c 1,2,-1
 33 -180 l 1,3,4
 106 -153 106 -153 150 -94 c 0,5,6
 221 2 221 2 242 137 c 2,7,-1
 416 1239 l 2,8,9
 417 1248 417 1248 417 1257 c 0,10,11
 417 1285 417 1285 403 1312 c 0,12,13
 384 1347 384 1347 354 1366 c 1,14,-1
 590 1366 l 1,15,-1
 399 164 l 2,16,17
 369 -27 369 -27 258 -152 c 0,18,19
 196 -223 196 -223 106 -260 c 0,20,21
 26 -292 26 -292 -56 -292 c 0,22,23
 -67 -292 -67 -292 -78 -291 c 1,24,-1
 -113 -195 l 1,0,1
EndSplineSet
Validated: 1
EndChar

StartChar: K
Encoding: 75 75 46
Width: 1136
GlyphClass: 2
Flags: W
LayerCount: 2
Fore
SplineSet
133 0 m 1,0,-1
 350 1366 l 1,1,-1
 594 1366 l 1,2,3
 544 1336 544 1336 516 1304.5 c 128,-1,4
 488 1273 488 1273 481 1223 c 2,5,-1
 393 666 l 1,6,-1
 1094 1366 l 1,7,-1
 1253 1366 l 1,8,-1
 690 803 l 1,9,-1
 1102 0 l 1,10,-1
 780 0 l 1,11,12
 843 35 843 35 848 70 c 0,13,14
 850 80 850 80 850 91 c 0,15,16
 850 159 850 159 784 285 c 2,17,-1
 575 686 l 1,18,-1
 362 483 l 1,19,-1
 287 0 l 1,20,-1
 133 0 l 1,0,-1
EndSplineSet
Validated: 1
EndChar

StartChar: L
Encoding: 76 76 47
Width: 1011
GlyphClass: 2
Flags: W
LayerCount: 2
Fore
SplineSet
133 0 m 1,0,-1
 350 1366 l 1,1,-1
 504 1366 l 1,2,-1
 305 113 l 1,3,-1
 649 113 l 2,4,5
 721 113 721 113 804.5 142.5 c 128,-1,6
 888 172 888 172 934 215 c 1,7,-1
 899 0 l 1,8,-1
 133 0 l 1,0,-1
EndSplineSet
Validated: 1
EndChar

StartChar: M
Encoding: 77 77 48
Width: 1677
GlyphClass: 2
Flags: W
LayerCount: 2
Fore
SplineSet
133 0 m 1,0,-1
 326 1219 l 2,1,2
 327 1227 327 1227 327 1235 c 0,3,4
 327 1267 327 1267 309 1305 c 0,5,6
 286 1352 286 1352 256 1366 c 1,7,-1
 506 1366 l 1,8,-1
 862 270 l 1,9,-1
 1552 1366 l 1,10,-1
 1726 1366 l 1,11,-1
 1509 0 l 1,12,-1
 1266 0 l 1,13,14
 1314 29 1314 29 1342 60.5 c 128,-1,15
 1370 92 1370 92 1378 143 c 2,16,-1
 1530 1102 l 1,17,-1
 1522 1106 l 1,18,-1
 829 0 l 1,19,-1
 784 0 l 1,20,-1
 432 1096 l 1,21,-1
 418 1092 l 1,22,-1
 246 0 l 1,23,-1
 133 0 l 1,0,-1
EndSplineSet
Validated: 1
EndChar

StartChar: N
Encoding: 78 78 49
Width: 1282
GlyphClass: 2
Flags: W
LayerCount: 2
Fore
SplineSet
133 0 m 1,0,-1
 330 1239 l 2,1,2
 331 1246 331 1246 331 1254 c 0,3,4
 331 1284 331 1284 312 1312 c 0,5,6
 288 1348 288 1348 258 1366 c 1,7,-1
 467 1366 l 1,8,-1
 1059 254 l 1,9,-1
 1237 1366 l 1,10,-1
 1348 1366 l 1,11,-1
 1133 0 l 1,12,-1
 1024 0 l 1,13,-1
 426 1116 l 1,14,-1
 248 0 l 1,15,-1
 133 0 l 1,0,-1
EndSplineSet
Validated: 1
EndChar

StartChar: O
Encoding: 79 79 50
Width: 1388
GlyphClass: 2
Flags: W
LayerCount: 2
Fore
SplineSet
172 692 m 0,0,1
 198 855 198 855 266 986 c 128,-1,2
 334 1117 334 1117 430 1202 c 128,-1,3
 526 1287 526 1287 643 1332.5 c 128,-1,4
 760 1378 760 1378 887 1378 c 0,5,6
 1013 1378 1013 1378 1118.5 1323.5 c 128,-1,7
 1224 1269 1224 1269 1294 1175 c 0,8,9
 1363 1080 1363 1080 1391 946 c 0,10,11
 1406 874 1406 874 1407 796 c 0,12,13
 1407 729 1407 729 1395 659 c 0,14,15
 1369 494 1369 494 1299.5 363.5 c 128,-1,16
 1230 233 1230 233 1132.5 152 c 128,-1,17
 1035 71 1035 71 919.5 28.5 c 128,-1,18
 804 -14 804 -14 678 -14 c 0,19,20
 502 -14 502 -14 376 76 c 0,21,22
 249 166 249 166 195 328 c 0,23,24
 161 431 161 431 161 550 c 0,25,26
 161 618 161 618 172 692 c 0,0,1
340 713 m 0,27,28
 325 619 325 619 325 539 c 0,29,30
 324 368 324 368 392 260 c 0,31,32
 492 100 492 100 705 100 c 0,33,34
 790 100 790 100 875.5 141 c 128,-1,35
 961 182 961 182 1033 254 c 128,-1,36
 1105 326 1105 326 1158.5 432.5 c 128,-1,37
 1212 539 1212 539 1231 662 c 0,38,39
 1243 723 1243 723 1243 784 c 0,40,41
 1243 798 1243 798 1242 810 c 0,42,43
 1239 884 1239 884 1226.5 950.5 c 128,-1,44
 1214 1017 1214 1017 1182.5 1074.5 c 128,-1,45
 1151 1132 1151 1132 1108 1174.5 c 128,-1,46
 1065 1217 1065 1217 1002 1241.5 c 128,-1,47
 939 1266 939 1266 862 1266 c 0,48,49
 749 1266 749 1266 640.5 1201.5 c 128,-1,50
 532 1137 532 1137 448.5 1008 c 128,-1,51
 365 879 365 879 340 713 c 0,27,28
EndSplineSet
Validated: 33
EndChar

StartChar: P
Encoding: 80 80 51
Width: 1064
GlyphClass: 2
Flags: W
LayerCount: 2
Fore
SplineSet
133 0 m 1,0,-1
 326 1219 l 2,1,2
 328 1225 328 1225 328 1235 c 0,3,4
 328 1271 328 1271 308 1310 c 128,-1,5
 288 1349 288 1349 258 1366 c 1,6,-1
 760 1366 l 2,7,8
 923 1366 923 1366 1033 1275.5 c 128,-1,9
 1143 1185 1143 1185 1143 1026 c 0,10,11
 1143 890 1143 890 1073.5 784.5 c 128,-1,12
 1004 679 1004 679 890 624 c 128,-1,13
 776 569 776 569 639 569 c 2,14,-1
 377 569 l 1,15,-1
 287 0 l 1,16,-1
 133 0 l 1,0,-1
395 682 m 1,17,-1
 629 682 l 2,18,19
 773 682 773 682 877 781 c 128,-1,20
 981 880 981 880 981 1024 c 0,21,22
 981 1134 981 1134 910 1193.5 c 128,-1,23
 839 1253 839 1253 727 1253 c 2,24,-1
 485 1253 l 1,25,-1
 395 682 l 1,17,-1
EndSplineSet
Validated: 1
EndChar

StartChar: Q
Encoding: 81 81 52
Width: 1402
GlyphClass: 2
Flags: W
LayerCount: 2
Fore
SplineSet
171 423 m 0,0,1
 160 484 160 484 160 549 c 0,2,3
 160 618 160 618 172 692 c 0,4,5
 198 855 198 855 266 986 c 128,-1,6
 334 1117 334 1117 430 1202 c 128,-1,7
 526 1287 526 1287 643 1332.5 c 128,-1,8
 760 1378 760 1378 887 1378 c 0,9,10
 1013 1378 1013 1378 1118.5 1323.5 c 128,-1,11
 1224 1269 1224 1269 1293.5 1175 c 128,-1,12
 1363 1081 1363 1081 1391 946 c 0,13,14
 1406 874 1406 874 1406 796 c 0,15,16
 1406 730 1406 730 1395 659 c 0,17,18
 1372 509 1372 509 1313 388 c 128,-1,19
 1254 267 1254 267 1170 186 c 128,-1,20
 1086 105 1086 105 985.5 56 c 128,-1,21
 885 7 885 7 772 -8 c 1,22,-1
 772 -10 l 2,23,24
 770 -32 770 -32 770 -53 c 0,25,26
 770 -139 770 -139 797 -197 c 0,27,28
 823 -256 823 -256 876 -282.5 c 128,-1,29
 929 -309 929 -309 1022 -309 c 1,30,31
 968 -397 968 -397 958 -397 c 0,32,33
 950 -397 950 -397 942 -397 c 0,34,35
 861 -397 861 -397 790 -360 c 0,36,37
 711 -320 711 -320 670 -248 c 0,38,39
 643 -203 643 -203 630 -124 c 0,40,41
 620 -66 620 -66 620 -33 c 0,42,43
 620 -21 620 -21 621 -12 c 1,44,45
 502 -1 502 -1 406.5 56.5 c 128,-1,46
 311 114 311 114 252.5 206.5 c 128,-1,47
 194 299 194 299 171 423 c 0,0,1
340 713 m 0,48,49
 325 619 325 619 325 539 c 0,50,51
 325 370 325 370 392 260 c 0,52,53
 492 100 492 100 705 100 c 0,54,55
 790 100 790 100 875.5 141 c 128,-1,56
 961 182 961 182 1033 254 c 128,-1,57
 1105 326 1105 326 1158.5 432.5 c 128,-1,58
 1212 539 1212 539 1231 662 c 0,59,60
 1243 723 1243 723 1243 784 c 0,61,62
 1243 797 1243 797 1242 810 c 0,63,64
 1239 883 1239 883 1226.5 950 c 128,-1,65
 1214 1017 1214 1017 1182.5 1074.5 c 128,-1,66
 1151 1132 1151 1132 1108 1174.5 c 128,-1,67
 1065 1217 1065 1217 1002 1241.5 c 128,-1,68
 939 1266 939 1266 862 1266 c 0,69,70
 749 1266 749 1266 640.5 1201.5 c 128,-1,71
 532 1137 532 1137 448.5 1008 c 128,-1,72
 365 879 365 879 340 713 c 0,48,49
EndSplineSet
Validated: 1
EndChar

StartChar: R
Encoding: 82 82 53
Width: 1128
GlyphClass: 2
Flags: W
LayerCount: 2
Fore
SplineSet
133 0 m 1,0,-1
 328 1223 l 2,1,2
 329 1233 329 1233 329 1243 c 0,3,4
 329 1313 329 1313 260 1366 c 1,5,-1
 764 1366 l 2,6,7
 865 1366 865 1366 944 1332 c 128,-1,8
 1023 1298 1023 1298 1068 1241 c 128,-1,9
 1113 1184 1113 1184 1131 1111 c 0,10,11
 1142 1067 1142 1067 1142 1021 c 0,12,13
 1142 990 1142 990 1137 958 c 0,14,15
 1111 796 1111 796 1007.5 705 c 128,-1,16
 904 614 904 614 752 582 c 1,17,-1
 1028 0 l 1,18,-1
 842 0 l 1,19,-1
 580 569 l 1,20,-1
 377 569 l 1,21,-1
 309 143 l 2,22,23
 307 128 307 128 307 114 c 0,24,25
 308 84 308 84 320 62 c 0,26,27
 338 30 338 30 377 0 c 1,28,-1
 133 0 l 1,0,-1
395 682 m 1,29,-1
 633 682 l 2,30,31
 687 682 687 682 741 699.5 c 128,-1,32
 795 717 795 717 844 751.5 c 128,-1,33
 893 786 893 786 928.5 843.5 c 128,-1,34
 964 901 964 901 975 973 c 0,35,36
 980 1002 980 1002 980 1029 c 0,37,38
 980 1114 980 1114 928 1174 c 0,39,40
 860 1252 860 1252 725 1253 c 2,41,-1
 485 1253 l 1,42,-1
 395 682 l 1,29,-1
EndSplineSet
Validated: 1
EndChar

StartChar: S
Encoding: 83 83 54
Width: 1093
GlyphClass: 2
Flags: W
LayerCount: 2
Fore
SplineSet
119 215 m 0,0,1
 120 263 120 263 135 326 c 1,2,3
 176 228 176 228 284 163 c 128,-1,4
 392 98 392 98 518 98 c 0,5,6
 638 98 638 98 741.5 176.5 c 128,-1,7
 845 255 845 255 862 356 c 0,8,9
 865 373 865 373 865 389 c 0,10,11
 865 424 865 424 853 454 c 0,12,13
 836 498 836 498 800 531 c 128,-1,14
 764 564 764 564 715.5 593.5 c 128,-1,15
 667 623 667 623 612.5 650.5 c 128,-1,16
 558 678 558 678 504 706 c 128,-1,17
 450 734 450 734 402.5 768.5 c 128,-1,18
 355 803 355 803 320.5 843.5 c 128,-1,19
 286 884 286 884 270 940 c 0,20,21
 261 972 261 972 261 1008 c 0,22,23
 261 1034 261 1034 266 1061 c 0,24,25
 290 1217 290 1217 425.5 1301.5 c 128,-1,26
 561 1386 561 1386 756 1386 c 0,27,28
 873 1386 873 1386 966.5 1362 c 128,-1,29
 1060 1338 1060 1338 1159 1286 c 1,30,31
 1159 1260 1159 1260 1126 1059 c 1,32,33
 1117 1117 1117 1117 1081.5 1160 c 128,-1,34
 1046 1203 1046 1203 993.5 1227 c 128,-1,35
 941 1251 941 1251 882 1262.5 c 128,-1,36
 823 1274 823 1274 758 1274 c 0,37,38
 690 1274 690 1274 618.5 1247 c 128,-1,39
 547 1220 547 1220 492.5 1169.5 c 128,-1,40
 438 1119 438 1119 428 1059 c 0,41,42
 426 1046 426 1046 425 1033 c 0,43,44
 424 997 424 997 442 964 c 0,45,46
 464 920 464 920 508.5 889 c 128,-1,47
 553 858 553 858 610.5 825 c 128,-1,48
 668 792 668 792 729.5 763 c 128,-1,49
 791 734 791 734 848 694 c 128,-1,50
 905 654 905 654 947.5 610 c 128,-1,51
 990 566 990 566 1012 501 c 0,52,53
 1026 458 1026 458 1026 409 c 0,54,55
 1026 384 1026 384 1022 358 c 0,56,57
 1009 267 1009 267 961 195 c 128,-1,58
 913 123 913 123 841.5 78 c 128,-1,59
 770 33 770 33 684 9.5 c 128,-1,60
 598 -14 598 -14 504 -14 c 0,61,62
 382 -14 382 -14 281 25 c 128,-1,63
 180 64 180 64 127 106 c 1,64,65
 119 161 119 161 119 205 c 0,66,67
 119 210 119 210 119 215 c 0,0,1
EndSplineSet
Validated: 33
EndChar

StartChar: T
Encoding: 84 84 55
Width: 1292
GlyphClass: 2
Flags: W
LayerCount: 2
Fore
SplineSet
240 1163 m 1,0,-1
 272 1366 l 1,1,-1
 1434 1366 l 1,2,-1
 1413 1251 l 1,3,-1
 911 1251 l 1,4,-1
 713 0 l 1,5,-1
 469 0 l 1,6,7
 518 29 518 29 546 60.5 c 128,-1,8
 574 92 574 92 582 143 c 2,9,-1
 758 1251 l 1,10,-1
 444 1251 l 2,11,12
 392 1251 392 1251 350 1235.5 c 128,-1,13
 308 1220 308 1220 288.5 1205.5 c 128,-1,14
 269 1191 269 1191 240 1163 c 1,0,-1
EndSplineSet
Validated: 1
EndChar

StartChar: U
Encoding: 85 85 56
Width: 1220
GlyphClass: 2
Flags: W
LayerCount: 2
Fore
SplineSet
226 270 m 0,0,1
 213 335 213 335 214 414 c 0,2,3
 214 500 214 500 229 602 c 2,4,-1
 350 1366 l 1,5,-1
 596 1366 l 1,6,7
 557 1350 557 1350 523 1313.5 c 128,-1,8
 489 1277 489 1277 483 1239 c 2,9,-1
 377 567 l 2,10,11
 364 488 364 488 363 422 c 0,12,13
 363 416 363 416 363 409 c 0,14,15
 364 352 364 352 372 308 c 0,16,17
 382 260 382 260 402 223 c 128,-1,18
 422 186 422 186 449 162.5 c 128,-1,19
 476 139 476 139 513 124.5 c 128,-1,20
 550 110 550 110 590 104 c 128,-1,21
 630 98 630 98 680 98 c 0,22,23
 819 98 819 98 926 224.5 c 128,-1,24
 1033 351 1033 351 1063 535 c 2,25,-1
 1196 1366 l 1,26,-1
 1309 1366 l 1,27,-1
 1176 543 l 2,28,29
 1137 291 1137 291 1000.5 139.5 c 128,-1,30
 864 -12 864 -12 659 -12 c 0,31,32
 468 -12 468 -12 360 61 c 128,-1,33
 252 134 252 134 226 270 c 0,0,1
EndSplineSet
Validated: 33
EndChar

StartChar: V
Encoding: 86 86 57
Width: 1155
GlyphClass: 2
Flags: W
LayerCount: 2
Fore
SplineSet
217 1366 m 1,0,-1
 473 1366 l 1,1,2
 440 1350 440 1350 420 1302 c 0,3,4
 405 1266 405 1266 404 1238 c 0,5,6
 404 1229 404 1229 406 1221 c 2,7,-1
 610 299 l 1,8,-1
 1200 1366 l 1,9,-1
 1329 1366 l 1,10,-1
 578 0 l 1,11,-1
 526 0 l 1,12,-1
 217 1366 l 1,0,-1
EndSplineSet
Validated: 1
EndChar

StartChar: W
Encoding: 87 87 58
Width: 2004
GlyphClass: 2
Flags: W
LayerCount: 2
Fore
SplineSet
217 1366 m 1,0,-1
 475 1366 l 1,1,2
 442 1344 442 1344 422 1296 c 0,3,4
 407 1259 407 1259 407 1230 c 0,5,6
 407 1221 407 1221 408 1214 c 2,7,-1
 573 315 l 1,8,-1
 1116 1366 l 1,9,-1
 1341 1366 l 1,10,11
 1308 1340 1308 1340 1283 1292 c 0,12,13
 1263 1253 1263 1253 1263 1226 c 0,14,15
 1263 1220 1263 1220 1264 1214 c 2,16,-1
 1423 328 l 1,17,-1
 1964 1366 l 1,18,-1
 2095 1366 l 1,19,-1
 1384 0 l 1,20,-1
 1331 0 l 1,21,-1
 1126 1124 l 1,22,-1
 549 0 l 1,23,-1
 496 0 l 1,24,-1
 217 1366 l 1,0,-1
EndSplineSet
Validated: 1
EndChar

StartChar: X
Encoding: 88 88 59
Width: 1142
GlyphClass: 2
Flags: W
LayerCount: 2
Fore
SplineSet
23 0 m 1,0,-1
 578 666 l 1,1,-1
 240 1366 l 1,2,-1
 516 1366 l 1,3,4
 486 1344 486 1344 478 1308 c 0,5,6
 474 1288 474 1288 474 1272 c 0,7,8
 474 1257 474 1257 478 1245 c 0,9,10
 484 1218 484 1218 496 1192 c 2,11,-1
 682 807 l 1,12,-1
 1149 1366 l 1,13,-1
 1296 1366 l 1,14,-1
 743 702 l 1,15,-1
 1083 0 l 1,16,-1
 807 0 l 1,17,18
 849 29 849 29 849 83 c 0,19,20
 849 110 849 110 838 143 c 1,21,-1
 637 561 l 1,22,-1
 170 0 l 1,23,-1
 23 0 l 1,0,-1
EndSplineSet
Validated: 1
EndChar

StartChar: Y
Encoding: 89 89 60
Width: 1142
GlyphClass: 2
Flags: W
LayerCount: 2
Fore
SplineSet
240 1366 m 1,0,-1
 492 1366 l 1,1,2
 456 1339 456 1339 456 1293 c 0,3,4
 456 1259 456 1259 477 1214 c 2,5,-1
 698 715 l 1,6,-1
 1188 1366 l 1,7,-1
 1329 1366 l 1,8,-1
 739 580 l 1,9,-1
 647 0 l 1,10,-1
 494 0 l 1,11,-1
 586 578 l 1,12,-1
 240 1366 l 1,0,-1
EndSplineSet
Validated: 1
EndChar

StartChar: Z
Encoding: 90 90 61
Width: 1196
GlyphClass: 2
Flags: W
LayerCount: 2
Fore
SplineSet
92 70 m 1,0,-1
 1038 1253 l 1,1,-1
 543 1253 l 2,2,3
 444 1253 444 1253 389.5 1230 c 128,-1,4
 335 1207 335 1207 287 1163 c 1,5,-1
 319 1366 l 1,6,-1
 1276 1366 l 1,7,-1
 1284 1313 l 1,8,-1
 326 113 l 1,9,-1
 1098 113 l 1,10,-1
 1079 0 l 1,11,-1
 98 0 l 1,12,-1
 92 70 l 1,0,-1
EndSplineSet
Validated: 1
EndChar

StartChar: bracketleft
Encoding: 91 91 62
Width: 677
GlyphClass: 2
Flags: W
LayerCount: 2
Fore
SplineSet
104 -18 m 1,0,-1
 330 1386 l 1,1,-1
 756 1386 l 1,2,-1
 748 1292 l 1,3,-1
 451 1264 l 1,4,-1
 268 111 l 1,5,-1
 565 82 l 1,6,-1
 553 -18 l 1,7,-1
 104 -18 l 1,0,-1
EndSplineSet
Validated: 1
EndChar

StartChar: backslash
Encoding: 92 92 63
Width: 987
GlyphClass: 2
Flags: W
LayerCount: 2
Fore
SplineSet
256 1372 m 1,0,-1
 391 1372 l 1,1,2
 479 1144 479 1144 651 686.5 c 128,-1,3
 823 229 823 229 911 0 c 1,4,-1
 776 0 l 1,5,-1
 256 1372 l 1,0,-1
EndSplineSet
Validated: 1
EndChar

StartChar: bracketright
Encoding: 93 93 64
Width: 677
GlyphClass: 2
Flags: W
LayerCount: 2
Fore
SplineSet
104 -18 m 1,0,-1
 121 82 l 1,1,-1
 430 111 l 1,2,-1
 612 1264 l 1,3,-1
 324 1292 l 1,4,-1
 344 1386 l 1,5,-1
 770 1386 l 1,6,-1
 553 -18 l 1,7,-1
 104 -18 l 1,0,-1
EndSplineSet
Validated: 1
EndChar

StartChar: asciicircum
Encoding: 94 94 65
Width: 923
GlyphClass: 2
Flags: W
LayerCount: 2
Fore
SplineSet
211 885 m 1,0,-1
 694 1407 l 1,1,-1
 1012 885 l 1,2,-1
 831 885 l 1,3,-1
 664 1178 l 1,4,-1
 395 885 l 1,5,-1
 211 885 l 1,0,-1
EndSplineSet
Validated: 1
EndChar

StartChar: underscore
Encoding: 95 95 66
Width: 2113
GlyphClass: 2
Flags: W
LayerCount: 2
Fore
SplineSet
-86 -264 m 2,0,-1
 -80 -221 l 2,1,2
 -75 -197 -75 -197 -53 -197 c 2,3,-1
 2116 -197 l 2,4,5
 2127 -197 2127 -197 2131.5 -204.5 c 128,-1,6
 2136 -212 2136 -212 2134 -221 c 2,7,-1
 2128 -264 l 2,8,9
 2126 -273 2126 -273 2119 -281 c 128,-1,10
 2112 -289 2112 -289 2101 -289 c 2,11,-1
 -68 -289 l 2,12,13
 -79 -289 -79 -289 -83.5 -281 c 128,-1,14
 -88 -273 -88 -273 -86 -264 c 2,0,-1
EndSplineSet
Validated: 1
EndChar

StartChar: grave
Encoding: 96 96 67
Width: 866
GlyphClass: 2
Flags: W
LayerCount: 2
Fore
SplineSet
578 1366 m 1,0,-1
 762 1366 l 1,1,-1
 991 1092 l 1,2,-1
 870 1094 l 1,3,-1
 578 1366 l 1,0,-1
EndSplineSet
Validated: 1
EndChar

StartChar: a
Encoding: 97 97 68
Width: 1040
GlyphClass: 2
Flags: W
LayerCount: 2
Fore
SplineSet
137 274 m 0,0,1
 158 409 158 409 275.5 495.5 c 128,-1,2
 393 582 393 582 578 623 c 2,3,-1
 807 674 l 1,4,5
 814 707 814 707 814 734 c 0,6,7
 814 786 814 786 790 820 c 0,8,9
 754 872 754 872 666 872 c 128,-1,10
 578 872 578 872 473 829.5 c 128,-1,11
 368 787 368 787 279 717 c 1,12,13
 290 795 290 795 313 846 c 1,14,15
 376 898 376 898 478.5 941.5 c 128,-1,16
 581 985 581 985 662 985 c 0,17,18
 730 985 730 985 783 972.5 c 128,-1,19
 836 960 836 960 868.5 938 c 128,-1,20
 901 916 901 916 923 886.5 c 128,-1,21
 945 857 945 857 952 824 c 0,22,23
 960 790 960 790 962 754 c 0,24,25
 963 745 963 745 962 736 c 0,26,27
 962 708 962 708 956 682 c 2,28,-1
 874 164 l 2,29,30
 873 155 873 155 873 145 c 0,31,32
 872 112 872 112 888 72 c 0,33,34
 908 20 908 20 938 0 c 1,35,-1
 694 0 l 1,36,-1
 709 96 l 1,37,38
 539 -12 539 -12 395 -12 c 0,39,40
 262 -10 262 -10 189 68 c 0,41,42
 132 129 132 129 132 220 c 0,43,44
 132 246 132 246 137 274 c 0,0,1
291 262 m 0,45,46
 289 247 289 247 288 232 c 0,47,48
 288 183 288 183 315 144 c 0,49,50
 344 101 344 101 410 101 c 0,51,52
 421 101 421 101 432 102 c 0,53,54
 497 109 497 109 583.5 137.5 c 128,-1,55
 670 166 670 166 727 205 c 1,56,-1
 782 557 l 1,57,-1
 616 520 l 2,58,59
 581 512 581 512 549 502.5 c 128,-1,60
 517 493 517 493 471 471.5 c 128,-1,61
 425 450 425 450 390.5 424 c 128,-1,62
 356 398 356 398 327.5 355.5 c 128,-1,63
 299 313 299 313 291 262 c 0,45,46
EndSplineSet
Validated: 33
EndChar

StartChar: b
Encoding: 98 98 69
Width: 1052
GlyphClass: 2
Flags: W
LayerCount: 2
Fore
SplineSet
125 6 m 1,0,-1
 346 1405 l 1,1,-1
 575 1487 l 1,2,3
 549 1455 549 1455 517 1386 c 128,-1,4
 485 1317 485 1317 479 1280 c 2,5,-1
 422 913 l 1,6,7
 557 987 557 987 678 987 c 0,8,9
 878 987 878 987 976 850 c 0,10,11
 1048 750 1048 750 1048 597 c 0,12,13
 1048 541 1048 541 1038 477 c 0,14,15
 1004 262 1004 262 857 126 c 128,-1,16
 710 -10 710 -10 514 -10 c 0,17,18
 247 -10 247 -10 125 6 c 1,0,-1
297 123 m 1,19,20
 379 104 379 104 530 104 c 0,21,22
 641 104 641 104 746.5 214 c 128,-1,23
 852 324 852 324 879 492 c 0,24,25
 889 557 889 557 889 610 c 0,26,27
 890 711 890 711 854 775 c 0,28,29
 800 872 800 872 662 872 c 0,30,31
 596 872 596 872 523 845 c 128,-1,32
 450 818 450 818 399 772 c 1,33,-1
 297 123 l 1,19,20
EndSplineSet
Validated: 33
EndChar

StartChar: c
Encoding: 99 99 70
Width: 989
GlyphClass: 2
Flags: W
LayerCount: 2
Fore
SplineSet
170 510 m 0,0,1
 188 626 188 626 238 717.5 c 128,-1,2
 288 809 288 809 359.5 867 c 128,-1,3
 431 925 431 925 516.5 955 c 128,-1,4
 602 985 602 985 696 985 c 0,5,6
 809 985 809 985 893.5 954.5 c 128,-1,7
 978 924 978 924 1022 889 c 1,8,-1
 991 698 l 1,9,10
 957 773 957 773 877 823.5 c 128,-1,11
 797 874 797 874 696 874 c 0,12,13
 565 874 565 874 460 762.5 c 128,-1,14
 355 651 355 651 330 496 c 0,15,16
 320 432 320 432 320 378 c 0,17,18
 320 273 320 273 358 204 c 0,19,20
 416 100 416 100 561 100 c 0,21,22
 652 100 652 100 755.5 137.5 c 128,-1,23
 859 175 859 175 922 213 c 1,24,25
 884 111 884 111 868 86 c 1,26,27
 807 48 807 48 717.5 19 c 128,-1,28
 628 -10 628 -10 543 -10 c 0,29,30
 340 -10 340 -10 235 124 c 0,31,32
 159 221 159 221 159 380 c 0,33,34
 159 440 159 440 170 510 c 0,0,1
EndSplineSet
Validated: 1
EndChar

StartChar: d
Encoding: 100 100 71
Width: 1062
GlyphClass: 2
Flags: W
LayerCount: 2
Fore
SplineSet
170 498 m 0,0,1
 206 732 206 732 341.5 858.5 c 128,-1,2
 477 985 477 985 678 985 c 0,3,4
 810 985 810 985 922 913 c 1,5,-1
 999 1405 l 1,6,-1
 1229 1487 l 1,7,8
 1200 1450 1200 1450 1170 1387 c 128,-1,9
 1140 1324 1140 1324 1133 1280 c 2,10,-1
 932 8 l 1,11,12
 767 -10 767 -10 522 -10 c 0,13,14
 328 -10 328 -10 232 134 c 0,15,16
 161 241 161 241 161 389 c 0,17,18
 161 441 161 441 170 498 c 0,0,1
326 469 m 0,19,20
 319 422 319 422 319 381 c 0,21,22
 318 274 318 274 366 204 c 0,23,24
 432 106 432 106 543 106 c 0,25,26
 715 106 715 106 797 127 c 1,27,-1
 899 772 l 1,28,29
 863 818 863 818 798 845 c 128,-1,30
 733 872 733 872 666 872 c 0,31,32
 531 872 531 872 443.5 765 c 128,-1,33
 356 658 356 658 326 469 c 0,19,20
EndSplineSet
Validated: 33
EndChar

StartChar: e
Encoding: 101 101 72
Width: 1062
GlyphClass: 2
Flags: W
LayerCount: 2
Fore
SplineSet
170 496 m 0,0,1
 208 715 208 715 347 850 c 128,-1,2
 486 985 486 985 670 985 c 0,3,4
 868 984 868 984 971 862 c 0,5,6
 1048 770 1048 770 1048 623 c 0,7,8
 1048 574 1048 574 1040 520 c 2,9,-1
 1030 449 l 1,10,-1
 328 449 l 1,11,12
 324 410 324 410 324 375 c 0,13,14
 324 102 324 102 561 102 c 0,15,16
 648 102 648 102 762 148 c 128,-1,17
 876 194 876 194 936 236 c 1,18,-1
 946 150 l 1,19,20
 744 -10 744 -10 537 -10 c 0,21,22
 332 -10 332 -10 232 126 c 0,23,24
 160 224 160 224 159 372 c 0,25,26
 159 430 159 430 170 496 c 0,0,1
342 561 m 1,27,-1
 885 561 l 1,28,29
 889 597 889 597 889 629 c 0,30,31
 888 726 888 726 848 789 c 0,32,33
 794 872 794 872 668 872 c 0,34,35
 555 872 555 872 466 780 c 128,-1,36
 377 688 377 688 342 561 c 1,27,-1
EndSplineSet
Validated: 1
EndChar

StartChar: f
Encoding: 102 102 73
Width: 710
GlyphClass: 2
Flags: W
LayerCount: 2
Fore
SplineSet
178 862 m 1,0,-1
 195 975 l 1,1,-1
 358 975 l 1,2,-1
 397 1219 l 2,3,4
 406 1276 406 1276 430 1322.5 c 128,-1,5
 454 1369 454 1369 484.5 1398.5 c 128,-1,6
 515 1428 515 1428 552 1448 c 128,-1,7
 589 1468 589 1468 623.5 1476.5 c 128,-1,8
 658 1485 658 1485 692 1485 c 0,9,10
 788 1485 788 1485 844 1452 c 1,11,-1
 817 1274 l 1,12,13
 800 1307 800 1307 788 1324.5 c 128,-1,14
 776 1342 776 1342 752 1357 c 128,-1,15
 728 1372 728 1372 696 1372 c 128,-1,16
 664 1372 664 1372 638 1357.5 c 128,-1,17
 612 1343 612 1343 597 1323.5 c 128,-1,18
 582 1304 582 1304 570 1271 c 128,-1,19
 558 1238 558 1238 552.5 1213.5 c 128,-1,20
 547 1189 547 1189 541 1153 c 2,21,-1
 512 975 l 1,22,-1
 768 975 l 1,23,-1
 752 862 l 1,24,-1
 496 862 l 1,25,-1
 358 0 l 1,26,-1
 205 0 l 1,27,-1
 342 862 l 1,28,-1
 178 862 l 1,0,-1
EndSplineSet
Validated: 1
EndChar

StartChar: g
Encoding: 103 103 74
Width: 1052
GlyphClass: 2
Flags: W
LayerCount: 2
Fore
SplineSet
35 -250 m 0,0,1
 35 -192 35 -192 49 -113 c 1,2,3
 105 -197 105 -197 198.5 -239 c 128,-1,4
 292 -281 292 -281 399 -281 c 0,5,6
 437 -281 437 -281 493.5 -271 c 128,-1,7
 550 -261 550 -261 610.5 -242 c 128,-1,8
 671 -223 671 -223 713.5 -189 c 128,-1,9
 756 -155 756 -155 756 -113 c 0,10,11
 756 -56 756 -56 662 -37 c 0,12,13
 618 -30 618 -30 532 -30 c 0,14,15
 508 -30 508 -30 480 -30 c 0,16,17
 460 -31 460 -31 442 -31 c 0,18,19
 345 -31 345 -31 293 -20 c 0,20,21
 208 -5 208 -5 151 35.5 c 128,-1,22
 94 76 94 76 94 141 c 0,23,24
 94 198 94 198 165 257.5 c 128,-1,25
 236 317 236 317 307 348 c 1,26,27
 221 426 221 426 221 571 c 0,28,29
 221 687 221 687 283.5 780.5 c 128,-1,30
 346 874 346 874 445.5 923.5 c 128,-1,31
 545 973 545 973 659 973 c 0,32,33
 688 973 688 973 750 965 c 1,34,-1
 836 1051 l 2,35,36
 877 1092 877 1092 948.5 1121.5 c 128,-1,37
 1020 1151 1020 1151 1079 1151 c 1,38,-1
 1051 965 l 1,39,40
 1015 993 1015 993 973 993 c 0,41,42
 899 993 899 993 829 934 c 1,43,44
 901 897 901 897 941 825.5 c 128,-1,45
 981 754 981 754 981 672 c 0,46,47
 981 557 981 557 920 464 c 128,-1,48
 859 371 859 371 762 321 c 128,-1,49
 665 271 665 271 555 270 c 0,50,51
 479 270 479 270 414 293 c 1,52,53
 371 283 371 283 308.5 242.5 c 128,-1,54
 246 202 246 202 246 168 c 0,55,56
 246 138 246 138 383 127 c 0,57,58
 418 123 418 123 491 123 c 0,59,60
 512 123 512 123 538 124 c 0,61,62
 555 124 555 124 570 124 c 0,63,64
 653 124 653 124 692 117 c 0,65,66
 791 103 791 103 857.5 53.5 c 128,-1,67
 924 4 924 4 924 -84 c 0,68,69
 924 -155 924 -155 887 -211 c 128,-1,70
 850 -267 850 -267 793.5 -300.5 c 128,-1,71
 737 -334 737 -334 663 -356.5 c 128,-1,72
 589 -379 589 -379 523 -387 c 128,-1,73
 457 -395 457 -395 393 -395 c 0,74,75
 308 -395 308 -395 211.5 -371 c 128,-1,76
 115 -347 115 -347 43 -307 c 1,77,78
 35 -283 35 -283 35 -250 c 0,0,1
377 569 m 0,79,80
 377 484 377 484 425.5 434.5 c 128,-1,81
 474 385 474 385 559 385 c 0,82,83
 677 385 677 385 751 464 c 128,-1,84
 825 543 825 543 825 662 c 0,85,86
 825 751 825 751 773.5 805.5 c 128,-1,87
 722 860 722 860 635 860 c 0,88,89
 523 860 523 860 450 771.5 c 128,-1,90
 377 683 377 683 377 569 c 0,79,80
EndSplineSet
Validated: 1
EndChar

StartChar: h
Encoding: 104 104 75
Width: 1050
GlyphClass: 2
Flags: W
LayerCount: 2
Fore
SplineSet
133 0 m 1,0,-1
 356 1405 l 1,1,-1
 586 1487 l 1,2,3
 556 1449 556 1449 527 1392 c 128,-1,4
 498 1335 498 1335 494 1300 c 2,5,-1
 432 915 l 1,6,7
 625 985 625 985 731 985 c 0,8,9
 879 986 879 986 949 908 c 0,10,11
 1003 848 1003 848 1004 762 c 0,12,13
 1004 738 1004 738 999 711 c 2,14,-1
 887 0 l 1,15,-1
 733 0 l 1,16,-1
 844 692 l 2,17,18
 847 710 847 710 847 727 c 0,19,20
 847 750 847 750 842 772 c 0,21,22
 834 812 834 812 803 843 c 128,-1,23
 772 874 772 874 721 874 c 0,24,25
 658 874 658 874 571.5 850.5 c 128,-1,26
 485 827 485 827 414 795 c 1,27,-1
 287 0 l 1,28,-1
 133 0 l 1,0,-1
EndSplineSet
Validated: 33
EndChar

StartChar: i
Encoding: 105 105 76
Width: 501
GlyphClass: 2
Flags: W
LayerCount: 2
Fore
SplineSet
174 0 m 1,0,-1
 322 932 l 1,1,-1
 551 1014 l 1,2,3
 523 976 523 976 494 919 c 128,-1,4
 465 862 465 862 459 827 c 2,5,-1
 328 0 l 1,6,-1
 174 0 l 1,0,-1
360 1292 m 0,7,8
 366 1332 366 1332 397.5 1360.5 c 128,-1,9
 429 1389 429 1389 469 1389 c 0,10,11
 509 1388 509 1388 533 1360 c 0,12,13
 552 1337 552 1337 552 1308 c 0,14,15
 552 1300 552 1300 551 1292 c 0,16,17
 545 1253 545 1253 512.5 1225.5 c 128,-1,18
 480 1198 480 1198 440 1198 c 128,-1,19
 400 1198 400 1198 377 1225 c 0,20,21
 359 1246 359 1246 359 1276 c 0,22,23
 359 1284 359 1284 360 1292 c 0,7,8
EndSplineSet
Validated: 1
EndChar

StartChar: j
Encoding: 106 106 77
Width: 548
GlyphClass: 2
Flags: W
LayerCount: 2
Fore
SplineSet
-164 -319 m 1,0,1
 -152 -320 -152 -320 -141 -320 c 0,2,3
 129 -320 129 -320 182 -4 c 2,4,-1
 332 932 l 1,5,-1
 561 1014 l 1,6,7
 533 976 533 976 504 919 c 128,-1,8
 475 862 475 862 469 827 c 2,9,-1
 338 0 l 2,10,11
 318 -125 318 -125 248.5 -220.5 c 128,-1,12
 179 -316 179 -316 80 -366 c 128,-1,13
 -19 -416 -19 -416 -131 -416 c 1,14,-1
 -164 -319 l 1,0,1
371 1292 m 0,15,16
 377 1332 377 1332 408.5 1360.5 c 128,-1,17
 440 1389 440 1389 479 1389 c 0,18,19
 519 1389 519 1389 543 1360 c 0,20,21
 562 1338 562 1338 562 1308 c 0,22,23
 562 1300 562 1300 561 1292 c 0,24,25
 555 1252 555 1252 523 1225 c 128,-1,26
 491 1198 491 1198 451 1198 c 128,-1,27
 411 1198 411 1198 388 1225 c 0,28,29
 370 1246 370 1246 370 1276 c 0,30,31
 370 1284 370 1284 371 1292 c 0,15,16
EndSplineSet
Validated: 1
EndChar

StartChar: k
Encoding: 107 107 78
Width: 1034
GlyphClass: 2
Flags: W
LayerCount: 2
Fore
SplineSet
123 0 m 1,0,-1
 346 1405 l 1,1,-1
 575 1487 l 1,2,3
 545 1449 545 1449 516 1392 c 128,-1,4
 487 1335 487 1335 483 1300 c 2,5,-1
 377 627 l 1,6,-1
 889 975 l 1,7,-1
 1081 975 l 1,8,-1
 586 635 l 1,9,-1
 942 0 l 1,10,-1
 764 0 l 1,11,-1
 459 545 l 1,12,-1
 350 471 l 1,13,-1
 276 0 l 1,14,-1
 123 0 l 1,0,-1
EndSplineSet
Validated: 1
EndChar

StartChar: l
Encoding: 108 108 79
Width: 483
GlyphClass: 2
Flags: W
LayerCount: 2
Fore
SplineSet
160 0 m 1,0,-1
 383 1405 l 1,1,-1
 612 1487 l 1,2,3
 582 1449 582 1449 553 1392 c 128,-1,4
 524 1335 524 1335 520 1300 c 2,5,-1
 313 0 l 1,6,-1
 160 0 l 1,0,-1
EndSplineSet
Validated: 1
EndChar

StartChar: m
Encoding: 109 109 80
Width: 1615
GlyphClass: 2
Flags: W
LayerCount: 2
Fore
SplineSet
133 0 m 1,0,-1
 252 750 l 2,1,2
 253 756 253 756 253 762 c 0,3,4
 252 792 252 792 228 828 c 0,5,6
 198 870 198 870 166 874 c 1,7,8
 170 874 170 874 239.5 904 c 128,-1,9
 309 934 309 934 376 964 c 2,10,-1
 444 995 l 1,11,-1
 432 915 l 1,12,13
 594 985 594 985 729 985 c 0,14,15
 820 985 820 985 880.5 959 c 128,-1,16
 941 933 941 933 965 889 c 1,17,18
 1165 985 1165 985 1325 985 c 0,19,20
 1474 985 1474 985 1546 907 c 0,21,22
 1603 845 1603 845 1603 759 c 0,23,24
 1603 736 1603 736 1599 711 c 2,25,-1
 1487 0 l 1,26,-1
 1333 0 l 1,27,-1
 1444 692 l 2,28,29
 1450 720 1450 720 1444.5 752 c 128,-1,30
 1439 784 1439 784 1428 811 c 128,-1,31
 1417 838 1417 838 1389.5 856 c 128,-1,32
 1362 874 1362 874 1323 874 c 0,33,34
 1255 874 1255 874 1154.5 848 c 128,-1,35
 1054 822 1054 822 997 793 c 1,36,37
 1002 781 1002 781 1002 755 c 128,-1,38
 1002 729 1002 729 999 711 c 2,39,-1
 887 0 l 1,40,-1
 733 0 l 1,41,-1
 844 692 l 2,42,43
 850 720 850 720 844.5 752 c 128,-1,44
 839 784 839 784 828 811 c 128,-1,45
 817 838 817 838 789.5 856 c 128,-1,46
 762 874 762 874 723 874 c 0,47,48
 661 874 661 874 573.5 850 c 128,-1,49
 486 826 486 826 414 795 c 1,50,-1
 287 0 l 1,51,-1
 133 0 l 1,0,-1
EndSplineSet
Validated: 1
EndChar

StartChar: n
Encoding: 110 110 81
Width: 1032
GlyphClass: 2
Flags: W
LayerCount: 2
Fore
SplineSet
133 0 m 1,0,-1
 252 750 l 2,1,2
 253 756 253 756 253 762 c 0,3,4
 252 792 252 792 228 828 c 0,5,6
 198 870 198 870 166 874 c 1,7,-1
 444 995 l 1,8,-1
 432 915 l 1,9,10
 597 985 597 985 731 985 c 0,11,12
 879 986 879 986 949 908 c 0,13,14
 1003 848 1003 848 1004 762 c 0,15,16
 1004 738 1004 738 999 711 c 2,17,-1
 887 0 l 1,18,-1
 733 0 l 1,19,-1
 844 692 l 2,20,21
 847 711 847 711 847 730 c 0,22,23
 847 752 847 752 843 772 c 0,24,25
 836 810 836 810 806 841 c 128,-1,26
 776 872 776 872 725 872 c 0,27,28
 594 872 594 872 414 795 c 1,29,-1
 287 0 l 1,30,-1
 133 0 l 1,0,-1
EndSplineSet
Validated: 33
EndChar

StartChar: o
Encoding: 111 111 82
Width: 1075
GlyphClass: 2
Flags: W
LayerCount: 2
Fore
SplineSet
168 492 m 0,0,1
 187 612 187 612 237 707 c 128,-1,2
 287 802 287 802 357 862 c 128,-1,3
 427 922 427 922 511 953.5 c 128,-1,4
 595 985 595 985 688 985 c 0,5,6
 888 985 888 985 992 852 c 0,7,8
 1069 754 1069 754 1069 596 c 0,9,10
 1069 538 1069 538 1059 473 c 0,11,12
 1041 354 1041 354 988.5 259 c 128,-1,13
 936 164 936 164 863.5 107 c 128,-1,14
 791 50 791 50 707 20 c 128,-1,15
 623 -10 623 -10 535 -10 c 0,16,17
 445 -10 445 -10 370 23 c 128,-1,18
 295 56 295 56 243 117.5 c 128,-1,19
 191 179 191 179 170 276 c 0,20,21
 159 327 159 327 159 384 c 0,22,23
 159 435 159 435 168 492 c 0,0,1
328 498 m 0,24,25
 318 435 318 435 318 381 c 0,26,27
 318 274 318 274 358 204 c 0,28,29
 418 100 418 100 551 100 c 0,30,31
 600 100 600 100 654 123.5 c 128,-1,32
 708 147 708 147 758.5 191 c 128,-1,33
 809 235 809 235 848 308.5 c 128,-1,34
 887 382 887 382 901 471 c 0,35,36
 913 544 913 544 913 604 c 0,37,38
 913 872 913 872 670 872 c 0,39,40
 557 872 557 872 456.5 772.5 c 128,-1,41
 356 673 356 673 328 498 c 0,24,25
EndSplineSet
Validated: 1
EndChar

StartChar: p
Encoding: 112 112 83
Width: 1071
GlyphClass: 2
Flags: W
LayerCount: 2
Fore
SplineSet
68 -410 m 1,0,-1
 252 750 l 2,1,2
 253 756 253 756 253 762 c 0,3,4
 253 793 253 793 228 826 c 0,5,6
 198 865 198 865 164 868 c 1,7,-1
 444 995 l 1,8,-1
 432 913 l 1,9,10
 563 985 563 985 686 985 c 0,11,12
 886 985 886 985 986 848 c 0,13,14
 1059 748 1059 748 1059 595 c 0,15,16
 1059 539 1059 539 1049 477 c 0,17,18
 1015 262 1015 262 873.5 126 c 128,-1,19
 732 -10 732 -10 543 -10 c 0,20,21
 437 -10 437 -10 291 27 c 1,22,-1
 221 -410 l 1,23,-1
 68 -410 l 1,0,-1
311 158 m 1,24,25
 315 157 315 157 337.5 148 c 128,-1,26
 360 139 360 139 370.5 135.5 c 128,-1,27
 381 132 381 132 406 124.5 c 128,-1,28
 431 117 431 117 450 113.5 c 128,-1,29
 469 110 469 110 496.5 107 c 128,-1,30
 524 104 524 104 551 104 c 0,31,32
 652 104 652 104 757.5 215.5 c 128,-1,33
 863 327 863 327 889 492 c 0,34,35
 900 561 900 561 900 617 c 0,36,37
 900 872 900 872 678 872 c 0,38,39
 611 872 611 872 536 845 c 128,-1,40
 461 818 461 818 410 772 c 1,41,-1
 311 158 l 1,24,25
EndSplineSet
Validated: 1
EndChar

StartChar: q
Encoding: 113 113 84
Width: 1075
GlyphClass: 2
Flags: W
LayerCount: 2
Fore
SplineSet
170 498 m 0,0,1
 206 734 206 734 346.5 859.5 c 128,-1,2
 487 985 487 985 707 985 c 0,3,4
 895 985 895 985 1083 969 c 1,5,-1
 903 -174 l 2,6,7
 901 -186 901 -186 901 -198 c 0,8,9
 901 -234 901 -234 922 -262 c 0,10,11
 950 -299 950 -299 993 -299 c 1,12,-1
 709 -430 l 1,13,-1
 784 47 l 1,14,15
 646 -10 646 -10 518 -10 c 0,16,17
 330 -10 330 -10 232 133 c 0,18,19
 161 238 161 238 161 386 c 0,20,21
 161 439 161 439 170 498 c 0,0,1
326 469 m 0,22,23
 319 423 319 423 319 381 c 0,24,25
 319 276 319 276 366 204 c 0,26,27
 433 104 433 104 535 104 c 0,28,29
 668 104 668 104 805 176 c 1,30,-1
 911 852 l 1,31,32
 805 868 805 868 686 868 c 0,33,34
 548 868 548 868 451.5 761 c 128,-1,35
 355 654 355 654 326 469 c 0,22,23
EndSplineSet
Validated: 1
EndChar

StartChar: r
Encoding: 114 114 85
Width: 688
GlyphClass: 2
Flags: W
LayerCount: 2
Fore
SplineSet
135 0 m 1,0,-1
 289 975 l 1,1,-1
 440 975 l 1,2,-1
 424 866 l 1,3,4
 527 936 527 936 569 955 c 0,5,6
 640 987 640 987 721 987 c 0,7,8
 726 987 726 987 737.5 986 c 128,-1,9
 749 985 749 985 754 985 c 1,10,-1
 723 782 l 1,11,12
 710 796 710 796 685.5 809.5 c 128,-1,13
 661 823 661 823 643 823 c 0,14,15
 582 823 582 823 513 790.5 c 128,-1,16
 444 758 444 758 399 713 c 1,17,-1
 287 0 l 1,18,-1
 135 0 l 1,0,-1
EndSplineSet
Validated: 1
EndChar

StartChar: s
Encoding: 115 115 86
Width: 897
GlyphClass: 2
Flags: W
LayerCount: 2
Fore
SplineSet
119 63 m 1,0,-1
 127 246 l 1,1,2
 190 182 190 182 270 141 c 128,-1,3
 350 100 350 100 432 100 c 0,4,5
 481 100 481 100 534.5 123.5 c 128,-1,6
 588 147 588 147 627 191 c 128,-1,7
 666 235 666 235 666 287 c 0,8,9
 666 348 666 348 606 385 c 0,10,11
 574 404 574 404 512.5 430 c 128,-1,12
 451 456 451 456 400 479.5 c 128,-1,13
 349 503 349 503 298 535 c 128,-1,14
 247 567 247 567 217.5 613 c 128,-1,15
 188 659 188 659 188 715 c 0,16,17
 188 769 188 769 213 815 c 128,-1,18
 238 861 238 861 278.5 891.5 c 128,-1,19
 319 922 319 922 370.5 943.5 c 128,-1,20
 422 965 422 965 474 975 c 128,-1,21
 526 985 526 985 575 985 c 0,22,23
 655 985 655 985 742 964.5 c 128,-1,24
 829 944 829 944 883 903 c 1,25,-1
 856 741 l 1,26,27
 805 805 805 805 726.5 839.5 c 128,-1,28
 648 874 648 874 563 874 c 0,29,30
 492 874 492 874 422 835.5 c 128,-1,31
 352 797 352 797 352 733 c 0,32,33
 352 691 352 691 387.5 658 c 128,-1,34
 423 625 423 625 476 604 c 128,-1,35
 529 583 529 583 590.5 555.5 c 128,-1,36
 652 528 652 528 705 499 c 128,-1,37
 758 470 758 470 793.5 418.5 c 128,-1,38
 829 367 829 367 829 301 c 0,39,40
 829 236 829 236 804.5 182.5 c 128,-1,41
 780 129 780 129 740 94 c 128,-1,42
 700 59 700 59 646 35 c 128,-1,43
 592 11 592 11 535 0.5 c 128,-1,44
 478 -10 478 -10 418 -10 c 0,45,46
 284 -10 284 -10 119 63 c 1,0,-1
EndSplineSet
Validated: 1
EndChar

StartChar: t
Encoding: 116 116 87
Width: 710
GlyphClass: 2
Flags: W
LayerCount: 2
Fore
SplineSet
176 862 m 1,0,-1
 195 975 l 1,1,-1
 358 975 l 1,2,-1
 397 1217 l 1,3,-1
 629 1298 l 1,4,5
 600 1261 600 1261 570.5 1204 c 128,-1,6
 541 1147 541 1147 535 1112 c 2,7,-1
 512 975 l 1,8,-1
 770 975 l 1,9,-1
 752 862 l 1,10,-1
 496 862 l 1,11,-1
 416 362 l 2,12,13
 409 321 409 321 409 286 c 0,14,15
 409 194 409 194 455 144 c 0,16,17
 518 76 518 76 668 74 c 1,18,-1
 602 -23 l 1,19,20
 421 -23 421 -23 324 67 c 0,21,22
 249 136 249 136 249 262 c 0,23,24
 249 300 249 300 256 342 c 2,25,-1
 340 862 l 1,26,-1
 176 862 l 1,0,-1
EndSplineSet
Validated: 1
EndChar

StartChar: u
Encoding: 117 117 88
Width: 1024
GlyphClass: 2
Flags: W
LayerCount: 2
Fore
SplineSet
162 868 m 1,0,-1
 444 995 l 1,1,-1
 330 274 l 2,2,3
 327 256 327 256 327 239 c 0,4,5
 327 217 327 217 332 194 c 0,6,7
 341 154 341 154 372.5 123 c 128,-1,8
 404 92 404 92 455 92 c 0,9,10
 561 92 561 92 760 172 c 1,11,-1
 887 975 l 1,12,-1
 1040 975 l 1,13,-1
 887 0 l 1,14,-1
 733 0 l 1,15,-1
 741 51 l 1,16,17
 573 -18 573 -18 444 -18 c 0,18,19
 294 -18 294 -18 224 60 c 0,20,21
 169 120 169 120 170 205 c 0,22,23
 170 229 170 229 174 256 c 2,24,-1
 254 764 l 2,25,26
 255 768 255 768 255 772 c 0,27,28
 255 797 255 797 230 828 c 0,29,30
 201 864 201 864 162 868 c 1,0,-1
EndSplineSet
Validated: 33
EndChar

StartChar: v
Encoding: 118 118 89
Width: 995
GlyphClass: 2
Flags: W
LayerCount: 2
Fore
SplineSet
190 975 m 1,0,-1
 350 975 l 1,1,-1
 518 250 l 1,2,-1
 836 795 l 2,3,4
 861 843 861 843 861 883 c 0,5,6
 861 894 861 894 859 904 c 0,7,8
 851 952 851 952 815 975 c 1,9,-1
 1067 975 l 1,10,-1
 510 0 l 1,11,-1
 422 0 l 1,12,-1
 190 975 l 1,0,-1
EndSplineSet
Validated: 1
EndChar

StartChar: w
Encoding: 119 119 90
Width: 1617
GlyphClass: 2
Flags: W
LayerCount: 2
Fore
SplineSet
190 975 m 1,0,-1
 348 975 l 1,1,-1
 516 250 l 1,2,-1
 834 795 l 2,3,4
 858 842 858 842 858 882 c 0,5,6
 858 893 858 893 856 903 c 0,7,8
 848 951 848 951 811 975 c 1,9,-1
 1006 975 l 1,10,-1
 1174 250 l 1,11,-1
 1491 795 l 2,12,13
 1515 842 1515 842 1515 882 c 0,14,15
 1516 893 1516 893 1514 903 c 0,16,17
 1506 951 1506 951 1468 975 c 1,18,-1
 1724 975 l 1,19,-1
 1167 0 l 1,20,-1
 1079 0 l 1,21,-1
 913 705 l 1,22,-1
 510 0 l 1,23,-1
 422 0 l 1,24,-1
 190 975 l 1,0,-1
EndSplineSet
Validated: 1
EndChar

StartChar: x
Encoding: 120 120 91
Width: 1054
GlyphClass: 2
Flags: W
LayerCount: 2
Fore
SplineSet
70 0 m 1,0,1
 269 216 269 216 502 473 c 1,2,-1
 213 975 l 1,3,-1
 479 975 l 1,4,5
 451 954 451 954 451 917 c 0,6,7
 451 874 451 874 489 811 c 2,8,-1
 612 602 l 1,9,-1
 948 975 l 1,10,-1
 1098 975 l 1,11,-1
 672 506 l 1,12,-1
 967 0 l 1,13,-1
 672 0 l 1,14,15
 701 18 701 18 707.5 50.5 c 128,-1,16
 714 83 714 83 705.5 113 c 128,-1,17
 697 143 697 143 680 174 c 2,18,-1
 563 377 l 1,19,-1
 221 0 l 1,20,-1
 70 0 l 1,0,1
EndSplineSet
Validated: 1
EndChar

StartChar: y
Encoding: 121 121 92
Width: 987
GlyphClass: 2
Flags: W
LayerCount: 2
Fore
SplineSet
141 -410 m 1,0,-1
 406 61 l 1,1,-1
 190 975 l 1,2,-1
 350 975 l 1,3,-1
 518 250 l 1,4,-1
 829 784 l 2,5,6
 855 833 855 833 855 878 c 0,7,8
 855 888 855 888 854 898 c 0,9,10
 847 952 847 952 811 975 c 1,11,-1
 1069 975 l 1,12,-1
 279 -410 l 1,13,-1
 141 -410 l 1,0,-1
EndSplineSet
Validated: 1
EndChar

StartChar: z
Encoding: 122 122 93
Width: 966
GlyphClass: 2
Flags: W
LayerCount: 2
Fore
SplineSet
92 70 m 1,0,-1
 723 862 l 1,1,-1
 438 862 l 2,2,3
 300 862 300 862 231 780 c 1,4,-1
 262 975 l 1,5,-1
 956 975 l 1,6,-1
 965 922 l 1,7,-1
 322 113 l 1,8,-1
 813 113 l 1,9,-1
 793 0 l 1,10,-1
 98 0 l 1,11,-1
 92 70 l 1,0,-1
EndSplineSet
Validated: 1
EndChar

StartChar: braceleft
Encoding: 123 123 94
Width: 618
GlyphClass: 2
Flags: W
LayerCount: 2
Fore
SplineSet
121 592 m 1,0,-1
 137 692 l 1,1,-1
 201 694 l 1,2,3
 272 706 272 706 311 750 c 128,-1,4
 350 794 350 794 358 860 c 2,5,-1
 397 1200 l 2,6,7
 402 1244 402 1244 419.5 1291.5 c 128,-1,8
 437 1339 437 1339 465 1382 c 128,-1,9
 493 1425 493 1425 535.5 1453 c 128,-1,10
 578 1481 578 1481 625 1481 c 0,11,12
 647 1481 647 1481 670 1477 c 128,-1,13
 693 1473 693 1473 721.5 1467 c 128,-1,14
 750 1461 750 1461 768 1458 c 1,15,-1
 743 1376 l 1,16,17
 727 1376 727 1376 717 1377 c 128,-1,18
 707 1378 707 1378 705 1378 c 0,19,20
 640 1378 640 1378 593 1344 c 128,-1,21
 546 1310 546 1310 535 1239 c 0,22,23
 509 1062 509 1062 506 1036 c 0,24,25
 488 883 488 883 477 817 c 0,26,27
 472 784 472 784 468.5 769.5 c 128,-1,28
 465 755 465 755 455.5 727.5 c 128,-1,29
 446 700 446 700 428.5 678.5 c 128,-1,30
 411 657 411 657 385 637 c 1,31,32
 420 598 420 598 426.5 567.5 c 128,-1,33
 433 537 433 537 420 446 c 2,34,-1
 344 39 l 2,35,36
 330 -40 330 -40 369.5 -71 c 128,-1,37
 409 -102 409 -102 477 -98 c 2,38,-1
 516 -96 l 1,39,-1
 510 -180 l 1,40,41
 433 -203 433 -203 365 -203 c 0,42,43
 312 -203 312 -203 278 -176.5 c 128,-1,44
 244 -150 244 -150 230 -111 c 128,-1,45
 216 -72 216 -72 214 -20.5 c 128,-1,46
 212 31 212 31 217.5 73.5 c 128,-1,47
 223 116 223 116 233 158 c 0,48,49
 268 297 268 297 289 428 c 0,50,51
 313 569 313 569 184 592 c 1,52,-1
 121 592 l 1,0,-1
EndSplineSet
Validated: 33
EndChar

StartChar: bar
Encoding: 124 124 95
Width: 485
GlyphClass: 2
Flags: W
LayerCount: 2
Fore
SplineSet
139 -174 m 1,0,1
 141 -171 141 -171 416 1579 c 1,2,-1
 532 1579 l 1,3,-1
 256 -174 l 1,4,-1
 139 -174 l 1,0,1
EndSplineSet
Validated: 1
EndChar

StartChar: braceright
Encoding: 125 125 96
Width: 626
GlyphClass: 2
Flags: W
LayerCount: 2
Fore
SplineSet
18 -180 m 1,0,-1
 41 -96 l 1,1,-1
 76 -98 l 2,2,3
 145 -102 145 -102 194.5 -71 c 128,-1,4
 244 -40 244 -40 254 39 c 2,5,-1
 309 446 l 2,6,7
 319 532 319 532 336 565 c 128,-1,8
 353 598 353 598 401 637 c 1,9,10
 376 664 376 664 367 697.5 c 128,-1,11
 358 731 358 731 359 754 c 128,-1,12
 360 777 360 777 367 817 c 0,13,14
 378 883 378 883 405 1020.5 c 128,-1,15
 432 1158 432 1158 444 1239 c 0,16,17
 455 1310 455 1310 419.5 1344 c 128,-1,18
 384 1378 384 1378 319 1378 c 0,19,20
 317 1378 317 1378 304.5 1377 c 128,-1,21
 292 1376 292 1376 276 1376 c 1,22,-1
 281 1458 l 1,23,24
 298 1461 298 1461 329 1467.5 c 128,-1,25
 360 1474 360 1474 385 1477.5 c 128,-1,26
 410 1481 410 1481 432 1481 c 0,27,28
 479 1481 479 1481 512.5 1452.5 c 128,-1,29
 546 1424 546 1424 559 1382 c 128,-1,30
 572 1340 572 1340 576 1291 c 128,-1,31
 580 1242 580 1242 569 1200 c 2,32,-1
 502 860 l 2,33,34
 488 794 488 794 513 750 c 128,-1,35
 538 706 538 706 606 694 c 1,36,-1
 670 692 l 1,37,-1
 653 592 l 1,38,-1
 590 592 l 1,39,40
 456 570 456 570 432 428 c 0,41,42
 411 294 411 294 401 158 c 0,43,44
 397 104 397 104 395 94 c 0,45,46
 388 46 388 46 372.5 -1 c 128,-1,47
 357 -48 357 -48 329.5 -96 c 128,-1,48
 302 -144 302 -144 257 -173.5 c 128,-1,49
 212 -203 212 -203 156 -203 c 0,50,51
 126 -203 126 -203 91.5 -197.5 c 128,-1,52
 57 -192 57 -192 38 -186 c 2,53,-1
 18 -180 l 1,0,-1
EndSplineSet
Validated: 33
EndChar

StartChar: asciitilde
Encoding: 126 126 97
Width: 1052
GlyphClass: 2
Flags: W
LayerCount: 2
Fore
SplineSet
236 1012 m 1,0,1
 254 1047 254 1047 262 1061.5 c 128,-1,2
 270 1076 270 1076 294.5 1117 c 128,-1,3
 319 1158 319 1158 335.5 1180.5 c 128,-1,4
 352 1203 352 1203 380 1237 c 128,-1,5
 408 1271 408 1271 432 1289 c 128,-1,6
 456 1307 456 1307 487 1321 c 128,-1,7
 518 1335 518 1335 547 1335 c 0,8,9
 597 1335 597 1335 641 1316 c 128,-1,10
 685 1297 685 1297 716 1269.5 c 128,-1,11
 747 1242 747 1242 774.5 1214.5 c 128,-1,12
 802 1187 802 1187 831.5 1168 c 128,-1,13
 861 1149 861 1149 891 1149 c 0,14,15
 962 1149 962 1149 1094 1321 c 1,16,17
 1102 1316 1102 1316 1125.5 1307.5 c 128,-1,18
 1149 1299 1149 1299 1155 1296 c 1,19,20
 1012 993 1012 993 838 993 c 0,21,22
 789 993 789 993 740.5 1023.5 c 128,-1,23
 692 1054 692 1054 660 1090.5 c 128,-1,24
 628 1127 628 1127 591.5 1157.5 c 128,-1,25
 555 1188 555 1188 528 1188 c 0,26,27
 481 1188 481 1188 406 1116 c 128,-1,28
 331 1044 331 1044 293 981 c 1,29,30
 285 986 285 986 263 997 c 128,-1,31
 241 1008 241 1008 236 1012 c 1,0,1
EndSplineSet
Validated: 1
EndChar

StartChar: exclamdown
Encoding: 161 161 99
Width: 434
GlyphClass: 2
Flags: W
LayerCount: 2
Fore
SplineSet
80 -135 m 1,0,-1
 274 854 l 1,1,-1
 381 854 l 1,2,-1
 262 -8 l 2,3,4
 258 -46 258 -46 276.5 -81.5 c 128,-1,5
 295 -117 295 -117 326 -135 c 1,6,-1
 80 -135 l 1,0,-1
276 1143 m 0,7,8
 284 1186 284 1186 314.5 1214.5 c 128,-1,9
 345 1243 345 1243 383 1243 c 0,10,11
 423 1243 423 1243 446.5 1214 c 128,-1,12
 470 1185 470 1185 463 1143 c 0,13,14
 457 1103 457 1103 424 1073.5 c 128,-1,15
 391 1044 391 1044 352 1044 c 0,16,17
 314 1044 314 1044 292 1073.5 c 128,-1,18
 270 1103 270 1103 276 1143 c 0,7,8
EndSplineSet
Validated: 33
EndChar

StartChar: cent
Encoding: 162 162 100
Width: 870
GlyphClass: 2
Flags: W
LayerCount: 2
Fore
SplineSet
229 715 m 0,0,1
 255 875 255 875 373.5 976 c 128,-1,2
 492 1077 492 1077 637 1077 c 2,3,-1
 647 1077 l 1,4,-1
 733 1327 l 1,5,6
 797 1357 797 1357 848 1364 c 1,7,-1
 743 1063 l 1,8,9
 855 1028 855 1028 893 928 c 1,10,11
 844 854 844 854 795 834 c 1,12,13
 769 919 769 919 707 954 c 1,14,-1
 526 432 l 1,15,16
 536 430 536 430 561 430 c 0,17,18
 601 430 601 430 664.5 451 c 128,-1,19
 728 472 728 472 768 496 c 1,20,21
 777 477 777 477 795 438 c 1,22,23
 747 391 747 391 667 357.5 c 128,-1,24
 587 324 587 324 518 324 c 2,25,-1
 489 324 l 1,26,-1
 379 0 l 1,27,-1
 279 0 l 1,28,-1
 397 344 l 1,29,30
 298 379 298 379 253.5 480 c 128,-1,31
 209 581 209 581 229 715 c 0,0,1
354 713 m 0,32,33
 326 525 326 525 436 459 c 1,34,-1
 610 975 l 1,35,36
 524 971 524 971 446 888 c 128,-1,37
 368 805 368 805 354 713 c 0,32,33
EndSplineSet
Validated: 33
EndChar

StartChar: sterling
Encoding: 163 163 101
Width: 1116
GlyphClass: 2
Flags: W
LayerCount: 2
Fore
SplineSet
113 84 m 1,0,1
 170 130 170 130 228.5 220 c 128,-1,2
 287 310 287 310 301 401 c 2,3,-1
 336 616 l 1,4,-1
 156 616 l 1,5,-1
 172 723 l 1,6,-1
 352 723 l 1,7,-1
 406 1065 l 2,8,9
 428 1199 428 1199 515.5 1285 c 128,-1,10
 603 1371 603 1371 719 1376 c 0,11,12
 789 1379 789 1379 844.5 1356 c 128,-1,13
 900 1333 900 1333 920 1300 c 1,14,-1
 885 1208 l 1,15,16
 838 1262 838 1262 719 1262 c 0,17,18
 658 1262 658 1262 608.5 1193 c 128,-1,19
 559 1124 559 1124 545 1030 c 2,20,-1
 496 723 l 1,21,-1
 694 723 l 1,22,-1
 678 616 l 1,23,-1
 479 616 l 1,24,-1
 436 350 l 2,25,26
 425 275 425 275 395.5 217.5 c 128,-1,27
 366 160 366 160 334 133 c 1,28,-1
 952 133 l 1,29,30
 936 55 936 55 891 0 c 1,31,-1
 119 0 l 1,32,-1
 113 84 l 1,0,1
EndSplineSet
Validated: 33
EndChar

StartChar: yen
Encoding: 165 165 102
Width: 1167
GlyphClass: 2
Flags: W
LayerCount: 2
Fore
SplineSet
203 297 m 1,0,-1
 219 401 l 1,1,-1
 537 401 l 1,2,-1
 567 569 l 1,3,-1
 246 569 l 1,4,-1
 262 670 l 1,5,-1
 528 670 l 1,6,-1
 233 1315 l 2,7,8
 224 1330 224 1330 232 1348 c 128,-1,9
 240 1366 240 1366 260 1366 c 2,10,-1
 410 1366 l 1,11,-1
 690 719 l 1,12,-1
 1174 1366 l 1,13,-1
 1278 1366 l 2,14,15
 1296 1366 1296 1366 1299.5 1351 c 128,-1,16
 1303 1336 1303 1336 1292 1317 c 2,17,-1
 786 670 l 1,18,-1
 1071 670 l 1,19,-1
 1055 569 l 1,20,-1
 725 569 l 1,21,-1
 698 401 l 1,22,-1
 1028 401 l 1,23,-1
 1012 297 l 1,24,-1
 682 297 l 1,25,-1
 635 0 l 1,26,-1
 467 0 l 1,27,-1
 518 297 l 1,28,-1
 203 297 l 1,0,-1
EndSplineSet
Validated: 1
EndChar

StartChar: brokenbar
Encoding: 166 166 103
Width: 438
GlyphClass: 2
Flags: W
LayerCount: 2
Fore
SplineSet
139 -174 m 1,0,-1
 260 594 l 1,1,-1
 397 594 l 1,2,-1
 276 -174 l 1,3,-1
 139 -174 l 1,0,-1
295 811 m 1,4,-1
 416 1579 l 1,5,-1
 553 1579 l 1,6,-1
 432 811 l 1,7,-1
 295 811 l 1,4,-1
EndSplineSet
Validated: 1
EndChar

StartChar: section
Encoding: 167 167 104
Width: 966
GlyphClass: 2
Flags: W
LayerCount: 2
Fore
SplineSet
174 143 m 0,0,1
 179 181 179 181 219 227 c 1,2,3
 255 174 255 174 338 138 c 128,-1,4
 421 102 421 102 504 102 c 0,5,6
 547 102 547 102 591 113 c 128,-1,7
 635 124 635 124 671 149.5 c 128,-1,8
 707 175 707 175 713 211 c 0,9,10
 722 264 722 264 702 302.5 c 128,-1,11
 682 341 682 341 639 360 c 0,12,13
 593 380 593 380 485.5 402.5 c 128,-1,14
 378 425 378 425 324 455 c 0,15,16
 264 490 264 490 239.5 541.5 c 128,-1,17
 215 593 215 593 227 674 c 0,18,19
 237 737 237 737 264 786.5 c 128,-1,20
 291 836 291 836 327.5 868 c 128,-1,21
 364 900 364 900 412 920 c 1,22,23
 368 942 368 942 345 1000.5 c 128,-1,24
 322 1059 322 1059 332 1130 c 0,25,26
 350 1240 350 1240 457 1306 c 128,-1,27
 564 1372 564 1372 696 1372 c 0,28,29
 790 1372 790 1372 874 1351 c 128,-1,30
 958 1330 958 1330 995 1288 c 0,31,32
 1007 1273 1007 1273 1008.5 1252 c 128,-1,33
 1010 1231 1010 1231 1002.5 1210.5 c 128,-1,34
 995 1190 995 1190 984.5 1171.5 c 128,-1,35
 974 1153 974 1153 961 1139 c 1,36,37
 943 1165 943 1165 911 1188.5 c 128,-1,38
 879 1212 879 1212 841 1228.5 c 128,-1,39
 803 1245 803 1245 759.5 1254.5 c 128,-1,40
 716 1264 716 1264 676 1264 c 0,41,42
 633 1264 633 1264 589 1253 c 128,-1,43
 545 1242 545 1242 509 1216.5 c 128,-1,44
 473 1191 473 1191 467 1155 c 0,45,46
 454 1069 454 1069 547 1018 c 0,47,48
 593 993 593 993 709 964 c 128,-1,49
 825 935 825 935 872 905 c 0,50,51
 929 870 929 870 946 822.5 c 128,-1,52
 963 775 963 775 950 690 c 0,53,54
 925 513 925 513 764 444 c 1,55,56
 765 444 765 444 767 443 c 128,-1,57
 769 442 769 442 770 442 c 0,58,59
 812 417 812 417 835.5 361 c 128,-1,60
 859 305 859 305 848 238 c 0,61,62
 836 162 836 162 779.5 105.5 c 128,-1,63
 723 49 723 49 645.5 21.5 c 128,-1,64
 568 -6 568 -6 483 -6 c 0,65,66
 389 -6 389 -6 305.5 15.5 c 128,-1,67
 222 37 222 37 186 76 c 0,68,69
 168 94 168 94 174 143 c 0,0,1
373 682 m 0,70,71
 361 600 361 600 425.5 560 c 128,-1,72
 490 520 490 520 584 520 c 0,73,74
 623 520 623 520 669 537 c 128,-1,75
 715 554 715 554 757 592.5 c 128,-1,76
 799 631 799 631 807 682 c 0,77,78
 819 765 819 765 754 805.5 c 128,-1,79
 689 846 689 846 594 846 c 0,80,81
 555 846 555 846 509 829 c 128,-1,82
 463 812 463 812 421.5 773 c 128,-1,83
 380 734 380 734 373 682 c 0,70,71
EndSplineSet
Validated: 33
EndChar

StartChar: dieresis
Encoding: 168 168 105
Width: 954
GlyphClass: 2
Flags: W
LayerCount: 2
Fore
SplineSet
414 1278 m 128,-1,1
 420 1318 420 1318 451 1346 c 128,-1,2
 482 1374 482 1374 522 1374 c 128,-1,3
 562 1374 562 1374 586 1346 c 128,-1,4
 610 1318 610 1318 604 1278 c 128,-1,5
 598 1238 598 1238 566 1211 c 128,-1,6
 534 1184 534 1184 494 1184 c 128,-1,7
 454 1184 454 1184 431 1211 c 128,-1,0
 408 1238 408 1238 414 1278 c 128,-1,1
791 1278 m 128,-1,9
 797 1318 797 1318 828 1346 c 128,-1,10
 859 1374 859 1374 899 1374 c 128,-1,11
 939 1374 939 1374 963 1346 c 128,-1,12
 987 1318 987 1318 981 1278 c 0,13,14
 975 1239 975 1239 942.5 1211.5 c 128,-1,15
 910 1184 910 1184 870 1184 c 128,-1,16
 830 1184 830 1184 807.5 1211 c 128,-1,8
 785 1238 785 1238 791 1278 c 128,-1,9
EndSplineSet
Validated: 33
EndChar

StartChar: copyright
Encoding: 169 169 106
Width: 1411
GlyphClass: 2
Flags: W
LayerCount: 2
Fore
SplineSet
168 662 m 128,-1,1
 194 829 194 829 299.5 971 c 128,-1,2
 405 1113 405 1113 560.5 1195.5 c 128,-1,3
 716 1278 716 1278 883 1278 c 128,-1,4
 1050 1278 1050 1278 1178.5 1195.5 c 128,-1,5
 1307 1113 1307 1113 1367 971 c 128,-1,6
 1427 829 1427 829 1401 662 c 128,-1,7
 1375 495 1375 495 1270 352.5 c 128,-1,8
 1165 210 1165 210 1010 127.5 c 128,-1,9
 855 45 855 45 688 45 c 128,-1,10
 521 45 521 45 392 127.5 c 128,-1,11
 263 210 263 210 202.5 352.5 c 128,-1,0
 142 495 142 495 168 662 c 128,-1,1
242 659 m 0,12,13
 225 550 225 550 252 449.5 c 128,-1,14
 279 349 279 349 340.5 276.5 c 128,-1,15
 402 204 402 204 496 160.5 c 128,-1,16
 590 117 590 117 700 117 c 0,17,18
 846 117 846 117 982.5 190 c 128,-1,19
 1119 263 1119 263 1211.5 388 c 128,-1,20
 1304 513 1304 513 1327 659 c 0,21,22
 1350 806 1350 806 1297 931 c 128,-1,23
 1244 1056 1244 1056 1131 1129 c 128,-1,24
 1018 1202 1018 1202 872 1202 c 0,25,26
 725 1202 725 1202 588 1129 c 128,-1,27
 451 1056 451 1056 358 931 c 128,-1,28
 265 806 265 806 242 659 c 0,12,13
469 664 m 0,29,30
 491 803 491 803 598.5 909.5 c 128,-1,31
 706 1016 706 1016 834 1016 c 0,32,33
 862 1016 862 1016 901 1010.5 c 128,-1,34
 940 1005 940 1005 977.5 995.5 c 128,-1,35
 1015 986 1015 986 1040 972 c 128,-1,36
 1065 958 1065 958 1063 942 c 2,37,-1
 1055 887 l 2,38,39
 1053 878 1053 878 1047.5 871 c 128,-1,40
 1042 864 1042 864 1036 864 c 0,41,42
 1026 866 1026 866 1018 870 c 1,43,44
 999 898 999 898 946.5 919 c 128,-1,45
 894 940 894 940 825 940 c 0,46,47
 736 940 736 940 659.5 869.5 c 128,-1,48
 583 799 583 799 565 682 c 0,49,50
 541 528 541 528 595.5 444 c 128,-1,51
 650 360 650 360 739 360 c 0,52,53
 858 360 858 360 942 432 c 0,54,55
 949 442 949 442 961 442 c 0,56,57
 982 442 982 442 975 397 c 0,58,59
 970 373 970 373 967.5 363.5 c 128,-1,60
 965 354 965 354 960.5 347 c 128,-1,61
 956 340 956 340 948 338 c 0,62,63
 906 319 906 319 881.5 309.5 c 128,-1,64
 857 300 857 300 815 292.5 c 128,-1,65
 773 285 773 285 723 285 c 0,66,67
 587 285 587 285 514.5 389.5 c 128,-1,68
 442 494 442 494 469 664 c 0,29,30
EndSplineSet
Validated: 33
EndChar

StartChar: ordfeminine
Encoding: 170 170 107
Width: 798
GlyphClass: 2
Flags: W
LayerCount: 2
Fore
SplineSet
260 1059 m 0,0,1
 282 1198 282 1198 375 1289 c 128,-1,2
 468 1380 468 1380 602 1380 c 0,3,4
 674 1380 674 1380 735 1323 c 1,5,6
 788 1381 788 1381 854 1389 c 1,7,-1
 782 932 l 2,8,9
 771 867 771 867 831 803 c 1,10,11
 775 760 775 760 727 754 c 1,12,-1
 725 754 l 1,13,14
 703 765 703 765 680 821 c 1,15,16
 640 787 640 787 591 768.5 c 128,-1,17
 542 750 542 750 500 750 c 0,18,19
 368 750 368 750 303 836.5 c 128,-1,20
 238 923 238 923 260 1059 c 0,0,1
381 1077 m 0,21,22
 364 964 364 964 408.5 911 c 128,-1,23
 453 858 453 858 532 858 c 0,24,25
 570 858 570 858 609.5 877 c 128,-1,26
 649 896 649 896 678 934 c 1,27,-1
 715 1165 l 1,28,29
 712 1216 712 1216 673.5 1248 c 128,-1,30
 635 1280 635 1280 578 1280 c 0,31,32
 510 1280 510 1280 454 1226 c 128,-1,33
 398 1172 398 1172 381 1077 c 0,21,22
EndSplineSet
Validated: 33
EndChar

StartChar: guillemotleft
Encoding: 171 171 108
Width: 1116
GlyphClass: 2
Flags: W
LayerCount: 2
Fore
SplineSet
178 438 m 1,0,-1
 199 561 l 1,1,-1
 719 879 l 1,2,-1
 756 829 l 1,3,-1
 342 504 l 1,4,-1
 641 152 l 1,5,-1
 590 104 l 1,6,-1
 178 438 l 1,0,-1
563 438 m 1,7,-1
 584 561 l 1,8,-1
 1104 879 l 1,9,-1
 1141 829 l 1,10,-1
 727 504 l 1,11,-1
 1026 152 l 1,12,-1
 975 104 l 1,13,-1
 563 438 l 1,7,-1
EndSplineSet
Validated: 1
EndChar

StartChar: logicalnot
Encoding: 172 172 109
Width: 980
GlyphClass: 2
Flags: W
LayerCount: 2
Fore
SplineSet
205 844 m 1,0,-1
 225 975 l 1,1,-1
 1030 975 l 1,2,-1
 932 348 l 1,3,-1
 786 350 l 1,4,-1
 864 844 l 1,5,-1
 205 844 l 1,0,-1
EndSplineSet
Validated: 1
EndChar

StartChar: uni00AD
Encoding: 173 173 110
Width: 759
GlyphClass: 2
Flags: W
LayerCount: 2
Fore
SplineSet
174 504 m 1,0,-1
 193 623 l 1,1,-1
 735 623 l 1,2,-1
 717 504 l 1,3,-1
 174 504 l 1,0,-1
EndSplineSet
Validated: 1
EndChar

StartChar: registered
Encoding: 174 174 111
Width: 1411
GlyphClass: 2
Flags: W
LayerCount: 2
Fore
SplineSet
164 662 m 128,-1,1
 190 829 190 829 295.5 971 c 128,-1,2
 401 1113 401 1113 556.5 1195.5 c 128,-1,3
 712 1278 712 1278 879 1278 c 128,-1,4
 1046 1278 1046 1278 1174.5 1195.5 c 128,-1,5
 1303 1113 1303 1113 1363 971 c 128,-1,6
 1423 829 1423 829 1397 662 c 128,-1,7
 1371 495 1371 495 1266 352.5 c 128,-1,8
 1161 210 1161 210 1006 127.5 c 128,-1,9
 851 45 851 45 684 45 c 128,-1,10
 517 45 517 45 388 127.5 c 128,-1,11
 259 210 259 210 198.5 352.5 c 128,-1,0
 138 495 138 495 164 662 c 128,-1,1
238 659 m 0,12,13
 221 550 221 550 248 449.5 c 128,-1,14
 275 349 275 349 336.5 276.5 c 128,-1,15
 398 204 398 204 492 160.5 c 128,-1,16
 586 117 586 117 696 117 c 0,17,18
 842 117 842 117 978.5 190 c 128,-1,19
 1115 263 1115 263 1207.5 388 c 128,-1,20
 1300 513 1300 513 1323 659 c 0,21,22
 1346 806 1346 806 1293 931 c 128,-1,23
 1240 1056 1240 1056 1127 1129 c 128,-1,24
 1014 1202 1014 1202 868 1202 c 0,25,26
 721 1202 721 1202 584 1129 c 128,-1,27
 447 1056 447 1056 354 931 c 128,-1,28
 261 806 261 806 238 659 c 0,12,13
516 311 m 1,29,-1
 627 1014 l 1,30,-1
 877 1014 l 2,31,32
 967 1014 967 1014 1005.5 959 c 128,-1,33
 1044 904 1044 904 1032 827 c 0,34,35
 1021 756 1021 756 968.5 698.5 c 128,-1,36
 916 641 916 641 844 629 c 1,37,38
 879 514 879 514 971 344 c 0,39,40
 970 342 970 342 971 336 c 128,-1,41
 972 330 972 330 971 328 c 0,42,43
 971 321 971 321 967 316 c 128,-1,44
 963 311 963 311 958 311 c 2,45,-1
 887 311 l 2,46,47
 872 311 872 311 868 326 c 2,48,-1
 748 621 l 1,49,50
 722 621 722 621 694 625 c 0,51,52
 690 625 690 625 680.5 626 c 128,-1,53
 671 627 671 627 668 627 c 2,54,-1
 657 627 l 1,55,-1
 606 311 l 1,56,-1
 516 311 l 1,29,-1
668 700 m 1,57,58
 732 691 732 691 807 694 c 0,59,60
 848 697 848 697 892 736 c 128,-1,61
 936 775 936 775 944 827 c 0,62,63
 952 877 952 877 921.5 907.5 c 128,-1,64
 891 938 891 938 834 938 c 2,65,-1
 707 938 l 1,66,-1
 668 700 l 1,57,58
EndSplineSet
Validated: 33
EndChar

StartChar: macron
Encoding: 175 175 112
Width: 1040
GlyphClass: 2
Flags: W
LayerCount: 2
Fore
SplineSet
377 1239 m 1,0,-1
 397 1366 l 1,1,-1
 1067 1366 l 1,2,-1
 1047 1239 l 1,3,-1
 377 1239 l 1,0,-1
EndSplineSet
Validated: 1
EndChar

StartChar: degree
Encoding: 176 176 113
Width: 712
GlyphClass: 2
Flags: W
LayerCount: 2
Fore
SplineSet
260 1120 m 0,0,1
 278 1234 278 1234 359.5 1309 c 128,-1,2
 441 1384 441 1384 565 1384 c 0,3,4
 682 1384 682 1384 744 1307.5 c 128,-1,5
 806 1231 806 1231 788 1120 c 0,6,7
 768 1005 768 1005 686 930.5 c 128,-1,8
 604 856 604 856 481 856 c 0,9,10
 361 856 361 856 301 931.5 c 128,-1,11
 241 1007 241 1007 260 1120 c 0,0,1
371 1120 m 0,12,13
 359 1047 359 1047 394 997.5 c 128,-1,14
 429 948 429 948 496 948 c 0,15,16
 561 948 561 948 612.5 997.5 c 128,-1,17
 664 1047 664 1047 676 1120 c 0,18,19
 687 1192 687 1192 651.5 1242 c 128,-1,20
 616 1292 616 1292 551 1292 c 0,21,22
 484 1292 484 1292 433 1242 c 128,-1,23
 382 1192 382 1192 371 1120 c 0,12,13
EndSplineSet
Validated: 33
EndChar

StartChar: plusminus
Encoding: 177 177 114
Width: 1097
GlyphClass: 2
Flags: W
LayerCount: 2
Fore
SplineSet
119 53 m 1,0,-1
 139 180 l 1,1,-1
 977 180 l 1,2,-1
 956 53 l 1,3,-1
 119 53 l 1,0,-1
227 616 m 1,4,-1
 248 743 l 1,5,-1
 602 743 l 1,6,-1
 655 1079 l 1,7,-1
 764 1079 l 1,8,-1
 711 743 l 1,9,-1
 1067 743 l 1,10,-1
 1047 616 l 1,11,-1
 690 616 l 1,12,-1
 637 281 l 1,13,-1
 528 281 l 1,14,-1
 582 616 l 1,15,-1
 227 616 l 1,4,-1
EndSplineSet
Validated: 1
EndChar

StartChar: uni00B2
Encoding: 178 178 115
Width: 765
GlyphClass: 2
Flags: W
LayerCount: 2
Fore
SplineSet
209 618 m 1,0,-1
 528 913 l 1,1,-1
 563 948 l 1,2,-1
 563 946 l 1,3,4
 624 1001 624 1001 702 1071 c 1,5,6
 721 1194 721 1194 711 1229 c 1,7,8
 696 1248 696 1248 689.5 1255.5 c 128,-1,9
 683 1263 683 1263 667.5 1275.5 c 128,-1,10
 652 1288 652 1288 635 1294 c 1,11,12
 522 1294 522 1294 379 1245 c 1,13,14
 349 1192 349 1192 343 1193 c 0,15,16
 335 1193 335 1193 337 1285 c 0,17,18
 338 1291 338 1291 338 1303 c 1,19,20
 413 1355 413 1355 524 1382 c 1,21,22
 587 1382 587 1382 612 1381.5 c 128,-1,23
 637 1381 637 1381 676 1376 c 128,-1,24
 715 1371 715 1371 745 1360 c 1,25,26
 771 1334 771 1334 785 1319 c 128,-1,27
 799 1304 799 1304 817.5 1277.5 c 128,-1,28
 836 1251 836 1251 848 1223 c 1,29,-1
 836 1153 l 2,30,31
 829 1112 829 1112 815 1078.5 c 128,-1,32
 801 1045 801 1045 774.5 1012 c 128,-1,33
 748 979 748 979 726.5 957.5 c 128,-1,34
 705 936 705 936 662 897 c 2,35,-1
 635 872 l 2,36,37
 593 834 593 834 550.5 794 c 128,-1,38
 508 754 508 754 456.5 705.5 c 128,-1,39
 405 657 405 657 373 627 c 1,40,-1
 750 627 l 1,41,42
 747 627 747 627 735 537 c 1,43,-1
 236 537 l 1,44,45
 225 553 225 553 217 578 c 0,46,47
 212 600 212 600 209 618 c 1,0,-1
EndSplineSet
Validated: 33
EndChar

StartChar: uni00B3
Encoding: 179 179 116
Width: 712
GlyphClass: 2
Flags: W
LayerCount: 2
Fore
SplineSet
190 608 m 1,0,-1
 195 741 l 1,1,2
 250 688 250 688 304.5 656.5 c 128,-1,3
 359 625 359 625 428 625 c 0,4,5
 507 625 507 625 563.5 671.5 c 128,-1,6
 620 718 620 718 633 807 c 0,7,8
 642 868 642 868 616.5 904.5 c 128,-1,9
 591 941 591 941 551 956 c 1,10,-1
 408 956 l 2,11,12
 390 956 390 956 382.5 972 c 128,-1,13
 375 988 375 988 377 1001 c 0,14,15
 377 1013 377 1013 389.5 1031 c 128,-1,16
 402 1049 402 1049 424 1049 c 2,17,-1
 567 1049 l 1,18,19
 606 1055 606 1055 641.5 1094.5 c 128,-1,20
 677 1134 677 1134 686 1186 c 0,21,22
 693 1240 693 1240 658.5 1269 c 128,-1,23
 624 1298 624 1298 561 1298 c 0,24,25
 508 1298 508 1298 427 1264 c 128,-1,26
 346 1230 346 1230 315 1174 c 1,27,-1
 319 1307 l 1,28,29
 444 1386 444 1386 582 1386 c 0,30,31
 696 1386 696 1386 757 1331 c 128,-1,32
 818 1276 818 1276 805 1184 c 0,33,34
 795 1123 795 1123 754 1077.5 c 128,-1,35
 713 1032 713 1032 662 1006 c 1,36,37
 706 976 706 976 735.5 926.5 c 128,-1,38
 765 877 765 877 756 811 c 0,39,40
 744 741 744 741 707 685 c 128,-1,41
 670 629 670 629 619.5 597 c 128,-1,42
 569 565 569 565 515.5 548.5 c 128,-1,43
 462 532 462 532 410 532 c 0,44,45
 290 532 290 532 190 608 c 1,0,-1
EndSplineSet
Validated: 33
EndChar

StartChar: acute
Encoding: 180 180 117
Width: 1028
GlyphClass: 2
Flags: W
LayerCount: 2
Fore
SplineSet
539 1092 m 1,0,-1
 858 1366 l 1,1,-1
 1030 1366 l 1,2,-1
 651 1094 l 1,3,-1
 539 1092 l 1,0,-1
EndSplineSet
Validated: 1
EndChar

StartChar: uni00B5
Encoding: 181 181 118
Width: 1024
GlyphClass: 2
Flags: W
LayerCount: 2
Fore
SplineSet
63 -410 m 1,0,-1
 281 950 l 1,1,2
 305 968 305 968 351 982.5 c 128,-1,3
 397 997 397 997 432 997 c 1,4,-1
 313 264 l 1,5,6
 311 212 311 212 347.5 172.5 c 128,-1,7
 384 133 384 133 444 133 c 128,-1,8
 504 133 504 133 582.5 180 c 128,-1,9
 661 227 661 227 774 324 c 1,10,-1
 872 948 l 1,11,12
 925 982 925 982 1020 995 c 1,13,-1
 901 242 l 2,14,15
 888 160 888 160 971 55 c 1,16,17
 909 4 909 4 842 -6 c 1,18,19
 813 10 813 10 783.5 63.5 c 128,-1,20
 754 117 754 117 750 172 c 1,21,-1
 727 152 l 2,22,23
 631 71 631 71 560.5 30.5 c 128,-1,24
 490 -10 490 -10 412 -10 c 0,25,26
 336 -10 336 -10 279 41 c 1,27,-1
 207 -410 l 1,28,-1
 63 -410 l 1,0,-1
EndSplineSet
Validated: 33
EndChar

StartChar: paragraph
Encoding: 182 182 119
Width: 1243
GlyphClass: 2
Flags: W
LayerCount: 2
Fore
SplineSet
231 940 m 0,0,1
 244 1020 244 1020 285.5 1095.5 c 128,-1,2
 327 1171 327 1171 390.5 1232 c 128,-1,3
 454 1293 454 1293 544 1329.5 c 128,-1,4
 634 1366 634 1366 735 1366 c 2,5,-1
 1346 1366 l 1,6,7
 1369 1328 1369 1328 1354 1223 c 1,8,9
 1284 1243 1284 1243 1235 1243 c 2,10,-1
 1204 1243 l 1,11,-1
 1008 0 l 1,12,-1
 891 0 l 1,13,-1
 1087 1243 l 1,14,-1
 948 1243 l 1,15,-1
 752 0 l 1,16,-1
 633 0 l 1,17,-1
 719 539 l 1,18,19
 616 514 616 514 578 514 c 0,20,21
 492 514 492 514 422 541 c 128,-1,22
 352 568 352 568 303 619.5 c 128,-1,23
 254 671 254 671 234.5 753.5 c 128,-1,24
 215 836 215 836 231 940 c 0,0,1
383 932 m 0,25,26
 361 790 361 790 432 711.5 c 128,-1,27
 503 633 503 633 616 633 c 0,28,29
 680 633 680 633 737 657 c 1,30,-1
 827 1233 l 1,31,-1
 737 1233 l 2,32,33
 604 1233 604 1233 504 1145 c 128,-1,34
 404 1057 404 1057 383 932 c 0,25,26
EndSplineSet
Validated: 33
EndChar

StartChar: periodcentered
Encoding: 183 183 120
Width: 403
GlyphClass: 2
Flags: W
LayerCount: 2
Fore
SplineSet
180 520 m 0,0,1
 186 560 186 560 219.5 589 c 128,-1,2
 253 618 253 618 293 618 c 0,3,4
 331 618 331 618 352 589 c 128,-1,5
 373 560 373 560 367 520 c 0,6,7
 361 477 361 477 330.5 448.5 c 128,-1,8
 300 420 300 420 262 420 c 0,9,10
 222 420 222 420 198 449 c 128,-1,11
 174 478 174 478 180 520 c 0,0,1
EndSplineSet
Validated: 33
EndChar

StartChar: cedilla
Encoding: 184 184 121
Width: 940
GlyphClass: 2
Flags: W
LayerCount: 2
Fore
SplineSet
266 -297 m 1,0,-1
 309 -248 l 1,1,2
 383 -270 383 -270 436 -270 c 0,3,4
 548 -270 548 -270 559 -197 c 0,5,6
 563 -169 563 -169 539.5 -153 c 128,-1,7
 516 -137 516 -137 477 -137 c 0,8,9
 455 -137 455 -137 417 -143.5 c 128,-1,10
 379 -150 379 -150 352 -157 c 2,11,-1
 324 -164 l 1,12,-1
 303 -127 l 1,13,14
 457 25 457 25 459 25 c 2,15,-1
 492 10 l 1,16,-1
 395 -92 l 1,17,18
 463 -66 463 -66 504 -66 c 0,19,20
 527 -66 527 -66 547 -67.5 c 128,-1,21
 567 -69 567 -69 597 -76.5 c 128,-1,22
 627 -84 627 -84 647 -96.5 c 128,-1,23
 667 -109 667 -109 679.5 -134.5 c 128,-1,24
 692 -160 692 -160 686 -195 c 128,-1,25
 680 -230 680 -230 661 -257.5 c 128,-1,26
 642 -285 642 -285 616.5 -301.5 c 128,-1,27
 591 -318 591 -318 558.5 -328.5 c 128,-1,28
 526 -339 526 -339 497.5 -342.5 c 128,-1,29
 469 -346 469 -346 440 -346 c 0,30,31
 404 -346 404 -346 360.5 -334 c 128,-1,32
 317 -322 317 -322 292 -310 c 2,33,-1
 266 -297 l 1,0,-1
EndSplineSet
Validated: 1
EndChar

StartChar: uni00B9
Encoding: 185 185 122
Width: 438
GlyphClass: 2
Flags: W
LayerCount: 2
Fore
SplineSet
256 1110 m 1,0,1
 346 1210 346 1210 477 1389 c 1,2,-1
 532 1358 l 1,3,-1
 401 528 l 1,4,-1
 287 528 l 1,5,-1
 381 1120 l 1,6,7
 298 1033 298 1033 285 1020 c 1,8,-1
 256 1110 l 1,0,1
EndSplineSet
Validated: 1
EndChar

StartChar: ordmasculine
Encoding: 186 186 123
Width: 761
GlyphClass: 2
Flags: W
LayerCount: 2
Fore
SplineSet
262 1073 m 0,0,1
 283 1207 283 1207 373 1295.5 c 128,-1,2
 463 1384 463 1384 598 1384 c 0,3,4
 725 1384 725 1384 791 1294.5 c 128,-1,5
 857 1205 857 1205 836 1073 c 0,6,7
 815 940 815 940 725 852 c 128,-1,8
 635 764 635 764 500 764 c 0,9,10
 371 764 371 764 306 853 c 128,-1,11
 241 942 241 942 262 1073 c 0,0,1
385 1085 m 0,12,13
 371 1000 371 1000 409 937 c 128,-1,14
 447 874 447 874 518 874 c 128,-1,15
 589 874 589 874 644 928 c 128,-1,16
 699 982 699 982 711 1065 c 0,17,18
 725 1151 725 1151 688 1213.5 c 128,-1,19
 651 1276 651 1276 582 1276 c 0,20,21
 510 1276 510 1276 454 1222.5 c 128,-1,22
 398 1169 398 1169 385 1085 c 0,12,13
EndSplineSet
Validated: 33
EndChar

StartChar: guillemotright
Encoding: 187 187 124
Width: 1116
GlyphClass: 2
Flags: W
LayerCount: 2
Fore
SplineSet
141 152 m 1,0,-1
 551 504 l 1,1,-1
 240 829 l 1,2,-1
 293 879 l 1,3,-1
 711 561 l 1,4,-1
 694 438 l 1,5,-1
 176 104 l 1,6,-1
 141 152 l 1,0,-1
526 152 m 1,7,-1
 936 504 l 1,8,-1
 625 829 l 1,9,-1
 678 879 l 1,10,-1
 1096 561 l 1,11,-1
 1079 438 l 1,12,-1
 561 104 l 1,13,-1
 526 152 l 1,7,-1
EndSplineSet
Validated: 1
EndChar

StartChar: onequarter
Encoding: 188 188 125
Width: 1464
GlyphClass: 2
Flags: W
LayerCount: 2
Fore
SplineSet
182 0 m 1,0,-1
 1198 1366 l 1,1,-1
 1333 1366 l 1,2,-1
 317 0 l 1,3,-1
 182 0 l 1,0,-1
256 1110 m 1,4,5
 346 1210 346 1210 477 1389 c 1,6,-1
 532 1358 l 1,7,-1
 401 528 l 1,8,-1
 287 528 l 1,9,-1
 381 1120 l 1,10,11
 298 1033 298 1033 285 1020 c 1,12,-1
 256 1110 l 1,4,5
807 319 m 1,13,-1
 1233 842 l 1,14,-1
 1362 842 l 1,15,-1
 1284 342 l 1,16,-1
 1384 342 l 1,17,-1
 1366 227 l 1,18,-1
 1266 227 l 1,19,-1
 1229 0 l 1,20,-1
 1112 0 l 1,21,-1
 1149 229 l 1,22,23
 1099 229 1099 229 995 230 c 128,-1,24
 891 231 891 231 842 231 c 1,25,-1
 807 319 l 1,13,-1
934 342 m 1,26,-1
 1167 342 l 1,27,-1
 1221 684 l 1,28,29
 1178 633 1178 633 1083.5 521 c 128,-1,30
 989 409 989 409 934 342 c 1,26,-1
EndSplineSet
Validated: 1
EndChar

StartChar: onehalf
Encoding: 189 189 126
Width: 1531
GlyphClass: 2
Flags: W
LayerCount: 2
Fore
SplineSet
182 0 m 1,0,-1
 1198 1366 l 1,1,-1
 1333 1366 l 1,2,-1
 317 0 l 1,3,-1
 182 0 l 1,0,-1
256 1110 m 1,4,5
 346 1210 346 1210 477 1389 c 1,6,-1
 532 1358 l 1,7,-1
 401 528 l 1,8,-1
 287 528 l 1,9,-1
 381 1120 l 1,10,11
 298 1033 298 1033 285 1020 c 1,12,-1
 256 1110 l 1,4,5
893 82 m 1,13,14
 920 107 920 107 1050 227 c 128,-1,15
 1180 347 1180 347 1249 412 c 1,16,-1
 1249 410 l 1,17,18
 1281 439 1281 439 1298 455.5 c 128,-1,19
 1315 472 1315 472 1341 500.5 c 128,-1,20
 1367 529 1367 529 1381 556.5 c 128,-1,21
 1395 584 1395 584 1399 612 c 0,22,23
 1410 672 1410 672 1374 717 c 1,24,25
 1347 758 1347 758 1284 758 c 0,26,27
 1220 758 1220 758 1135.5 721.5 c 128,-1,28
 1051 685 1051 685 1020 631 c 1,29,-1
 1022 766 l 1,30,31
 1077 804 1077 804 1152.5 825 c 128,-1,32
 1228 846 1228 846 1300 846 c 0,33,34
 1406 846 1406 846 1471.5 782.5 c 128,-1,35
 1537 719 1537 719 1522 616 c 0,36,37
 1517 583 1517 583 1504.5 552.5 c 128,-1,38
 1492 522 1492 522 1480 501.5 c 128,-1,39
 1468 481 1468 481 1441 451.5 c 128,-1,40
 1414 422 1414 422 1399.5 408 c 128,-1,41
 1385 394 1385 394 1348 360 c 2,42,-1
 1319 334 l 1,43,-1
 1319 336 l 1,44,45
 1272 293 1272 293 1188 213 c 128,-1,46
 1104 133 1104 133 1057 90 c 1,47,-1
 1434 90 l 1,48,-1
 1419 0 l 1,49,-1
 920 0 l 1,50,51
 902 28 902 28 899 59 c 1,52,-1
 893 82 l 1,13,14
EndSplineSet
Validated: 33
EndChar

StartChar: threequarters
Encoding: 190 190 127
Width: 1536
GlyphClass: 2
Flags: W
LayerCount: 2
Fore
SplineSet
190 608 m 1,0,-1
 195 741 l 1,1,2
 250 688 250 688 304.5 656.5 c 128,-1,3
 359 625 359 625 428 625 c 0,4,5
 507 625 507 625 563.5 671.5 c 128,-1,6
 620 718 620 718 633 807 c 0,7,8
 642 868 642 868 616.5 904.5 c 128,-1,9
 591 941 591 941 551 956 c 1,10,-1
 408 956 l 2,11,12
 390 956 390 956 382.5 972 c 128,-1,13
 375 988 375 988 377 1001 c 0,14,15
 377 1013 377 1013 389.5 1031 c 128,-1,16
 402 1049 402 1049 424 1049 c 2,17,-1
 567 1049 l 1,18,19
 606 1055 606 1055 641.5 1094.5 c 128,-1,20
 677 1134 677 1134 686 1186 c 0,21,22
 693 1240 693 1240 658.5 1269 c 128,-1,23
 624 1298 624 1298 561 1298 c 0,24,25
 508 1298 508 1298 427 1264 c 128,-1,26
 346 1230 346 1230 315 1174 c 1,27,-1
 319 1307 l 1,28,29
 444 1386 444 1386 582 1386 c 0,30,31
 696 1386 696 1386 757 1331 c 128,-1,32
 818 1276 818 1276 805 1184 c 0,33,34
 795 1123 795 1123 754 1077.5 c 128,-1,35
 713 1032 713 1032 662 1006 c 1,36,37
 706 976 706 976 735.5 926.5 c 128,-1,38
 765 877 765 877 756 811 c 0,39,40
 744 741 744 741 707 685 c 128,-1,41
 670 629 670 629 619.5 597 c 128,-1,42
 569 565 569 565 515.5 548.5 c 128,-1,43
 462 532 462 532 410 532 c 0,44,45
 290 532 290 532 190 608 c 1,0,-1
326 0 m 1,46,-1
 1341 1366 l 1,47,-1
 1477 1366 l 1,48,-1
 461 0 l 1,49,-1
 326 0 l 1,46,-1
889 319 m 1,50,-1
 1315 842 l 1,51,-1
 1444 842 l 1,52,-1
 1366 342 l 1,53,-1
 1466 342 l 1,54,-1
 1448 227 l 1,55,-1
 1348 227 l 1,56,-1
 1311 0 l 1,57,-1
 1194 0 l 1,58,-1
 1231 229 l 1,59,60
 1181 229 1181 229 1077 230 c 128,-1,61
 973 231 973 231 924 231 c 1,62,-1
 889 319 l 1,50,-1
1016 342 m 1,63,-1
 1249 342 l 1,64,-1
 1303 684 l 1,65,66
 1260 633 1260 633 1165.5 521 c 128,-1,67
 1071 409 1071 409 1016 342 c 1,63,-1
EndSplineSet
Validated: 33
EndChar

StartChar: questiondown
Encoding: 191 191 128
Width: 808
GlyphClass: 2
Flags: W
LayerCount: 2
Fore
SplineSet
68 197 m 0,0,1
 78 260 78 260 117 318.5 c 128,-1,2
 156 377 156 377 207.5 420 c 128,-1,3
 259 463 259 463 318 506 c 128,-1,4
 377 549 377 549 427 583 c 128,-1,5
 477 617 477 617 513 656 c 128,-1,6
 549 695 549 695 555 731 c 0,7,8
 560 763 560 763 547 785 c 128,-1,9
 534 807 534 807 506 807 c 0,10,11
 482 807 482 807 440 793 c 1,12,-1
 459 889 l 1,13,14
 471 898 471 898 495.5 904.5 c 128,-1,15
 520 911 520 911 541 911 c 0,16,17
 621 911 621 911 672 860 c 128,-1,18
 723 809 723 809 711 729 c 0,19,20
 699 654 699 654 647 586 c 128,-1,21
 595 518 595 518 529 467.5 c 128,-1,22
 463 417 463 417 397.5 370.5 c 128,-1,23
 332 324 332 324 283.5 274 c 128,-1,24
 235 224 235 224 227 176 c 0,25,26
 199 -12 199 -12 381 -12 c 0,27,28
 482 -12 482 -12 589 46 c 128,-1,29
 696 104 696 104 750 195 c 1,30,-1
 719 2 l 1,31,32
 647 -53 647 -53 548.5 -88 c 128,-1,33
 450 -123 450 -123 367 -123 c 0,34,35
 217 -123 217 -123 131 -37 c 128,-1,36
 45 49 45 49 68 197 c 0,0,1
520 1167 m 128,-1,38
 526 1209 526 1209 559 1238.5 c 128,-1,39
 592 1268 592 1268 633 1268 c 0,40,41
 673 1268 673 1268 696 1238 c 128,-1,42
 719 1208 719 1208 713 1167 c 0,43,44
 707 1127 707 1127 674 1097 c 128,-1,45
 641 1067 641 1067 600 1067 c 128,-1,46
 559 1067 559 1067 536.5 1096 c 128,-1,37
 514 1125 514 1125 520 1167 c 128,-1,38
EndSplineSet
Validated: 33
EndChar

StartChar: Agrave
Encoding: 192 192 129
Width: 1185
GlyphClass: 2
Flags: W
LayerCount: 2
Fore
SplineSet
31 0 m 1,0,-1
 776 1366 l 1,1,-1
 809 1366 l 1,2,-1
 1124 0 l 1,3,-1
 850 0 l 1,4,5
 887 15 887 15 915 52.5 c 128,-1,6
 943 90 943 90 932 141 c 2,7,-1
 885 350 l 1,8,-1
 352 350 l 1,9,-1
 162 0 l 1,10,-1
 31 0 l 1,0,-1
412 463 m 1,11,-1
 858 463 l 1,12,-1
 727 1042 l 1,13,-1
 412 463 l 1,11,-1
490 1747 m 1,14,-1
 674 1747 l 1,15,-1
 903 1473 l 1,16,-1
 782 1475 l 1,17,-1
 490 1747 l 1,14,-1
EndSplineSet
Validated: 33
EndChar

StartChar: Aacute
Encoding: 193 193 130
Width: 1185
GlyphClass: 2
Flags: W
LayerCount: 2
Fore
SplineSet
31 0 m 1,0,-1
 776 1366 l 1,1,-1
 809 1366 l 1,2,-1
 1124 0 l 1,3,-1
 850 0 l 1,4,5
 887 15 887 15 915 52.5 c 128,-1,6
 943 90 943 90 932 141 c 2,7,-1
 885 350 l 1,8,-1
 352 350 l 1,9,-1
 162 0 l 1,10,-1
 31 0 l 1,0,-1
412 463 m 1,11,-1
 858 463 l 1,12,-1
 727 1042 l 1,13,-1
 412 463 l 1,11,-1
695 1483 m 1,14,-1
 1014 1757 l 1,15,-1
 1186 1757 l 1,16,-1
 807 1485 l 1,17,-1
 695 1483 l 1,14,-1
EndSplineSet
Validated: 33
EndChar

StartChar: Acircumflex
Encoding: 194 194 131
Width: 1185
GlyphClass: 2
Flags: W
LayerCount: 2
Fore
SplineSet
31 0 m 1,0,-1
 776 1366 l 1,1,-1
 809 1366 l 1,2,-1
 1124 0 l 1,3,-1
 850 0 l 1,4,5
 887 15 887 15 915 52.5 c 128,-1,6
 943 90 943 90 932 141 c 2,7,-1
 885 350 l 1,8,-1
 352 350 l 1,9,-1
 162 0 l 1,10,-1
 31 0 l 1,0,-1
412 463 m 1,11,-1
 858 463 l 1,12,-1
 727 1042 l 1,13,-1
 412 463 l 1,11,-1
532 1446 m 1,14,-1
 856 1799 l 1,15,-1
 1069 1446 l 1,16,-1
 948 1446 l 1,17,-1
 835 1645 l 1,18,-1
 655 1446 l 1,19,-1
 532 1446 l 1,14,-1
EndSplineSet
Validated: 33
EndChar

StartChar: Atilde
Encoding: 195 195 132
Width: 1185
GlyphClass: 2
Flags: W
LayerCount: 2
Fore
SplineSet
31 0 m 1,0,-1
 776 1366 l 1,1,-1
 809 1366 l 1,2,-1
 1124 0 l 1,3,-1
 850 0 l 1,4,5
 887 15 887 15 915 52.5 c 128,-1,6
 943 90 943 90 932 141 c 2,7,-1
 885 350 l 1,8,-1
 352 350 l 1,9,-1
 162 0 l 1,10,-1
 31 0 l 1,0,-1
412 463 m 1,11,-1
 858 463 l 1,12,-1
 727 1042 l 1,13,-1
 412 463 l 1,11,-1
465 1481 m 0,14,15
 476 1533 476 1533 503 1586 c 128,-1,16
 530 1639 530 1639 575 1678.5 c 128,-1,17
 620 1718 620 1718 668 1718 c 0,18,19
 712 1718 712 1718 755.5 1697 c 128,-1,20
 799 1676 799 1676 828.5 1650.5 c 128,-1,21
 858 1625 858 1625 892 1604 c 128,-1,22
 926 1583 926 1583 952 1583 c 0,23,24
 980 1583 980 1583 1012 1619.5 c 128,-1,25
 1044 1656 1044 1656 1061 1708 c 1,26,-1
 1118 1690 l 1,27,28
 1100 1609 1100 1609 1043 1537.5 c 128,-1,29
 986 1466 986 1466 911 1466 c 0,30,31
 866 1466 866 1466 813.5 1498 c 128,-1,32
 761 1530 761 1530 717 1561.5 c 128,-1,33
 673 1593 673 1593 651 1593 c 0,34,35
 609 1593 609 1593 572.5 1557.5 c 128,-1,36
 536 1522 536 1522 522 1458 c 1,37,38
 516 1462 516 1462 491.5 1470.5 c 128,-1,39
 467 1479 467 1479 465 1481 c 0,14,15
EndSplineSet
Validated: 33
EndChar

StartChar: Adieresis
Encoding: 196 196 133
Width: 1185
GlyphClass: 2
Flags: W
LayerCount: 2
Fore
SplineSet
31 0 m 1,0,-1
 776 1366 l 1,1,-1
 809 1366 l 1,2,-1
 1124 0 l 1,3,-1
 850 0 l 1,4,5
 887 15 887 15 915 52.5 c 128,-1,6
 943 90 943 90 932 141 c 2,7,-1
 885 350 l 1,8,-1
 352 350 l 1,9,-1
 162 0 l 1,10,-1
 31 0 l 1,0,-1
412 463 m 1,11,-1
 858 463 l 1,12,-1
 727 1042 l 1,13,-1
 412 463 l 1,11,-1
537 1575 m 128,-1,15
 543 1615 543 1615 574 1643 c 128,-1,16
 605 1671 605 1671 645 1671 c 128,-1,17
 685 1671 685 1671 709 1643 c 128,-1,18
 733 1615 733 1615 727 1575 c 128,-1,19
 721 1535 721 1535 689 1508 c 128,-1,20
 657 1481 657 1481 617 1481 c 128,-1,21
 577 1481 577 1481 554 1508 c 128,-1,14
 531 1535 531 1535 537 1575 c 128,-1,15
914 1575 m 128,-1,23
 920 1615 920 1615 951 1643 c 128,-1,24
 982 1671 982 1671 1022 1671 c 128,-1,25
 1062 1671 1062 1671 1086 1643 c 128,-1,26
 1110 1615 1110 1615 1104 1575 c 0,27,28
 1098 1536 1098 1536 1065.5 1508.5 c 128,-1,29
 1033 1481 1033 1481 993 1481 c 128,-1,30
 953 1481 953 1481 930.5 1508 c 128,-1,22
 908 1535 908 1535 914 1575 c 128,-1,23
EndSplineSet
Validated: 33
EndChar

StartChar: Aring
Encoding: 197 197 134
Width: 1185
GlyphClass: 2
Flags: W
LayerCount: 2
Fore
SplineSet
31 0 m 1,0,-1
 776 1366 l 1,1,-1
 809 1366 l 1,2,-1
 1124 0 l 1,3,-1
 850 0 l 1,4,5
 887 15 887 15 915 52.5 c 128,-1,6
 943 90 943 90 932 141 c 2,7,-1
 885 350 l 1,8,-1
 352 350 l 1,9,-1
 162 0 l 1,10,-1
 31 0 l 1,0,-1
412 463 m 1,11,-1
 858 463 l 1,12,-1
 727 1042 l 1,13,-1
 412 463 l 1,11,-1
659 1608 m 0,14,15
 670 1684 670 1684 730.5 1736 c 128,-1,16
 791 1788 791 1788 883 1788 c 0,17,18
 969 1788 969 1788 1014.5 1735.5 c 128,-1,19
 1060 1683 1060 1683 1049 1608 c 0,20,21
 1036 1530 1036 1530 976 1477.5 c 128,-1,22
 916 1425 916 1425 825 1425 c 0,23,24
 737 1425 737 1425 692 1478 c 128,-1,25
 647 1531 647 1531 659 1608 c 0,14,15
756 1610 m 0,26,27
 749 1567 749 1567 772 1539 c 128,-1,28
 795 1511 795 1511 838 1511 c 0,29,30
 879 1511 879 1511 912 1539 c 128,-1,31
 945 1567 945 1567 952 1610 c 0,32,33
 958 1648 958 1648 933.5 1676 c 128,-1,34
 909 1704 909 1704 868 1704 c 0,35,36
 826 1704 826 1704 794 1676.5 c 128,-1,37
 762 1649 762 1649 756 1610 c 0,26,27
EndSplineSet
Validated: 33
EndChar

StartChar: AE
Encoding: 198 198 135
Width: 1826
GlyphClass: 2
Flags: W
LayerCount: 2
Fore
SplineSet
41 0 m 1,0,-1
 1194 1368 l 1,1,-1
 1196 1366 l 1,2,-1
 1196 1368 l 1,3,-1
 1907 1368 l 1,4,-1
 1878 1184 l 1,5,6
 1862 1192 1862 1192 1839 1208.5 c 128,-1,7
 1816 1225 1816 1225 1801.5 1231 c 128,-1,8
 1787 1237 1787 1237 1742.5 1243 c 128,-1,9
 1698 1249 1698 1249 1624 1249 c 2,10,-1
 1327 1249 l 1,11,-1
 1231 641 l 1,12,-1
 1726 641 l 1,13,-1
 1706 524 l 1,14,-1
 1212 524 l 1,15,-1
 1147 115 l 1,16,-1
 1436 115 l 2,17,18
 1639 115 1639 115 1722 186 c 1,19,-1
 1694 0 l 1,20,-1
 979 0 l 1,21,-1
 1063 524 l 1,22,-1
 633 524 l 1,23,-1
 190 0 l 1,24,-1
 41 0 l 1,0,-1
731 643 m 1,25,-1
 1081 643 l 1,26,-1
 1167 1186 l 1,27,-1
 731 643 l 1,25,-1
EndSplineSet
Validated: 1
EndChar

StartChar: Ccedilla
Encoding: 199 199 136
Width: 1302
GlyphClass: 2
Flags: W
LayerCount: 2
Fore
SplineSet
190 553 m 0,0,1
 190 618 190 618 205 725 c 0,2,3
 235 908 235 908 334 1055.5 c 128,-1,4
 433 1203 433 1203 590.5 1290.5 c 128,-1,5
 748 1378 748 1378 934 1378 c 0,6,7
 1047 1378 1047 1378 1181 1343.5 c 128,-1,8
 1315 1309 1315 1309 1384 1247 c 1,9,-1
 1354 1055 l 1,10,11
 1288 1160 1288 1160 1173 1213 c 128,-1,12
 1058 1266 1058 1266 924 1266 c 0,13,14
 779 1266 779 1266 645 1170.5 c 128,-1,15
 511 1075 511 1075 438 938 c 0,16,17
 354 775 354 775 354 571 c 0,18,19
 354 480 354 480 378 397 c 128,-1,20
 402 314 402 314 448 246.5 c 128,-1,21
 494 179 494 179 570 138.5 c 128,-1,22
 646 98 646 98 741 98 c 0,23,24
 890 98 890 98 1025.5 158.5 c 128,-1,25
 1161 219 1161 219 1239 324 c 1,26,-1
 1174 102 l 1,27,28
 1040 34 1040 34 950.5 10 c 128,-1,29
 861 -14 861 -14 721 -14 c 0,30,31
 469 -14 469 -14 329.5 141.5 c 128,-1,32
 190 297 190 297 190 553 c 0,0,1
469 -301 m 1,33,-1
 512 -252 l 1,34,35
 586 -274 586 -274 639 -274 c 0,36,37
 751 -274 751 -274 762 -201 c 0,38,39
 766 -173 766 -173 742.5 -157 c 128,-1,40
 719 -141 719 -141 680 -141 c 0,41,42
 658 -141 658 -141 620 -147.5 c 128,-1,43
 582 -154 582 -154 554 -161 c 2,44,-1
 527 -168 l 1,45,-1
 506 -131 l 1,46,47
 660 21 660 21 662 21 c 2,48,-1
 695 6 l 1,49,-1
 598 -96 l 1,50,51
 666 -70 666 -70 707 -70 c 0,52,53
 730 -70 730 -70 750 -71.5 c 128,-1,54
 770 -73 770 -73 800 -80.5 c 128,-1,55
 830 -88 830 -88 850 -100.5 c 128,-1,56
 870 -113 870 -113 882.5 -138.5 c 128,-1,57
 895 -164 895 -164 889 -199 c 128,-1,58
 883 -234 883 -234 864 -261.5 c 128,-1,59
 845 -289 845 -289 819.5 -305.5 c 128,-1,60
 794 -322 794 -322 761.5 -332.5 c 128,-1,61
 729 -343 729 -343 700.5 -346.5 c 128,-1,62
 672 -350 672 -350 643 -350 c 0,63,64
 607 -350 607 -350 563.5 -338 c 128,-1,65
 520 -326 520 -326 494 -314 c 2,66,-1
 469 -301 l 1,33,-1
EndSplineSet
Validated: 5
EndChar

StartChar: Egrave
Encoding: 200 200 137
Width: 1021
GlyphClass: 2
Flags: W
LayerCount: 2
Fore
SplineSet
133 0 m 1,0,-1
 350 1366 l 1,1,-1
 1116 1366 l 1,2,3
 1091 1210 1091 1210 1083 1163 c 1,4,5
 1051 1207 1051 1207 1003.5 1230 c 128,-1,6
 956 1253 956 1253 856 1253 c 2,7,-1
 485 1253 l 1,8,-1
 410 776 l 1,9,-1
 915 776 l 1,10,-1
 883 573 l 1,11,12
 827 664 827 664 653 664 c 2,13,-1
 391 664 l 1,14,-1
 305 113 l 1,15,-1
 920 113 l 1,16,-1
 899 0 l 1,17,-1
 133 0 l 1,0,-1
471 1757 m 1,18,-1
 655 1757 l 1,19,-1
 885 1483 l 1,20,-1
 764 1485 l 1,21,-1
 471 1757 l 1,18,-1
EndSplineSet
Validated: 1
EndChar

StartChar: Eacute
Encoding: 201 201 138
Width: 1021
GlyphClass: 2
Flags: W
LayerCount: 2
Fore
SplineSet
133 0 m 1,0,-1
 350 1366 l 1,1,-1
 1116 1366 l 1,2,3
 1091 1210 1091 1210 1083 1163 c 1,4,5
 1051 1207 1051 1207 1003.5 1230 c 128,-1,6
 956 1253 956 1253 856 1253 c 2,7,-1
 485 1253 l 1,8,-1
 410 776 l 1,9,-1
 915 776 l 1,10,-1
 883 573 l 1,11,12
 827 664 827 664 653 664 c 2,13,-1
 391 664 l 1,14,-1
 305 113 l 1,15,-1
 920 113 l 1,16,-1
 899 0 l 1,17,-1
 133 0 l 1,0,-1
600 1469 m 1,18,-1
 919 1743 l 1,19,-1
 1091 1743 l 1,20,-1
 712 1471 l 1,21,-1
 600 1469 l 1,18,-1
EndSplineSet
Validated: 1
EndChar

StartChar: Ecircumflex
Encoding: 202 202 139
Width: 1021
GlyphClass: 2
Flags: W
LayerCount: 2
Fore
SplineSet
133 0 m 1,0,-1
 350 1366 l 1,1,-1
 1116 1366 l 1,2,3
 1091 1210 1091 1210 1083 1163 c 1,4,5
 1051 1207 1051 1207 1003.5 1230 c 128,-1,6
 956 1253 956 1253 856 1253 c 2,7,-1
 485 1253 l 1,8,-1
 410 776 l 1,9,-1
 915 776 l 1,10,-1
 883 573 l 1,11,12
 827 664 827 664 653 664 c 2,13,-1
 391 664 l 1,14,-1
 305 113 l 1,15,-1
 920 113 l 1,16,-1
 899 0 l 1,17,-1
 133 0 l 1,0,-1
475 1473 m 1,18,-1
 799 1825 l 1,19,-1
 1012 1473 l 1,20,-1
 891 1473 l 1,21,-1
 778 1671 l 1,22,-1
 598 1473 l 1,23,-1
 475 1473 l 1,18,-1
EndSplineSet
Validated: 1
EndChar

StartChar: Edieresis
Encoding: 203 203 140
Width: 1021
GlyphClass: 2
Flags: W
LayerCount: 2
Fore
SplineSet
133 0 m 1,0,-1
 350 1366 l 1,1,-1
 1116 1366 l 1,2,3
 1091 1210 1091 1210 1083 1163 c 1,4,5
 1051 1207 1051 1207 1003.5 1230 c 128,-1,6
 956 1253 956 1253 856 1253 c 2,7,-1
 485 1253 l 1,8,-1
 410 776 l 1,9,-1
 915 776 l 1,10,-1
 883 573 l 1,11,12
 827 664 827 664 653 664 c 2,13,-1
 391 664 l 1,14,-1
 305 113 l 1,15,-1
 920 113 l 1,16,-1
 899 0 l 1,17,-1
 133 0 l 1,0,-1
455 1620 m 128,-1,19
 461 1660 461 1660 492 1688 c 128,-1,20
 523 1716 523 1716 563 1716 c 128,-1,21
 603 1716 603 1716 627 1688 c 128,-1,22
 651 1660 651 1660 645 1620 c 128,-1,23
 639 1580 639 1580 607 1553 c 128,-1,24
 575 1526 575 1526 535 1526 c 128,-1,25
 495 1526 495 1526 472 1553 c 128,-1,18
 449 1580 449 1580 455 1620 c 128,-1,19
832 1620 m 128,-1,27
 838 1660 838 1660 869 1688 c 128,-1,28
 900 1716 900 1716 940 1716 c 128,-1,29
 980 1716 980 1716 1004 1688 c 128,-1,30
 1028 1660 1028 1660 1022 1620 c 0,31,32
 1016 1581 1016 1581 983.5 1553.5 c 128,-1,33
 951 1526 951 1526 911 1526 c 128,-1,34
 871 1526 871 1526 848.5 1553 c 128,-1,26
 826 1580 826 1580 832 1620 c 128,-1,27
EndSplineSet
Validated: 33
EndChar

StartChar: Igrave
Encoding: 204 204 141
Width: 526
GlyphClass: 2
Flags: W
LayerCount: 2
Fore
SplineSet
74 0 m 1,0,1
 122 29 122 29 150 60.5 c 128,-1,2
 178 92 178 92 186 143 c 2,3,-1
 381 1366 l 1,4,-1
 535 1366 l 1,5,-1
 317 0 l 1,6,-1
 74 0 l 1,0,1
154 1745 m 1,7,-1
 338 1745 l 1,8,-1
 567 1470 l 1,9,-1
 446 1473 l 1,10,-1
 154 1745 l 1,7,-1
EndSplineSet
Validated: 1
EndChar

StartChar: Iacute
Encoding: 205 205 142
Width: 526
GlyphClass: 2
Flags: W
LayerCount: 2
Fore
SplineSet
74 0 m 1,0,1
 122 29 122 29 150 60.5 c 128,-1,2
 178 92 178 92 186 143 c 2,3,-1
 381 1366 l 1,4,-1
 535 1366 l 1,5,-1
 317 0 l 1,6,-1
 74 0 l 1,0,1
387 1491 m 1,7,-1
 706 1765 l 1,8,-1
 878 1765 l 1,9,-1
 499 1493 l 1,10,-1
 387 1491 l 1,7,-1
EndSplineSet
Validated: 1
EndChar

StartChar: Icircumflex
Encoding: 206 206 143
Width: 526
GlyphClass: 2
Flags: W
LayerCount: 2
Fore
SplineSet
74 0 m 1,0,1
 122 29 122 29 150 60.5 c 128,-1,2
 178 92 178 92 186 143 c 2,3,-1
 381 1366 l 1,4,-1
 535 1366 l 1,5,-1
 317 0 l 1,6,-1
 74 0 l 1,0,1
207 1470 m 1,7,-1
 530 1823 l 1,8,-1
 743 1470 l 1,9,-1
 623 1470 l 1,10,-1
 510 1669 l 1,11,-1
 330 1470 l 1,12,-1
 207 1470 l 1,7,-1
EndSplineSet
Validated: 1
EndChar

StartChar: Idieresis
Encoding: 207 207 144
Width: 526
GlyphClass: 2
Flags: W
LayerCount: 2
Fore
SplineSet
74 0 m 1,0,1
 122 29 122 29 150 60.5 c 128,-1,2
 178 92 178 92 186 143 c 2,3,-1
 381 1366 l 1,4,-1
 535 1366 l 1,5,-1
 317 0 l 1,6,-1
 74 0 l 1,0,1
213 1602 m 128,-1,8
 219 1642 219 1642 250 1670 c 128,-1,9
 281 1698 281 1698 321 1698 c 128,-1,10
 361 1698 361 1698 385 1670 c 128,-1,11
 409 1642 409 1642 403 1602 c 128,-1,12
 397 1562 397 1562 365 1535 c 128,-1,13
 333 1508 333 1508 293 1508 c 128,-1,14
 253 1508 253 1508 230 1535 c 128,-1,7
 207 1562 207 1562 213 1602 c 128,-1,8
590 1602 m 128,-1,16
 596 1642 596 1642 627 1670 c 128,-1,17
 658 1698 658 1698 698 1698 c 128,-1,18
 738 1698 738 1698 762 1670 c 128,-1,19
 786 1642 786 1642 780 1602 c 0,20,21
 774 1563 774 1563 741.5 1535.5 c 128,-1,22
 709 1508 709 1508 669 1508 c 128,-1,23
 629 1508 629 1508 606.5 1535 c 128,-1,15
 584 1562 584 1562 590 1602 c 128,-1,16
EndSplineSet
Validated: 33
EndChar

StartChar: Eth
Encoding: 208 208 145
Width: 1302
GlyphClass: 2
Flags: W
LayerCount: 2
Fore
SplineSet
82 0 m 1,0,1
 118 19 118 19 156 68 c 128,-1,2
 194 117 194 117 201 164 c 2,3,-1
 279 657 l 1,4,-1
 127 657 l 1,5,-1
 145 776 l 1,6,-1
 297 776 l 1,7,-1
 391 1366 l 1,8,-1
 860 1366 l 2,9,10
 1036 1366 1036 1366 1153 1278 c 128,-1,11
 1270 1190 1270 1190 1313.5 1036 c 128,-1,12
 1357 882 1357 882 1325 682 c 0,13,14
 1303 541 1303 541 1242.5 418 c 128,-1,15
 1182 295 1182 295 1090.5 201.5 c 128,-1,16
 999 108 999 108 869.5 54 c 128,-1,17
 740 0 740 0 590 0 c 2,18,-1
 82 0 l 1,0,1
346 113 m 1,19,-1
 662 113 l 2,20,21
 761 113 761 113 868.5 188.5 c 128,-1,22
 976 264 976 264 1059 397.5 c 128,-1,23
 1142 531 1142 531 1167 684 c 0,24,25
 1189 824 1189 824 1159 954.5 c 128,-1,26
 1129 1085 1129 1085 1052 1169 c 128,-1,27
 975 1253 975 1253 868 1253 c 2,28,-1
 526 1253 l 1,29,-1
 451 776 l 1,30,-1
 770 776 l 1,31,-1
 752 657 l 1,32,-1
 432 657 l 1,33,-1
 346 113 l 1,19,-1
EndSplineSet
Validated: 33
EndChar

StartChar: Ntilde
Encoding: 209 209 146
Width: 1282
GlyphClass: 2
Flags: W
LayerCount: 2
Fore
SplineSet
133 0 m 1,0,-1
 330 1239 l 2,1,2
 336 1276 336 1276 312 1312.5 c 128,-1,3
 288 1349 288 1349 258 1366 c 1,4,-1
 467 1366 l 1,5,-1
 1059 254 l 1,6,-1
 1237 1366 l 1,7,-1
 1348 1366 l 1,8,-1
 1133 0 l 1,9,-1
 1024 0 l 1,10,-1
 426 1116 l 1,11,-1
 248 0 l 1,12,-1
 133 0 l 1,0,-1
541 1493 m 0,13,14
 558 1578 558 1578 615.5 1654 c 128,-1,15
 673 1730 673 1730 743 1730 c 0,16,17
 787 1730 787 1730 831 1709 c 128,-1,18
 875 1688 875 1688 904.5 1662.5 c 128,-1,19
 934 1637 934 1637 968 1616 c 128,-1,20
 1002 1595 1002 1595 1028 1595 c 0,21,22
 1056 1595 1056 1595 1088 1631.5 c 128,-1,23
 1120 1668 1120 1668 1137 1720 c 1,24,-1
 1194 1702 l 1,25,26
 1176 1621 1176 1621 1119 1549.5 c 128,-1,27
 1062 1478 1062 1478 987 1478 c 0,28,29
 942 1478 942 1478 889.5 1510 c 128,-1,30
 837 1542 837 1542 793 1573.5 c 128,-1,31
 749 1605 749 1605 727 1605 c 0,32,33
 685 1605 685 1605 648.5 1569.5 c 128,-1,34
 612 1534 612 1534 598 1470 c 1,35,36
 592 1474 592 1474 567.5 1482.5 c 128,-1,37
 543 1491 543 1491 541 1493 c 0,13,14
EndSplineSet
Validated: 33
EndChar

StartChar: Ograve
Encoding: 210 210 147
Width: 1388
GlyphClass: 2
Flags: W
LayerCount: 2
Fore
SplineSet
172 692 m 0,0,1
 198 855 198 855 266 986 c 128,-1,2
 334 1117 334 1117 430 1202 c 128,-1,3
 526 1287 526 1287 643 1332.5 c 128,-1,4
 760 1378 760 1378 887 1378 c 0,5,6
 1013 1378 1013 1378 1118.5 1323.5 c 128,-1,7
 1224 1269 1224 1269 1293.5 1175 c 128,-1,8
 1363 1081 1363 1081 1391 946.5 c 128,-1,9
 1419 812 1419 812 1395 659 c 0,10,11
 1369 494 1369 494 1299.5 363.5 c 128,-1,12
 1230 233 1230 233 1132.5 152 c 128,-1,13
 1035 71 1035 71 919.5 28.5 c 128,-1,14
 804 -14 804 -14 678 -14 c 0,15,16
 502 -14 502 -14 375.5 76.5 c 128,-1,17
 249 167 249 167 195 328.5 c 128,-1,18
 141 490 141 490 172 692 c 0,0,1
340 713 m 0,19,20
 293 421 293 421 392.5 260.5 c 128,-1,21
 492 100 492 100 705 100 c 0,22,23
 790 100 790 100 875.5 141 c 128,-1,24
 961 182 961 182 1033 254 c 128,-1,25
 1105 326 1105 326 1158.5 432.5 c 128,-1,26
 1212 539 1212 539 1231 662 c 0,27,28
 1245 736 1245 736 1242 809.5 c 128,-1,29
 1239 883 1239 883 1226.5 950 c 128,-1,30
 1214 1017 1214 1017 1182.5 1074.5 c 128,-1,31
 1151 1132 1151 1132 1108 1174.5 c 128,-1,32
 1065 1217 1065 1217 1002 1241.5 c 128,-1,33
 939 1266 939 1266 862 1266 c 0,34,35
 749 1266 749 1266 640.5 1201.5 c 128,-1,36
 532 1137 532 1137 448.5 1008 c 128,-1,37
 365 879 365 879 340 713 c 0,19,20
586 1751 m 1,38,-1
 770 1751 l 1,39,-1
 999 1477 l 1,40,-1
 878 1479 l 1,41,-1
 586 1751 l 1,38,-1
EndSplineSet
Validated: 33
EndChar

StartChar: Oacute
Encoding: 211 211 148
Width: 1388
GlyphClass: 2
Flags: W
LayerCount: 2
Fore
SplineSet
172 692 m 0,0,1
 198 855 198 855 266 986 c 128,-1,2
 334 1117 334 1117 430 1202 c 128,-1,3
 526 1287 526 1287 643 1332.5 c 128,-1,4
 760 1378 760 1378 887 1378 c 0,5,6
 1013 1378 1013 1378 1118.5 1323.5 c 128,-1,7
 1224 1269 1224 1269 1293.5 1175 c 128,-1,8
 1363 1081 1363 1081 1391 946.5 c 128,-1,9
 1419 812 1419 812 1395 659 c 0,10,11
 1369 494 1369 494 1299.5 363.5 c 128,-1,12
 1230 233 1230 233 1132.5 152 c 128,-1,13
 1035 71 1035 71 919.5 28.5 c 128,-1,14
 804 -14 804 -14 678 -14 c 0,15,16
 502 -14 502 -14 375.5 76.5 c 128,-1,17
 249 167 249 167 195 328.5 c 128,-1,18
 141 490 141 490 172 692 c 0,0,1
340 713 m 0,19,20
 293 421 293 421 392.5 260.5 c 128,-1,21
 492 100 492 100 705 100 c 0,22,23
 790 100 790 100 875.5 141 c 128,-1,24
 961 182 961 182 1033 254 c 128,-1,25
 1105 326 1105 326 1158.5 432.5 c 128,-1,26
 1212 539 1212 539 1231 662 c 0,27,28
 1245 736 1245 736 1242 809.5 c 128,-1,29
 1239 883 1239 883 1226.5 950 c 128,-1,30
 1214 1017 1214 1017 1182.5 1074.5 c 128,-1,31
 1151 1132 1151 1132 1108 1174.5 c 128,-1,32
 1065 1217 1065 1217 1002 1241.5 c 128,-1,33
 939 1266 939 1266 862 1266 c 0,34,35
 749 1266 749 1266 640.5 1201.5 c 128,-1,36
 532 1137 532 1137 448.5 1008 c 128,-1,37
 365 879 365 879 340 713 c 0,19,20
797 1481 m 1,38,-1
 1116 1755 l 1,39,-1
 1288 1755 l 1,40,-1
 909 1483 l 1,41,-1
 797 1481 l 1,38,-1
EndSplineSet
Validated: 33
EndChar

StartChar: Ocircumflex
Encoding: 212 212 149
Width: 1388
GlyphClass: 2
Flags: W
LayerCount: 2
Fore
SplineSet
172 692 m 0,0,1
 198 855 198 855 266 986 c 128,-1,2
 334 1117 334 1117 430 1202 c 128,-1,3
 526 1287 526 1287 643 1332.5 c 128,-1,4
 760 1378 760 1378 887 1378 c 0,5,6
 1013 1378 1013 1378 1118.5 1323.5 c 128,-1,7
 1224 1269 1224 1269 1293.5 1175 c 128,-1,8
 1363 1081 1363 1081 1391 946.5 c 128,-1,9
 1419 812 1419 812 1395 659 c 0,10,11
 1369 494 1369 494 1299.5 363.5 c 128,-1,12
 1230 233 1230 233 1132.5 152 c 128,-1,13
 1035 71 1035 71 919.5 28.5 c 128,-1,14
 804 -14 804 -14 678 -14 c 0,15,16
 502 -14 502 -14 375.5 76.5 c 128,-1,17
 249 167 249 167 195 328.5 c 128,-1,18
 141 490 141 490 172 692 c 0,0,1
340 713 m 0,19,20
 293 421 293 421 392.5 260.5 c 128,-1,21
 492 100 492 100 705 100 c 0,22,23
 790 100 790 100 875.5 141 c 128,-1,24
 961 182 961 182 1033 254 c 128,-1,25
 1105 326 1105 326 1158.5 432.5 c 128,-1,26
 1212 539 1212 539 1231 662 c 0,27,28
 1245 736 1245 736 1242 809.5 c 128,-1,29
 1239 883 1239 883 1226.5 950 c 128,-1,30
 1214 1017 1214 1017 1182.5 1074.5 c 128,-1,31
 1151 1132 1151 1132 1108 1174.5 c 128,-1,32
 1065 1217 1065 1217 1002 1241.5 c 128,-1,33
 939 1266 939 1266 862 1266 c 0,34,35
 749 1266 749 1266 640.5 1201.5 c 128,-1,36
 532 1137 532 1137 448.5 1008 c 128,-1,37
 365 879 365 879 340 713 c 0,19,20
639 1466 m 1,38,-1
 963 1819 l 1,39,-1
 1176 1466 l 1,40,-1
 1055 1466 l 1,41,-1
 942 1665 l 1,42,-1
 762 1466 l 1,43,-1
 639 1466 l 1,38,-1
EndSplineSet
Validated: 33
EndChar

StartChar: Otilde
Encoding: 213 213 150
Width: 1388
GlyphClass: 2
Flags: W
LayerCount: 2
Fore
SplineSet
172 692 m 0,0,1
 198 855 198 855 266 986 c 128,-1,2
 334 1117 334 1117 430 1202 c 128,-1,3
 526 1287 526 1287 643 1332.5 c 128,-1,4
 760 1378 760 1378 887 1378 c 0,5,6
 1013 1378 1013 1378 1118.5 1323.5 c 128,-1,7
 1224 1269 1224 1269 1293.5 1175 c 128,-1,8
 1363 1081 1363 1081 1391 946.5 c 128,-1,9
 1419 812 1419 812 1395 659 c 0,10,11
 1369 494 1369 494 1299.5 363.5 c 128,-1,12
 1230 233 1230 233 1132.5 152 c 128,-1,13
 1035 71 1035 71 919.5 28.5 c 128,-1,14
 804 -14 804 -14 678 -14 c 0,15,16
 502 -14 502 -14 375.5 76.5 c 128,-1,17
 249 167 249 167 195 328.5 c 128,-1,18
 141 490 141 490 172 692 c 0,0,1
340 713 m 0,19,20
 293 421 293 421 392.5 260.5 c 128,-1,21
 492 100 492 100 705 100 c 0,22,23
 790 100 790 100 875.5 141 c 128,-1,24
 961 182 961 182 1033 254 c 128,-1,25
 1105 326 1105 326 1158.5 432.5 c 128,-1,26
 1212 539 1212 539 1231 662 c 0,27,28
 1245 736 1245 736 1242 809.5 c 128,-1,29
 1239 883 1239 883 1226.5 950 c 128,-1,30
 1214 1017 1214 1017 1182.5 1074.5 c 128,-1,31
 1151 1132 1151 1132 1108 1174.5 c 128,-1,32
 1065 1217 1065 1217 1002 1241.5 c 128,-1,33
 939 1266 939 1266 862 1266 c 0,34,35
 749 1266 749 1266 640.5 1201.5 c 128,-1,36
 532 1137 532 1137 448.5 1008 c 128,-1,37
 365 879 365 879 340 713 c 0,19,20
543 1487 m 0,38,39
 560 1572 560 1572 617.5 1648 c 128,-1,40
 675 1724 675 1724 745 1724 c 0,41,42
 789 1724 789 1724 833 1703 c 128,-1,43
 877 1682 877 1682 906.5 1656.5 c 128,-1,44
 936 1631 936 1631 970 1610 c 128,-1,45
 1004 1589 1004 1589 1030 1589 c 0,46,47
 1058 1589 1058 1589 1090 1625.5 c 128,-1,48
 1122 1662 1122 1662 1139 1714 c 1,49,-1
 1196 1696 l 1,50,51
 1178 1615 1178 1615 1121 1543.5 c 128,-1,52
 1064 1472 1064 1472 989 1472 c 0,53,54
 944 1472 944 1472 891.5 1504 c 128,-1,55
 839 1536 839 1536 795 1567.5 c 128,-1,56
 751 1599 751 1599 729 1599 c 0,57,58
 687 1599 687 1599 650.5 1563.5 c 128,-1,59
 614 1528 614 1528 600 1464 c 1,60,61
 594 1468 594 1468 569.5 1476.5 c 128,-1,62
 545 1485 545 1485 543 1487 c 0,38,39
EndSplineSet
Validated: 33
EndChar

StartChar: Odieresis
Encoding: 214 214 151
Width: 1388
GlyphClass: 2
Flags: W
LayerCount: 2
Fore
SplineSet
172 692 m 0,0,1
 198 855 198 855 266 986 c 128,-1,2
 334 1117 334 1117 430 1202 c 128,-1,3
 526 1287 526 1287 643 1332.5 c 128,-1,4
 760 1378 760 1378 887 1378 c 0,5,6
 1013 1378 1013 1378 1118.5 1323.5 c 128,-1,7
 1224 1269 1224 1269 1293.5 1175 c 128,-1,8
 1363 1081 1363 1081 1391 946.5 c 128,-1,9
 1419 812 1419 812 1395 659 c 0,10,11
 1369 494 1369 494 1299.5 363.5 c 128,-1,12
 1230 233 1230 233 1132.5 152 c 128,-1,13
 1035 71 1035 71 919.5 28.5 c 128,-1,14
 804 -14 804 -14 678 -14 c 0,15,16
 502 -14 502 -14 375.5 76.5 c 128,-1,17
 249 167 249 167 195 328.5 c 128,-1,18
 141 490 141 490 172 692 c 0,0,1
340 713 m 0,19,20
 293 421 293 421 392.5 260.5 c 128,-1,21
 492 100 492 100 705 100 c 0,22,23
 790 100 790 100 875.5 141 c 128,-1,24
 961 182 961 182 1033 254 c 128,-1,25
 1105 326 1105 326 1158.5 432.5 c 128,-1,26
 1212 539 1212 539 1231 662 c 0,27,28
 1245 736 1245 736 1242 809.5 c 128,-1,29
 1239 883 1239 883 1226.5 950 c 128,-1,30
 1214 1017 1214 1017 1182.5 1074.5 c 128,-1,31
 1151 1132 1151 1132 1108 1174.5 c 128,-1,32
 1065 1217 1065 1217 1002 1241.5 c 128,-1,33
 939 1266 939 1266 862 1266 c 0,34,35
 749 1266 749 1266 640.5 1201.5 c 128,-1,36
 532 1137 532 1137 448.5 1008 c 128,-1,37
 365 879 365 879 340 713 c 0,19,20
615 1569 m 128,-1,39
 621 1609 621 1609 652 1637 c 128,-1,40
 683 1665 683 1665 723 1665 c 128,-1,41
 763 1665 763 1665 787 1637 c 128,-1,42
 811 1609 811 1609 805 1569 c 128,-1,43
 799 1529 799 1529 767 1502 c 128,-1,44
 735 1475 735 1475 695 1475 c 128,-1,45
 655 1475 655 1475 632 1502 c 128,-1,38
 609 1529 609 1529 615 1569 c 128,-1,39
992 1569 m 128,-1,47
 998 1609 998 1609 1029 1637 c 128,-1,48
 1060 1665 1060 1665 1100 1665 c 128,-1,49
 1140 1665 1140 1665 1164 1637 c 128,-1,50
 1188 1609 1188 1609 1182 1569 c 0,51,52
 1176 1530 1176 1530 1143.5 1502.5 c 128,-1,53
 1111 1475 1111 1475 1071 1475 c 128,-1,54
 1031 1475 1031 1475 1008.5 1502 c 128,-1,46
 986 1529 986 1529 992 1569 c 128,-1,47
EndSplineSet
Validated: 33
EndChar

StartChar: multiply
Encoding: 215 215 152
Width: 817
GlyphClass: 2
Flags: W
LayerCount: 2
Fore
SplineSet
160 326 m 1,0,-1
 418 547 l 1,1,-1
 233 770 l 1,2,-1
 324 848 l 1,3,-1
 510 627 l 1,4,-1
 764 846 l 1,5,-1
 829 768 l 1,6,-1
 573 547 l 1,7,-1
 762 326 l 1,8,-1
 670 248 l 1,9,-1
 483 469 l 1,10,-1
 225 246 l 1,11,-1
 160 326 l 1,0,-1
EndSplineSet
Validated: 1
EndChar

StartChar: Oslash
Encoding: 216 216 153
Width: 1388
GlyphClass: 2
Flags: W
LayerCount: 2
Fore
SplineSet
147 -125 m 1,0,-1
 307 104 l 1,1,2
 204 196 204 196 161 344 c 128,-1,3
 118 492 118 492 147 676 c 0,4,5
 173 838 173 838 243 972 c 128,-1,6
 313 1106 313 1106 410 1194 c 128,-1,7
 507 1282 507 1282 626 1330 c 128,-1,8
 745 1378 745 1378 872 1378 c 0,9,10
 1022 1378 1022 1378 1143 1305 c 1,11,-1
 1247 1454 l 1,12,-1
 1382 1454 l 1,13,-1
 1231 1237 l 1,14,15
 1326 1141 1326 1141 1365.5 996.5 c 128,-1,16
 1405 852 1405 852 1376 676 c 0,17,18
 1350 511 1350 511 1279 378 c 128,-1,19
 1208 245 1208 245 1109.5 160.5 c 128,-1,20
 1011 76 1011 76 893.5 31 c 128,-1,21
 776 -14 776 -14 651 -14 c 0,22,23
 510 -14 510 -14 399 43 c 1,24,-1
 283 -125 l 1,25,-1
 147 -125 l 1,0,-1
319 731 m 0,26,27
 267 407 267 407 399 236 c 1,28,-1
 1063 1190 l 1,29,30
 968 1266 968 1266 836 1266 c 0,31,32
 722 1266 722 1266 615.5 1206 c 128,-1,33
 509 1146 509 1146 426.5 1021.5 c 128,-1,34
 344 897 344 897 319 731 c 0,26,27
479 158 m 1,35,36
 571 100 571 100 690 100 c 0,37,38
 775 100 775 100 859.5 139 c 128,-1,39
 944 178 944 178 1015 247.5 c 128,-1,40
 1086 317 1086 317 1138.5 421.5 c 128,-1,41
 1191 526 1191 526 1210 649 c 0,42,43
 1232 770 1232 770 1214 893 c 128,-1,44
 1196 1016 1196 1016 1139 1104 c 1,45,-1
 479 158 l 1,35,36
EndSplineSet
Validated: 33
EndChar

StartChar: Ugrave
Encoding: 217 217 154
Width: 1220
GlyphClass: 2
Flags: W
LayerCount: 2
Fore
SplineSet
226.5 270.5 m 128,-1,1
 200 407 200 407 229 602 c 2,2,-1
 350 1366 l 1,3,-1
 596 1366 l 1,4,5
 557 1350 557 1350 523 1313.5 c 128,-1,6
 489 1277 489 1277 483 1239 c 2,7,-1
 377 567 l 2,8,9
 364 487 364 487 363 421.5 c 128,-1,10
 362 356 362 356 371.5 307.5 c 128,-1,11
 381 259 381 259 401.5 222.5 c 128,-1,12
 422 186 422 186 449 162.5 c 128,-1,13
 476 139 476 139 513 124.5 c 128,-1,14
 550 110 550 110 590 104 c 128,-1,15
 630 98 630 98 680 98 c 0,16,17
 819 98 819 98 926 224.5 c 128,-1,18
 1033 351 1033 351 1063 535 c 2,19,-1
 1196 1366 l 1,20,-1
 1309 1366 l 1,21,-1
 1176 543 l 2,22,23
 1137 291 1137 291 1000.5 139.5 c 128,-1,24
 864 -12 864 -12 659 -12 c 0,25,26
 468 -12 468 -12 360.5 61 c 128,-1,0
 253 134 253 134 226.5 270.5 c 128,-1,1
578 1731 m 1,27,-1
 762 1731 l 1,28,-1
 991 1457 l 1,29,-1
 870 1459 l 1,30,-1
 578 1731 l 1,27,-1
EndSplineSet
Validated: 33
EndChar

StartChar: Uacute
Encoding: 218 218 155
Width: 1220
GlyphClass: 2
Flags: W
LayerCount: 2
Fore
SplineSet
226.5 270.5 m 128,-1,1
 200 407 200 407 229 602 c 2,2,-1
 350 1366 l 1,3,-1
 596 1366 l 1,4,5
 557 1350 557 1350 523 1313.5 c 128,-1,6
 489 1277 489 1277 483 1239 c 2,7,-1
 377 567 l 2,8,9
 364 487 364 487 363 421.5 c 128,-1,10
 362 356 362 356 371.5 307.5 c 128,-1,11
 381 259 381 259 401.5 222.5 c 128,-1,12
 422 186 422 186 449 162.5 c 128,-1,13
 476 139 476 139 513 124.5 c 128,-1,14
 550 110 550 110 590 104 c 128,-1,15
 630 98 630 98 680 98 c 0,16,17
 819 98 819 98 926 224.5 c 128,-1,18
 1033 351 1033 351 1063 535 c 2,19,-1
 1196 1366 l 1,20,-1
 1309 1366 l 1,21,-1
 1176 543 l 2,22,23
 1137 291 1137 291 1000.5 139.5 c 128,-1,24
 864 -12 864 -12 659 -12 c 0,25,26
 468 -12 468 -12 360.5 61 c 128,-1,0
 253 134 253 134 226.5 270.5 c 128,-1,1
779 1461 m 1,27,-1
 1098 1735 l 1,28,-1
 1270 1735 l 1,29,-1
 891 1463 l 1,30,-1
 779 1461 l 1,27,-1
EndSplineSet
Validated: 33
EndChar

StartChar: Ucircumflex
Encoding: 219 219 156
Width: 1220
GlyphClass: 2
Flags: W
LayerCount: 2
Fore
SplineSet
226.5 270.5 m 128,-1,1
 200 407 200 407 229 602 c 2,2,-1
 350 1366 l 1,3,-1
 596 1366 l 1,4,5
 557 1350 557 1350 523 1313.5 c 128,-1,6
 489 1277 489 1277 483 1239 c 2,7,-1
 377 567 l 2,8,9
 364 487 364 487 363 421.5 c 128,-1,10
 362 356 362 356 371.5 307.5 c 128,-1,11
 381 259 381 259 401.5 222.5 c 128,-1,12
 422 186 422 186 449 162.5 c 128,-1,13
 476 139 476 139 513 124.5 c 128,-1,14
 550 110 550 110 590 104 c 128,-1,15
 630 98 630 98 680 98 c 0,16,17
 819 98 819 98 926 224.5 c 128,-1,18
 1033 351 1033 351 1063 535 c 2,19,-1
 1196 1366 l 1,20,-1
 1309 1366 l 1,21,-1
 1176 543 l 2,22,23
 1137 291 1137 291 1000.5 139.5 c 128,-1,24
 864 -12 864 -12 659 -12 c 0,25,26
 468 -12 468 -12 360.5 61 c 128,-1,0
 253 134 253 134 226.5 270.5 c 128,-1,1
616 1464 m 1,27,-1
 940 1817 l 1,28,-1
 1153 1464 l 1,29,-1
 1032 1464 l 1,30,-1
 920 1663 l 1,31,-1
 739 1464 l 1,32,-1
 616 1464 l 1,27,-1
EndSplineSet
Validated: 33
EndChar

StartChar: Udieresis
Encoding: 220 220 157
Width: 1220
GlyphClass: 2
Flags: W
LayerCount: 2
Fore
SplineSet
226.5 270.5 m 128,-1,1
 200 407 200 407 229 602 c 2,2,-1
 350 1366 l 1,3,-1
 596 1366 l 1,4,5
 557 1350 557 1350 523 1313.5 c 128,-1,6
 489 1277 489 1277 483 1239 c 2,7,-1
 377 567 l 2,8,9
 364 487 364 487 363 421.5 c 128,-1,10
 362 356 362 356 371.5 307.5 c 128,-1,11
 381 259 381 259 401.5 222.5 c 128,-1,12
 422 186 422 186 449 162.5 c 128,-1,13
 476 139 476 139 513 124.5 c 128,-1,14
 550 110 550 110 590 104 c 128,-1,15
 630 98 630 98 680 98 c 0,16,17
 819 98 819 98 926 224.5 c 128,-1,18
 1033 351 1033 351 1063 535 c 2,19,-1
 1196 1366 l 1,20,-1
 1309 1366 l 1,21,-1
 1176 543 l 2,22,23
 1137 291 1137 291 1000.5 139.5 c 128,-1,24
 864 -12 864 -12 659 -12 c 0,25,26
 468 -12 468 -12 360.5 61 c 128,-1,0
 253 134 253 134 226.5 270.5 c 128,-1,1
584 1536 m 128,-1,28
 590 1576 590 1576 621 1604 c 128,-1,29
 652 1632 652 1632 692 1632 c 128,-1,30
 732 1632 732 1632 756 1604 c 128,-1,31
 780 1576 780 1576 774 1536 c 128,-1,32
 768 1496 768 1496 736 1469 c 128,-1,33
 704 1442 704 1442 664 1442 c 128,-1,34
 624 1442 624 1442 601 1469 c 128,-1,27
 578 1496 578 1496 584 1536 c 128,-1,28
961 1536 m 128,-1,36
 967 1576 967 1576 998 1604 c 128,-1,37
 1029 1632 1029 1632 1069 1632 c 128,-1,38
 1109 1632 1109 1632 1133 1604 c 128,-1,39
 1157 1576 1157 1576 1151 1536 c 0,40,41
 1145 1497 1145 1497 1112.5 1469.5 c 128,-1,42
 1080 1442 1080 1442 1040 1442 c 128,-1,43
 1000 1442 1000 1442 977.5 1469 c 128,-1,35
 955 1496 955 1496 961 1536 c 128,-1,36
EndSplineSet
Validated: 33
EndChar

StartChar: Yacute
Encoding: 221 221 158
Width: 1142
GlyphClass: 2
Flags: W
LayerCount: 2
Fore
SplineSet
240 1366 m 1,0,-1
 492 1366 l 1,1,2
 429 1318 429 1318 477 1214 c 2,3,-1
 698 715 l 1,4,-1
 1188 1366 l 1,5,-1
 1329 1366 l 1,6,-1
 739 580 l 1,7,-1
 647 0 l 1,8,-1
 494 0 l 1,9,-1
 586 578 l 1,10,-1
 240 1366 l 1,0,-1
744 1430 m 1,11,-1
 1063 1704 l 1,12,-1
 1235 1704 l 1,13,-1
 856 1432 l 1,14,-1
 744 1430 l 1,11,-1
EndSplineSet
Validated: 33
EndChar

StartChar: Thorn
Encoding: 222 222 159
Width: 1085
GlyphClass: 2
Flags: W
LayerCount: 2
Fore
SplineSet
43 0 m 1,0,1
 92 29 92 29 120 60.5 c 128,-1,2
 148 92 148 92 156 143 c 2,3,-1
 350 1366 l 1,4,-1
 504 1366 l 1,5,-1
 461 1100 l 1,6,-1
 731 1100 l 2,7,8
 833 1100 833 1100 910.5 1068.5 c 128,-1,9
 988 1037 988 1037 1033 982.5 c 128,-1,10
 1078 928 1078 928 1095 857.5 c 128,-1,11
 1112 787 1112 787 1100 707 c 0,12,13
 1084 604 1084 604 1034.5 524.5 c 128,-1,14
 985 445 985 445 914 397.5 c 128,-1,15
 843 350 843 350 762 326.5 c 128,-1,16
 681 303 681 303 594 303 c 2,17,-1
 334 303 l 1,18,-1
 287 0 l 1,19,-1
 43 0 l 1,0,1
352 416 m 1,20,-1
 580 416 l 2,21,22
 635 416 635 416 690 432.5 c 128,-1,23
 745 449 745 449 796 481 c 128,-1,24
 847 513 847 513 884.5 569.5 c 128,-1,25
 922 626 922 626 934 698 c 0,26,27
 955 822 955 822 886.5 904.5 c 128,-1,28
 818 987 818 987 684 987 c 2,29,-1
 442 987 l 1,30,-1
 352 416 l 1,20,-1
EndSplineSet
Validated: 33
EndChar

StartChar: germandbls
Encoding: 223 223 160
Width: 962
GlyphClass: 2
Flags: W
LayerCount: 2
Fore
SplineSet
131 0 m 1,0,-1
 313 1157 l 2,1,2
 326 1238 326 1238 363.5 1302 c 128,-1,3
 401 1366 401 1366 453.5 1405 c 128,-1,4
 506 1444 506 1444 566.5 1464.5 c 128,-1,5
 627 1485 627 1485 690 1485 c 0,6,7
 739 1485 739 1485 786.5 1463.5 c 128,-1,8
 834 1442 834 1442 870.5 1403.5 c 128,-1,9
 907 1365 907 1365 924.5 1303.5 c 128,-1,10
 942 1242 942 1242 930 1169 c 0,11,12
 922 1115 922 1115 893 1060.5 c 128,-1,13
 864 1006 864 1006 828.5 965 c 128,-1,14
 793 924 793 924 746.5 884 c 128,-1,15
 700 844 700 844 666.5 820.5 c 128,-1,16
 633 797 633 797 598 776 c 1,17,18
 782 776 782 776 879 669.5 c 128,-1,19
 976 563 976 563 946 375 c 0,20,21
 932 287 932 287 888 212.5 c 128,-1,22
 844 138 844 138 785 90.5 c 128,-1,23
 726 43 726 43 658.5 16.5 c 128,-1,24
 591 -10 591 -10 526 -10 c 0,25,26
 483 -10 483 -10 434.5 2.5 c 128,-1,27
 386 15 386 15 369 35 c 1,28,-1
 367 182 l 1,29,30
 482 111 482 111 543 111 c 0,31,32
 572 111 572 111 610 127.5 c 128,-1,33
 648 144 648 144 687.5 173.5 c 128,-1,34
 727 203 727 203 758 253 c 128,-1,35
 789 303 789 303 799 362 c 0,36,37
 812 442 812 442 791 503.5 c 128,-1,38
 770 565 770 565 721 603.5 c 128,-1,39
 672 642 672 642 605.5 663 c 128,-1,40
 539 684 539 684 457 688 c 1,41,-1
 434 788 l 1,42,43
 497 828 497 828 541.5 860 c 128,-1,44
 586 892 586 892 647.5 944 c 128,-1,45
 709 996 709 996 746.5 1053 c 128,-1,46
 784 1110 784 1110 793 1167 c 0,47,48
 808 1260 808 1260 774.5 1312 c 128,-1,49
 741 1364 741 1364 676 1364 c 0,50,51
 584 1364 584 1364 527.5 1299.5 c 128,-1,52
 471 1235 471 1235 457 1133 c 2,53,-1
 276 0 l 1,54,-1
 131 0 l 1,0,-1
EndSplineSet
Validated: 33
EndChar

StartChar: agrave
Encoding: 224 224 161
Width: 1040
GlyphClass: 2
Flags: W
LayerCount: 2
Fore
SplineSet
137 274 m 0,0,1
 158 409 158 409 275.5 495.5 c 128,-1,2
 393 582 393 582 578 623 c 2,3,-1
 807 674 l 1,4,5
 826 768 826 768 790.5 820 c 128,-1,6
 755 872 755 872 666 872 c 0,7,8
 578 872 578 872 473 829.5 c 128,-1,9
 368 787 368 787 279 717 c 1,10,11
 290 795 290 795 313 846 c 1,12,13
 376 898 376 898 478.5 941.5 c 128,-1,14
 581 985 581 985 662 985 c 0,15,16
 730 985 730 985 783 972.5 c 128,-1,17
 836 960 836 960 868.5 938 c 128,-1,18
 901 916 901 916 923 886.5 c 128,-1,19
 945 857 945 857 952 823.5 c 128,-1,20
 959 790 959 790 961.5 753.5 c 128,-1,21
 964 717 964 717 956 682 c 2,22,-1
 874 164 l 2,23,24
 868 124 868 124 888.5 72 c 128,-1,25
 909 20 909 20 938 0 c 1,26,-1
 694 0 l 1,27,-1
 709 96 l 1,28,29
 539 -12 539 -12 395 -12 c 0,30,31
 262 -10 262 -10 189 68.5 c 128,-1,32
 116 147 116 147 137 274 c 0,0,1
291 262 m 0,33,34
 281 194 281 194 315 144 c 128,-1,35
 349 94 349 94 432 102 c 0,36,37
 497 109 497 109 583.5 137.5 c 128,-1,38
 670 166 670 166 727 205 c 1,39,-1
 782 557 l 1,40,-1
 616 520 l 2,41,42
 581 512 581 512 549 502.5 c 128,-1,43
 517 493 517 493 471 471.5 c 128,-1,44
 425 450 425 450 390.5 424 c 128,-1,45
 356 398 356 398 327.5 355.5 c 128,-1,46
 299 313 299 313 291 262 c 0,33,34
426 1366 m 1,47,-1
 610 1366 l 1,48,-1
 840 1092 l 1,49,-1
 719 1094 l 1,50,-1
 426 1366 l 1,47,-1
EndSplineSet
Validated: 33
EndChar

StartChar: aacute
Encoding: 225 225 162
Width: 1040
GlyphClass: 2
Flags: W
LayerCount: 2
Fore
SplineSet
137 274 m 0,0,1
 158 409 158 409 275.5 495.5 c 128,-1,2
 393 582 393 582 578 623 c 2,3,-1
 807 674 l 1,4,5
 826 768 826 768 790.5 820 c 128,-1,6
 755 872 755 872 666 872 c 0,7,8
 578 872 578 872 473 829.5 c 128,-1,9
 368 787 368 787 279 717 c 1,10,11
 290 795 290 795 313 846 c 1,12,13
 376 898 376 898 478.5 941.5 c 128,-1,14
 581 985 581 985 662 985 c 0,15,16
 730 985 730 985 783 972.5 c 128,-1,17
 836 960 836 960 868.5 938 c 128,-1,18
 901 916 901 916 923 886.5 c 128,-1,19
 945 857 945 857 952 823.5 c 128,-1,20
 959 790 959 790 961.5 753.5 c 128,-1,21
 964 717 964 717 956 682 c 2,22,-1
 874 164 l 2,23,24
 868 124 868 124 888.5 72 c 128,-1,25
 909 20 909 20 938 0 c 1,26,-1
 694 0 l 1,27,-1
 709 96 l 1,28,29
 539 -12 539 -12 395 -12 c 0,30,31
 262 -10 262 -10 189 68.5 c 128,-1,32
 116 147 116 147 137 274 c 0,0,1
291 262 m 0,33,34
 281 194 281 194 315 144 c 128,-1,35
 349 94 349 94 432 102 c 0,36,37
 497 109 497 109 583.5 137.5 c 128,-1,38
 670 166 670 166 727 205 c 1,39,-1
 782 557 l 1,40,-1
 616 520 l 2,41,42
 581 512 581 512 549 502.5 c 128,-1,43
 517 493 517 493 471 471.5 c 128,-1,44
 425 450 425 450 390.5 424 c 128,-1,45
 356 398 356 398 327.5 355.5 c 128,-1,46
 299 313 299 313 291 262 c 0,33,34
621 1092 m 1,47,-1
 940 1366 l 1,48,-1
 1112 1366 l 1,49,-1
 733 1094 l 1,50,-1
 621 1092 l 1,47,-1
EndSplineSet
Validated: 33
EndChar

StartChar: acircumflex
Encoding: 226 226 163
Width: 1040
GlyphClass: 2
Flags: W
LayerCount: 2
Fore
SplineSet
137 274 m 0,0,1
 158 409 158 409 275.5 495.5 c 128,-1,2
 393 582 393 582 578 623 c 2,3,-1
 807 674 l 1,4,5
 826 768 826 768 790.5 820 c 128,-1,6
 755 872 755 872 666 872 c 0,7,8
 578 872 578 872 473 829.5 c 128,-1,9
 368 787 368 787 279 717 c 1,10,11
 290 795 290 795 313 846 c 1,12,13
 376 898 376 898 478.5 941.5 c 128,-1,14
 581 985 581 985 662 985 c 0,15,16
 730 985 730 985 783 972.5 c 128,-1,17
 836 960 836 960 868.5 938 c 128,-1,18
 901 916 901 916 923 886.5 c 128,-1,19
 945 857 945 857 952 823.5 c 128,-1,20
 959 790 959 790 961.5 753.5 c 128,-1,21
 964 717 964 717 956 682 c 2,22,-1
 874 164 l 2,23,24
 868 124 868 124 888.5 72 c 128,-1,25
 909 20 909 20 938 0 c 1,26,-1
 694 0 l 1,27,-1
 709 96 l 1,28,29
 539 -12 539 -12 395 -12 c 0,30,31
 262 -10 262 -10 189 68.5 c 128,-1,32
 116 147 116 147 137 274 c 0,0,1
291 262 m 0,33,34
 281 194 281 194 315 144 c 128,-1,35
 349 94 349 94 432 102 c 0,36,37
 497 109 497 109 583.5 137.5 c 128,-1,38
 670 166 670 166 727 205 c 1,39,-1
 782 557 l 1,40,-1
 616 520 l 2,41,42
 581 512 581 512 549 502.5 c 128,-1,43
 517 493 517 493 471 471.5 c 128,-1,44
 425 450 425 450 390.5 424 c 128,-1,45
 356 398 356 398 327.5 355.5 c 128,-1,46
 299 313 299 313 291 262 c 0,33,34
473 1122 m 1,47,-1
 797 1475 l 1,48,-1
 1010 1122 l 1,49,-1
 889 1122 l 1,50,-1
 776 1321 l 1,51,-1
 596 1122 l 1,52,-1
 473 1122 l 1,47,-1
EndSplineSet
Validated: 33
EndChar

StartChar: atilde
Encoding: 227 227 164
Width: 1040
GlyphClass: 2
Flags: W
LayerCount: 2
Fore
SplineSet
137 274 m 0,0,1
 158 409 158 409 275.5 495.5 c 128,-1,2
 393 582 393 582 578 623 c 2,3,-1
 807 674 l 1,4,5
 826 768 826 768 790.5 820 c 128,-1,6
 755 872 755 872 666 872 c 0,7,8
 578 872 578 872 473 829.5 c 128,-1,9
 368 787 368 787 279 717 c 1,10,11
 290 795 290 795 313 846 c 1,12,13
 376 898 376 898 478.5 941.5 c 128,-1,14
 581 985 581 985 662 985 c 0,15,16
 730 985 730 985 783 972.5 c 128,-1,17
 836 960 836 960 868.5 938 c 128,-1,18
 901 916 901 916 923 886.5 c 128,-1,19
 945 857 945 857 952 823.5 c 128,-1,20
 959 790 959 790 961.5 753.5 c 128,-1,21
 964 717 964 717 956 682 c 2,22,-1
 874 164 l 2,23,24
 868 124 868 124 888.5 72 c 128,-1,25
 909 20 909 20 938 0 c 1,26,-1
 694 0 l 1,27,-1
 709 96 l 1,28,29
 539 -12 539 -12 395 -12 c 0,30,31
 262 -10 262 -10 189 68.5 c 128,-1,32
 116 147 116 147 137 274 c 0,0,1
291 262 m 0,33,34
 281 194 281 194 315 144 c 128,-1,35
 349 94 349 94 432 102 c 0,36,37
 497 109 497 109 583.5 137.5 c 128,-1,38
 670 166 670 166 727 205 c 1,39,-1
 782 557 l 1,40,-1
 616 520 l 2,41,42
 581 512 581 512 549 502.5 c 128,-1,43
 517 493 517 493 471 471.5 c 128,-1,44
 425 450 425 450 390.5 424 c 128,-1,45
 356 398 356 398 327.5 355.5 c 128,-1,46
 299 313 299 313 291 262 c 0,33,34
394 1145 m 0,47,48
 411 1230 411 1230 468.5 1306 c 128,-1,49
 526 1382 526 1382 596 1382 c 0,50,51
 640 1382 640 1382 684 1361 c 128,-1,52
 728 1340 728 1340 757.5 1314.5 c 128,-1,53
 787 1289 787 1289 821 1268 c 128,-1,54
 855 1247 855 1247 881 1247 c 0,55,56
 909 1247 909 1247 941 1283.5 c 128,-1,57
 973 1320 973 1320 990 1372 c 1,58,-1
 1047 1354 l 1,59,60
 1029 1273 1029 1273 972 1201.5 c 128,-1,61
 915 1130 915 1130 840 1130 c 0,62,63
 795 1130 795 1130 742.5 1162 c 128,-1,64
 690 1194 690 1194 646 1225.5 c 128,-1,65
 602 1257 602 1257 580 1257 c 0,66,67
 538 1257 538 1257 501.5 1221.5 c 128,-1,68
 465 1186 465 1186 451 1122 c 1,69,70
 445 1126 445 1126 420.5 1134.5 c 128,-1,71
 396 1143 396 1143 394 1145 c 0,47,48
EndSplineSet
Validated: 33
EndChar

StartChar: adieresis
Encoding: 228 228 165
Width: 1040
GlyphClass: 2
Flags: W
LayerCount: 2
Fore
SplineSet
137 274 m 0,0,1
 158 409 158 409 275.5 495.5 c 128,-1,2
 393 582 393 582 578 623 c 2,3,-1
 807 674 l 1,4,5
 826 768 826 768 790.5 820 c 128,-1,6
 755 872 755 872 666 872 c 0,7,8
 578 872 578 872 473 829.5 c 128,-1,9
 368 787 368 787 279 717 c 1,10,11
 290 795 290 795 313 846 c 1,12,13
 376 898 376 898 478.5 941.5 c 128,-1,14
 581 985 581 985 662 985 c 0,15,16
 730 985 730 985 783 972.5 c 128,-1,17
 836 960 836 960 868.5 938 c 128,-1,18
 901 916 901 916 923 886.5 c 128,-1,19
 945 857 945 857 952 823.5 c 128,-1,20
 959 790 959 790 961.5 753.5 c 128,-1,21
 964 717 964 717 956 682 c 2,22,-1
 874 164 l 2,23,24
 868 124 868 124 888.5 72 c 128,-1,25
 909 20 909 20 938 0 c 1,26,-1
 694 0 l 1,27,-1
 709 96 l 1,28,29
 539 -12 539 -12 395 -12 c 0,30,31
 262 -10 262 -10 189 68.5 c 128,-1,32
 116 147 116 147 137 274 c 0,0,1
291 262 m 0,33,34
 281 194 281 194 315 144 c 128,-1,35
 349 94 349 94 432 102 c 0,36,37
 497 109 497 109 583.5 137.5 c 128,-1,38
 670 166 670 166 727 205 c 1,39,-1
 782 557 l 1,40,-1
 616 520 l 2,41,42
 581 512 581 512 549 502.5 c 128,-1,43
 517 493 517 493 471 471.5 c 128,-1,44
 425 450 425 450 390.5 424 c 128,-1,45
 356 398 356 398 327.5 355.5 c 128,-1,46
 299 313 299 313 291 262 c 0,33,34
489 1278 m 128,-1,48
 495 1318 495 1318 526.5 1346 c 128,-1,49
 558 1374 558 1374 598 1374 c 128,-1,50
 638 1374 638 1374 662 1346 c 128,-1,51
 686 1318 686 1318 680 1278 c 0,52,53
 674 1239 674 1239 641.5 1211.5 c 128,-1,54
 609 1184 609 1184 569 1184 c 128,-1,55
 529 1184 529 1184 506 1211 c 128,-1,47
 483 1238 483 1238 489 1278 c 128,-1,48
866 1278 m 128,-1,57
 872 1318 872 1318 903.5 1346 c 128,-1,58
 935 1374 935 1374 975 1374 c 128,-1,59
 1015 1374 1015 1374 1039 1346 c 128,-1,60
 1063 1318 1063 1318 1057 1278 c 0,61,62
 1051 1239 1051 1239 1018.5 1211.5 c 128,-1,63
 986 1184 986 1184 946 1184 c 128,-1,64
 906 1184 906 1184 883 1211 c 128,-1,56
 860 1238 860 1238 866 1278 c 128,-1,57
EndSplineSet
Validated: 33
EndChar

StartChar: aring
Encoding: 229 229 166
Width: 1040
GlyphClass: 2
Flags: W
LayerCount: 2
Fore
SplineSet
137 274 m 0,0,1
 158 409 158 409 275.5 495.5 c 128,-1,2
 393 582 393 582 578 623 c 2,3,-1
 807 674 l 1,4,5
 826 768 826 768 790.5 820 c 128,-1,6
 755 872 755 872 666 872 c 0,7,8
 578 872 578 872 473 829.5 c 128,-1,9
 368 787 368 787 279 717 c 1,10,11
 290 795 290 795 313 846 c 1,12,13
 376 898 376 898 478.5 941.5 c 128,-1,14
 581 985 581 985 662 985 c 0,15,16
 730 985 730 985 783 972.5 c 128,-1,17
 836 960 836 960 868.5 938 c 128,-1,18
 901 916 901 916 923 886.5 c 128,-1,19
 945 857 945 857 952 823.5 c 128,-1,20
 959 790 959 790 961.5 753.5 c 128,-1,21
 964 717 964 717 956 682 c 2,22,-1
 874 164 l 2,23,24
 868 124 868 124 888.5 72 c 128,-1,25
 909 20 909 20 938 0 c 1,26,-1
 694 0 l 1,27,-1
 709 96 l 1,28,29
 539 -12 539 -12 395 -12 c 0,30,31
 262 -10 262 -10 189 68.5 c 128,-1,32
 116 147 116 147 137 274 c 0,0,1
291 262 m 0,33,34
 281 194 281 194 315 144 c 128,-1,35
 349 94 349 94 432 102 c 0,36,37
 497 109 497 109 583.5 137.5 c 128,-1,38
 670 166 670 166 727 205 c 1,39,-1
 782 557 l 1,40,-1
 616 520 l 2,41,42
 581 512 581 512 549 502.5 c 128,-1,43
 517 493 517 493 471 471.5 c 128,-1,44
 425 450 425 450 390.5 424 c 128,-1,45
 356 398 356 398 327.5 355.5 c 128,-1,46
 299 313 299 313 291 262 c 0,33,34
625 1288 m 0,47,48
 636 1364 636 1364 696.5 1416 c 128,-1,49
 757 1468 757 1468 848 1468 c 0,50,51
 934 1468 934 1468 979.5 1415.5 c 128,-1,52
 1025 1363 1025 1363 1014 1288 c 0,53,54
 1001 1210 1001 1210 941.5 1158 c 128,-1,55
 882 1106 882 1106 791 1106 c 0,56,57
 703 1106 703 1106 658 1158.5 c 128,-1,58
 613 1211 613 1211 625 1288 c 0,47,48
721 1290 m 0,59,60
 714 1247 714 1247 737 1219.5 c 128,-1,61
 760 1192 760 1192 803 1192 c 0,62,63
 845 1192 845 1192 878 1220 c 128,-1,64
 911 1248 911 1248 918 1290 c 0,65,66
 924 1328 924 1328 899.5 1356 c 128,-1,67
 875 1384 875 1384 834 1384 c 0,68,69
 792 1384 792 1384 759.5 1356.5 c 128,-1,70
 727 1329 727 1329 721 1290 c 0,59,60
EndSplineSet
Validated: 33
EndChar

StartChar: ae
Encoding: 230 230 167
Width: 1566
GlyphClass: 2
Flags: W
LayerCount: 2
Fore
SplineSet
131 274 m 0,0,1
 152 399 152 399 273 490.5 c 128,-1,2
 394 582 394 582 575 629 c 2,3,-1
 795 686 l 1,4,5
 813 754 813 754 767.5 805 c 128,-1,6
 722 856 722 856 647 856 c 0,7,8
 463 856 463 856 319 745 c 1,9,-1
 322 745 l 1,10,11
 310 737 310 737 286.5 742 c 128,-1,12
 263 747 263 747 260 760 c 0,13,14
 241 796 241 796 281 827 c 0,15,16
 364 897 364 897 471.5 941 c 128,-1,17
 579 985 579 985 666 985 c 0,18,19
 883 985 883 985 924 840 c 1,20,21
 1060 985 1060 985 1249 985 c 0,22,23
 1404 985 1404 985 1488 871.5 c 128,-1,24
 1572 758 1572 758 1563 592 c 1,25,-1
 891 342 l 1,26,27
 902 242 902 242 976.5 185.5 c 128,-1,28
 1051 129 1051 129 1147 129 c 0,29,30
 1214 129 1214 129 1286.5 153.5 c 128,-1,31
 1359 178 1359 178 1407 205 c 1,32,-1
 1438 133 l 1,33,34
 1355 68 1355 68 1275.5 29 c 128,-1,35
 1196 -10 1196 -10 1100 -10 c 0,36,37
 857 -10 857 -10 778 180 c 1,38,-1
 647 98 l 2,39,40
 491 3 491 3 373 -10 c 1,41,42
 242 -8 242 -8 176.5 68.5 c 128,-1,43
 111 145 111 145 131 274 c 0,0,1
281 287 m 0,44,45
 271 221 271 221 310 176 c 128,-1,46
 349 131 349 131 434 139 c 0,47,48
 490 145 490 145 592.5 192.5 c 128,-1,49
 695 240 695 240 752 283 c 1,50,51
 734 438 734 438 770 578 c 1,52,-1
 676 553 l 2,53,54
 591 531 591 531 509.5 495.5 c 128,-1,55
 428 460 428 460 359 403 c 128,-1,56
 290 346 290 346 281 287 c 0,44,45
887 459 m 1,57,-1
 1411 647 l 1,58,59
 1408 748 1408 748 1352 803 c 128,-1,60
 1296 858 1296 858 1208 858 c 0,61,62
 1143 858 1143 858 1083 819 c 128,-1,63
 1023 780 1023 780 982 720.5 c 128,-1,64
 941 661 941 661 915.5 591.5 c 128,-1,65
 890 522 890 522 887 459 c 1,57,-1
EndSplineSet
Validated: 33
EndChar

StartChar: ccedilla
Encoding: 231 231 168
Width: 989
GlyphClass: 2
Flags: W
LayerCount: 2
Fore
SplineSet
170 510 m 0,0,1
 188 626 188 626 238 717.5 c 128,-1,2
 288 809 288 809 359.5 867 c 128,-1,3
 431 925 431 925 516.5 955 c 128,-1,4
 602 985 602 985 696 985 c 0,5,6
 809 985 809 985 893.5 954.5 c 128,-1,7
 978 924 978 924 1022 889 c 1,8,-1
 991 698 l 1,9,10
 957 773 957 773 877 823.5 c 128,-1,11
 797 874 797 874 696 874 c 0,12,13
 565 874 565 874 460 762.5 c 128,-1,14
 355 651 355 651 330 496 c 0,15,16
 300 308 300 308 358.5 204 c 128,-1,17
 417 100 417 100 561 100 c 0,18,19
 652 100 652 100 755.5 137.5 c 128,-1,20
 859 175 859 175 922 213 c 1,21,22
 884 111 884 111 868 86 c 1,23,24
 807 48 807 48 717.5 19 c 128,-1,25
 628 -10 628 -10 543 -10 c 0,26,27
 340 -10 340 -10 235 124 c 128,-1,28
 130 258 130 258 170 510 c 0,0,1
303 -283 m 1,29,-1
 342 -236 l 1,30,31
 408 -256 408 -256 455 -256 c 0,32,33
 554 -256 554 -256 565 -186 c 0,34,35
 568 -159 568 -159 548 -144 c 128,-1,36
 528 -129 528 -129 494 -129 c 0,37,38
 475 -129 475 -129 440.5 -135.5 c 128,-1,39
 406 -142 406 -142 381 -149 c 2,40,-1
 356 -156 l 1,41,-1
 319 -119 l 1,42,-1
 457 25 l 1,43,-1
 506 12 l 1,44,-1
 420 -86 l 1,45,46
 479 -61 479 -61 516 -61 c 0,47,48
 536 -61 536 -61 554 -62.5 c 128,-1,49
 572 -64 572 -64 599 -71 c 128,-1,50
 626 -78 626 -78 643.5 -90 c 128,-1,51
 661 -102 661 -102 672 -126.5 c 128,-1,52
 683 -151 683 -151 678 -184 c 0,53,54
 670 -238 670 -238 630 -273 c 128,-1,55
 590 -308 590 -308 547.5 -319 c 128,-1,56
 505 -330 505 -330 459 -330 c 0,57,58
 427 -330 427 -330 388 -318 c 128,-1,59
 349 -306 349 -306 326 -294 c 2,60,-1
 303 -283 l 1,29,-1
EndSplineSet
Validated: 37
EndChar

StartChar: egrave
Encoding: 232 232 169
Width: 1062
GlyphClass: 2
Flags: W
LayerCount: 2
Fore
SplineSet
170 496 m 0,0,1
 208 715 208 715 347 850 c 128,-1,2
 486 985 486 985 670 985 c 0,3,4
 868 985 868 985 971 862.5 c 128,-1,5
 1074 740 1074 740 1040 520 c 2,6,-1
 1030 449 l 1,7,-1
 328 449 l 1,8,9
 294 102 294 102 561 102 c 0,10,11
 648 102 648 102 762 148 c 128,-1,12
 876 194 876 194 936 236 c 1,13,-1
 946 150 l 1,14,15
 744 -10 744 -10 537 -10 c 0,16,17
 332 -10 332 -10 231.5 125.5 c 128,-1,18
 131 261 131 261 170 496 c 0,0,1
342 561 m 1,19,-1
 885 561 l 1,20,21
 903 706 903 706 848.5 789 c 128,-1,22
 794 872 794 872 668 872 c 0,23,24
 555 872 555 872 466 780 c 128,-1,25
 377 688 377 688 342 561 c 1,19,-1
479 1366 m 1,26,-1
 664 1366 l 1,27,-1
 893 1092 l 1,28,-1
 772 1094 l 1,29,-1
 479 1366 l 1,26,-1
EndSplineSet
Validated: 33
EndChar

StartChar: eacute
Encoding: 233 233 170
Width: 1062
GlyphClass: 2
Flags: W
LayerCount: 2
Fore
SplineSet
170 496 m 0,0,1
 208 715 208 715 347 850 c 128,-1,2
 486 985 486 985 670 985 c 0,3,4
 868 985 868 985 971 862.5 c 128,-1,5
 1074 740 1074 740 1040 520 c 2,6,-1
 1030 449 l 1,7,-1
 328 449 l 1,8,9
 294 102 294 102 561 102 c 0,10,11
 648 102 648 102 762 148 c 128,-1,12
 876 194 876 194 936 236 c 1,13,-1
 946 150 l 1,14,15
 744 -10 744 -10 537 -10 c 0,16,17
 332 -10 332 -10 231.5 125.5 c 128,-1,18
 131 261 131 261 170 496 c 0,0,1
342 561 m 1,19,-1
 885 561 l 1,20,21
 903 706 903 706 848.5 789 c 128,-1,22
 794 872 794 872 668 872 c 0,23,24
 555 872 555 872 466 780 c 128,-1,25
 377 688 377 688 342 561 c 1,19,-1
584 1092 m 1,26,-1
 903 1366 l 1,27,-1
 1075 1366 l 1,28,-1
 696 1094 l 1,29,-1
 584 1092 l 1,26,-1
EndSplineSet
Validated: 33
EndChar

StartChar: ecircumflex
Encoding: 234 234 171
Width: 1062
GlyphClass: 2
Flags: W
LayerCount: 2
Fore
SplineSet
170 496 m 0,0,1
 208 715 208 715 347 850 c 128,-1,2
 486 985 486 985 670 985 c 0,3,4
 868 985 868 985 971 862.5 c 128,-1,5
 1074 740 1074 740 1040 520 c 2,6,-1
 1030 449 l 1,7,-1
 328 449 l 1,8,9
 294 102 294 102 561 102 c 0,10,11
 648 102 648 102 762 148 c 128,-1,12
 876 194 876 194 936 236 c 1,13,-1
 946 150 l 1,14,15
 744 -10 744 -10 537 -10 c 0,16,17
 332 -10 332 -10 231.5 125.5 c 128,-1,18
 131 261 131 261 170 496 c 0,0,1
342 561 m 1,19,-1
 885 561 l 1,20,21
 903 706 903 706 848.5 789 c 128,-1,22
 794 872 794 872 668 872 c 0,23,24
 555 872 555 872 466 780 c 128,-1,25
 377 688 377 688 342 561 c 1,19,-1
475 1081 m 1,26,-1
 799 1434 l 1,27,-1
 1012 1081 l 1,28,-1
 891 1081 l 1,29,-1
 778 1280 l 1,30,-1
 598 1081 l 1,31,-1
 475 1081 l 1,26,-1
EndSplineSet
Validated: 33
EndChar

StartChar: edieresis
Encoding: 235 235 172
Width: 1062
GlyphClass: 2
Flags: W
LayerCount: 2
Fore
SplineSet
170 496 m 0,0,1
 208 715 208 715 347 850 c 128,-1,2
 486 985 486 985 670 985 c 0,3,4
 868 985 868 985 971 862.5 c 128,-1,5
 1074 740 1074 740 1040 520 c 2,6,-1
 1030 449 l 1,7,-1
 328 449 l 1,8,9
 294 102 294 102 561 102 c 0,10,11
 648 102 648 102 762 148 c 128,-1,12
 876 194 876 194 936 236 c 1,13,-1
 946 150 l 1,14,15
 744 -10 744 -10 537 -10 c 0,16,17
 332 -10 332 -10 231.5 125.5 c 128,-1,18
 131 261 131 261 170 496 c 0,0,1
342 561 m 1,19,-1
 885 561 l 1,20,21
 903 706 903 706 848.5 789 c 128,-1,22
 794 872 794 872 668 872 c 0,23,24
 555 872 555 872 466 780 c 128,-1,25
 377 688 377 688 342 561 c 1,19,-1
512 1278 m 128,-1,27
 518 1318 518 1318 549.5 1346 c 128,-1,28
 581 1374 581 1374 621 1374 c 128,-1,29
 661 1374 661 1374 684.5 1346 c 128,-1,30
 708 1318 708 1318 702 1278 c 128,-1,31
 696 1238 696 1238 664 1211 c 128,-1,32
 632 1184 632 1184 592 1184 c 128,-1,33
 552 1184 552 1184 529 1211 c 128,-1,26
 506 1238 506 1238 512 1278 c 128,-1,27
889 1278 m 128,-1,35
 895 1318 895 1318 926 1346 c 128,-1,36
 957 1374 957 1374 997 1374 c 128,-1,37
 1037 1374 1037 1374 1061 1346 c 128,-1,38
 1085 1318 1085 1318 1079 1278 c 128,-1,39
 1073 1238 1073 1238 1041 1211 c 128,-1,40
 1009 1184 1009 1184 969 1184 c 128,-1,41
 929 1184 929 1184 906 1211 c 128,-1,34
 883 1238 883 1238 889 1278 c 128,-1,35
EndSplineSet
Validated: 33
EndChar

StartChar: igrave
Encoding: 236 236 173
Width: 520
GlyphClass: 2
Flags: W
LayerCount: 2
Fore
SplineSet
129 1403 m 1,0,-1
 313 1403 l 1,1,-1
 543 1128 l 1,2,-1
 422 1130 l 1,3,-1
 129 1403 l 1,0,-1
174 0 m 1,4,-1
 322 932 l 1,5,-1
 551 1014 l 1,6,7
 523 976 523 976 494 919 c 128,-1,8
 465 862 465 862 459 827 c 2,9,-1
 328 0 l 1,10,-1
 174 0 l 1,4,-1
EndSplineSet
Validated: 1
EndChar

StartChar: iacute
Encoding: 237 237 174
Width: 520
GlyphClass: 2
Flags: W
LayerCount: 2
Fore
SplineSet
174 0 m 1,0,-1
 322 932 l 1,1,-1
 551 1014 l 1,2,3
 523 976 523 976 494 919 c 128,-1,4
 465 862 465 862 459 827 c 2,5,-1
 328 0 l 1,6,-1
 174 0 l 1,0,-1
406 1119 m 1,7,-1
 725 1393 l 1,8,-1
 897 1393 l 1,9,-1
 518 1121 l 1,10,-1
 406 1119 l 1,7,-1
EndSplineSet
Validated: 1
EndChar

StartChar: icircumflex
Encoding: 238 238 175
Width: 520
GlyphClass: 2
Flags: W
LayerCount: 2
Fore
SplineSet
174 0 m 1,0,-1
 322 932 l 1,1,-1
 551 1014 l 1,2,3
 523 976 523 976 494 919 c 128,-1,4
 465 862 465 862 459 827 c 2,5,-1
 328 0 l 1,6,-1
 174 0 l 1,0,-1
192 1097 m 1,7,-1
 516 1450 l 1,8,-1
 729 1097 l 1,9,-1
 608 1097 l 1,10,-1
 495 1296 l 1,11,-1
 315 1097 l 1,12,-1
 192 1097 l 1,7,-1
EndSplineSet
Validated: 1
EndChar

StartChar: idieresis
Encoding: 239 239 176
Width: 520
GlyphClass: 2
Flags: W
LayerCount: 2
Fore
SplineSet
174 0 m 1,0,-1
 322 932 l 1,1,-1
 551 1014 l 1,2,3
 523 976 523 976 494 919 c 128,-1,4
 465 862 465 862 459 827 c 2,5,-1
 328 0 l 1,6,-1
 174 0 l 1,0,-1
190 1288 m 128,-1,8
 196 1328 196 1328 227.5 1356 c 128,-1,9
 259 1384 259 1384 299 1384 c 128,-1,10
 339 1384 339 1384 363 1356 c 128,-1,11
 387 1328 387 1328 381 1288 c 0,12,13
 375 1249 375 1249 342.5 1221.5 c 128,-1,14
 310 1194 310 1194 270 1194 c 128,-1,15
 230 1194 230 1194 207 1221 c 128,-1,7
 184 1248 184 1248 190 1288 c 128,-1,8
567 1288 m 128,-1,17
 573 1328 573 1328 604.5 1356 c 128,-1,18
 636 1384 636 1384 676 1384 c 128,-1,19
 716 1384 716 1384 740 1356 c 128,-1,20
 764 1328 764 1328 758 1288 c 0,21,22
 752 1249 752 1249 719.5 1221.5 c 128,-1,23
 687 1194 687 1194 647 1194 c 128,-1,24
 607 1194 607 1194 584 1221 c 128,-1,16
 561 1248 561 1248 567 1288 c 128,-1,17
EndSplineSet
Validated: 33
EndChar

StartChar: eth
Encoding: 240 240 177
Width: 1067
GlyphClass: 2
Flags: W
LayerCount: 2
Fore
SplineSet
164 481 m 0,0,1
 189 636 189 636 264 751.5 c 128,-1,2
 339 867 339 867 445.5 926 c 128,-1,3
 552 985 552 985 676 985 c 0,4,5
 832 985 832 985 922 895 c 1,6,7
 904 1043 904 1043 813 1157 c 1,8,-1
 627 1024 l 1,9,-1
 567 1116 l 1,10,-1
 725 1229 l 1,11,12
 653 1272 653 1272 567 1272 c 2,13,-1
 473 1272 l 1,14,-1
 520 1380 l 1,15,16
 733 1380 733 1380 842 1313 c 1,17,-1
 1012 1436 l 1,18,-1
 1073 1343 l 1,19,-1
 926 1239 l 1,20,21
 963 1193 963 1193 975 1174 c 0,22,23
 1024 1097 1024 1097 1044 969.5 c 128,-1,24
 1064 842 1064 842 1059.5 721 c 128,-1,25
 1055 600 1055 600 1036 481 c 0,26,27
 1019 369 1019 369 970.5 276 c 128,-1,28
 922 183 922 183 854 121 c 128,-1,29
 786 59 786 59 702 24.5 c 128,-1,30
 618 -10 618 -10 528 -10 c 0,31,32
 331 -10 331 -10 230 124 c 128,-1,33
 129 258 129 258 164 481 c 0,0,1
326 514 m 0,34,35
 296 333 296 333 370 224 c 128,-1,36
 444 115 444 115 575 115 c 0,37,38
 620 115 620 115 667 135.5 c 128,-1,39
 714 156 714 156 759 196.5 c 128,-1,40
 804 237 804 237 838.5 307.5 c 128,-1,41
 873 378 873 378 887 467 c 0,42,43
 905 579 905 579 886 667.5 c 128,-1,44
 867 756 867 756 804.5 811 c 128,-1,45
 742 866 742 866 641 866 c 0,46,47
 591 866 591 866 544 847.5 c 128,-1,48
 497 829 497 829 452.5 790.5 c 128,-1,49
 408 752 408 752 374.5 680.5 c 128,-1,50
 341 609 341 609 326 514 c 0,34,35
EndSplineSet
Validated: 33
EndChar

StartChar: ntilde
Encoding: 241 241 178
Width: 1032
GlyphClass: 2
Flags: W
LayerCount: 2
Fore
SplineSet
133 0 m 1,0,-1
 252 750 l 2,1,2
 258 786 258 786 228.5 828.5 c 128,-1,3
 199 871 199 871 166 874 c 1,4,-1
 444 995 l 1,5,-1
 432 915 l 1,6,7
 597 985 597 985 731 985 c 0,8,9
 879 985 879 985 949 907.5 c 128,-1,10
 1019 830 1019 830 999 711 c 2,11,-1
 887 0 l 1,12,-1
 733 0 l 1,13,-1
 844 692 l 2,14,15
 850 734 850 734 843 772 c 128,-1,16
 836 810 836 810 806 841 c 128,-1,17
 776 872 776 872 725 872 c 0,18,19
 594 872 594 872 414 795 c 1,20,-1
 287 0 l 1,21,-1
 133 0 l 1,0,-1
367 1145 m 0,22,23
 384 1230 384 1230 441.5 1306 c 128,-1,24
 499 1382 499 1382 569 1382 c 0,25,26
 613 1382 613 1382 657 1361 c 128,-1,27
 701 1340 701 1340 730.5 1314.5 c 128,-1,28
 760 1289 760 1289 794 1268 c 128,-1,29
 828 1247 828 1247 854 1247 c 0,30,31
 882 1247 882 1247 914 1283.5 c 128,-1,32
 946 1320 946 1320 963 1372 c 1,33,-1
 1020 1354 l 1,34,35
 1002 1273 1002 1273 945 1201.5 c 128,-1,36
 888 1130 888 1130 813 1130 c 0,37,38
 768 1130 768 1130 715.5 1162 c 128,-1,39
 663 1194 663 1194 619 1225.5 c 128,-1,40
 575 1257 575 1257 553 1257 c 0,41,42
 511 1257 511 1257 474.5 1221.5 c 128,-1,43
 438 1186 438 1186 424 1122 c 1,44,45
 418 1126 418 1126 393.5 1134.5 c 128,-1,46
 369 1143 369 1143 367 1145 c 0,22,23
EndSplineSet
Validated: 33
EndChar

StartChar: ograve
Encoding: 242 242 179
Width: 1075
GlyphClass: 2
Flags: W
LayerCount: 2
Fore
SplineSet
168 492 m 0,0,1
 187 612 187 612 237 707 c 128,-1,2
 287 802 287 802 357 862 c 128,-1,3
 427 922 427 922 511 953.5 c 128,-1,4
 595 985 595 985 688 985 c 0,5,6
 888 985 888 985 992.5 852 c 128,-1,7
 1097 719 1097 719 1059 473 c 0,8,9
 1041 354 1041 354 988.5 259 c 128,-1,10
 936 164 936 164 863.5 107 c 128,-1,11
 791 50 791 50 707 20 c 128,-1,12
 623 -10 623 -10 535 -10 c 0,13,14
 445 -10 445 -10 370 23 c 128,-1,15
 295 56 295 56 243 117.5 c 128,-1,16
 191 179 191 179 170 276 c 128,-1,17
 149 373 149 373 168 492 c 0,0,1
328 498 m 0,18,19
 298 309 298 309 358 204.5 c 128,-1,20
 418 100 418 100 551 100 c 0,21,22
 600 100 600 100 654 123.5 c 128,-1,23
 708 147 708 147 758.5 191 c 128,-1,24
 809 235 809 235 848 308.5 c 128,-1,25
 887 382 887 382 901 471 c 0,26,27
 967 872 967 872 670 872 c 0,28,29
 557 872 557 872 456.5 772.5 c 128,-1,30
 356 673 356 673 328 498 c 0,18,19
547 1366 m 1,31,-1
 731 1366 l 1,32,-1
 961 1092 l 1,33,-1
 840 1094 l 1,34,-1
 547 1366 l 1,31,-1
EndSplineSet
Validated: 33
EndChar

StartChar: oacute
Encoding: 243 243 180
Width: 1075
GlyphClass: 2
Flags: W
LayerCount: 2
Fore
SplineSet
168 492 m 0,0,1
 187 612 187 612 237 707 c 128,-1,2
 287 802 287 802 357 862 c 128,-1,3
 427 922 427 922 511 953.5 c 128,-1,4
 595 985 595 985 688 985 c 0,5,6
 888 985 888 985 992.5 852 c 128,-1,7
 1097 719 1097 719 1059 473 c 0,8,9
 1041 354 1041 354 988.5 259 c 128,-1,10
 936 164 936 164 863.5 107 c 128,-1,11
 791 50 791 50 707 20 c 128,-1,12
 623 -10 623 -10 535 -10 c 0,13,14
 445 -10 445 -10 370 23 c 128,-1,15
 295 56 295 56 243 117.5 c 128,-1,16
 191 179 191 179 170 276 c 128,-1,17
 149 373 149 373 168 492 c 0,0,1
328 498 m 0,18,19
 298 309 298 309 358 204.5 c 128,-1,20
 418 100 418 100 551 100 c 0,21,22
 600 100 600 100 654 123.5 c 128,-1,23
 708 147 708 147 758.5 191 c 128,-1,24
 809 235 809 235 848 308.5 c 128,-1,25
 887 382 887 382 901 471 c 0,26,27
 967 872 967 872 670 872 c 0,28,29
 557 872 557 872 456.5 772.5 c 128,-1,30
 356 673 356 673 328 498 c 0,18,19
594 1092 m 1,31,-1
 913 1366 l 1,32,-1
 1085 1366 l 1,33,-1
 706 1094 l 1,34,-1
 594 1092 l 1,31,-1
EndSplineSet
Validated: 33
EndChar

StartChar: ocircumflex
Encoding: 244 244 181
Width: 1075
GlyphClass: 2
Flags: W
LayerCount: 2
Fore
SplineSet
168 492 m 0,0,1
 187 612 187 612 237 707 c 128,-1,2
 287 802 287 802 357 862 c 128,-1,3
 427 922 427 922 511 953.5 c 128,-1,4
 595 985 595 985 688 985 c 0,5,6
 888 985 888 985 992.5 852 c 128,-1,7
 1097 719 1097 719 1059 473 c 0,8,9
 1041 354 1041 354 988.5 259 c 128,-1,10
 936 164 936 164 863.5 107 c 128,-1,11
 791 50 791 50 707 20 c 128,-1,12
 623 -10 623 -10 535 -10 c 0,13,14
 445 -10 445 -10 370 23 c 128,-1,15
 295 56 295 56 243 117.5 c 128,-1,16
 191 179 191 179 170 276 c 128,-1,17
 149 373 149 373 168 492 c 0,0,1
328 498 m 0,18,19
 298 309 298 309 358 204.5 c 128,-1,20
 418 100 418 100 551 100 c 0,21,22
 600 100 600 100 654 123.5 c 128,-1,23
 708 147 708 147 758.5 191 c 128,-1,24
 809 235 809 235 848 308.5 c 128,-1,25
 887 382 887 382 901 471 c 0,26,27
 967 872 967 872 670 872 c 0,28,29
 557 872 557 872 456.5 772.5 c 128,-1,30
 356 673 356 673 328 498 c 0,18,19
483 1081 m 1,31,-1
 807 1434 l 1,32,-1
 1020 1081 l 1,33,-1
 899 1081 l 1,34,-1
 786 1280 l 1,35,-1
 606 1081 l 1,36,-1
 483 1081 l 1,31,-1
EndSplineSet
Validated: 33
EndChar

StartChar: otilde
Encoding: 245 245 182
Width: 1075
GlyphClass: 2
Flags: W
LayerCount: 2
Fore
SplineSet
168 492 m 0,0,1
 187 612 187 612 237 707 c 128,-1,2
 287 802 287 802 357 862 c 128,-1,3
 427 922 427 922 511 953.5 c 128,-1,4
 595 985 595 985 688 985 c 0,5,6
 888 985 888 985 992.5 852 c 128,-1,7
 1097 719 1097 719 1059 473 c 0,8,9
 1041 354 1041 354 988.5 259 c 128,-1,10
 936 164 936 164 863.5 107 c 128,-1,11
 791 50 791 50 707 20 c 128,-1,12
 623 -10 623 -10 535 -10 c 0,13,14
 445 -10 445 -10 370 23 c 128,-1,15
 295 56 295 56 243 117.5 c 128,-1,16
 191 179 191 179 170 276 c 128,-1,17
 149 373 149 373 168 492 c 0,0,1
328 498 m 0,18,19
 298 309 298 309 358 204.5 c 128,-1,20
 418 100 418 100 551 100 c 0,21,22
 600 100 600 100 654 123.5 c 128,-1,23
 708 147 708 147 758.5 191 c 128,-1,24
 809 235 809 235 848 308.5 c 128,-1,25
 887 382 887 382 901 471 c 0,26,27
 967 872 967 872 670 872 c 0,28,29
 557 872 557 872 456.5 772.5 c 128,-1,30
 356 673 356 673 328 498 c 0,18,19
461 1145 m 0,31,32
 478 1230 478 1230 535.5 1306 c 128,-1,33
 593 1382 593 1382 663 1382 c 0,34,35
 707 1382 707 1382 751 1361 c 128,-1,36
 795 1340 795 1340 824.5 1314.5 c 128,-1,37
 854 1289 854 1289 888 1268 c 128,-1,38
 922 1247 922 1247 948 1247 c 0,39,40
 976 1247 976 1247 1008 1283.5 c 128,-1,41
 1040 1320 1040 1320 1057 1372 c 1,42,-1
 1114 1354 l 1,43,44
 1096 1273 1096 1273 1039 1201.5 c 128,-1,45
 982 1130 982 1130 907 1130 c 0,46,47
 862 1130 862 1130 809.5 1162 c 128,-1,48
 757 1194 757 1194 713 1225.5 c 128,-1,49
 669 1257 669 1257 647 1257 c 0,50,51
 605 1257 605 1257 568.5 1221.5 c 128,-1,52
 532 1186 532 1186 518 1122 c 1,53,54
 512 1126 512 1126 487.5 1134.5 c 128,-1,55
 463 1143 463 1143 461 1145 c 0,31,32
EndSplineSet
Validated: 33
EndChar

StartChar: odieresis
Encoding: 246 246 183
Width: 1075
GlyphClass: 2
Flags: W
LayerCount: 2
Fore
SplineSet
168 492 m 0,0,1
 187 612 187 612 237 707 c 128,-1,2
 287 802 287 802 357 862 c 128,-1,3
 427 922 427 922 511 953.5 c 128,-1,4
 595 985 595 985 688 985 c 0,5,6
 888 985 888 985 992.5 852 c 128,-1,7
 1097 719 1097 719 1059 473 c 0,8,9
 1041 354 1041 354 988.5 259 c 128,-1,10
 936 164 936 164 863.5 107 c 128,-1,11
 791 50 791 50 707 20 c 128,-1,12
 623 -10 623 -10 535 -10 c 0,13,14
 445 -10 445 -10 370 23 c 128,-1,15
 295 56 295 56 243 117.5 c 128,-1,16
 191 179 191 179 170 276 c 128,-1,17
 149 373 149 373 168 492 c 0,0,1
328 498 m 0,18,19
 298 309 298 309 358 204.5 c 128,-1,20
 418 100 418 100 551 100 c 0,21,22
 600 100 600 100 654 123.5 c 128,-1,23
 708 147 708 147 758.5 191 c 128,-1,24
 809 235 809 235 848 308.5 c 128,-1,25
 887 382 887 382 901 471 c 0,26,27
 967 872 967 872 670 872 c 0,28,29
 557 872 557 872 456.5 772.5 c 128,-1,30
 356 673 356 673 328 498 c 0,18,19
489 1278 m 128,-1,32
 495 1318 495 1318 526.5 1346 c 128,-1,33
 558 1374 558 1374 598 1374 c 128,-1,34
 638 1374 638 1374 662 1346 c 128,-1,35
 686 1318 686 1318 680 1278 c 0,36,37
 674 1239 674 1239 641.5 1211.5 c 128,-1,38
 609 1184 609 1184 569 1184 c 128,-1,39
 529 1184 529 1184 506 1211 c 128,-1,31
 483 1238 483 1238 489 1278 c 128,-1,32
866 1278 m 128,-1,41
 872 1318 872 1318 903.5 1346 c 128,-1,42
 935 1374 935 1374 975 1374 c 128,-1,43
 1015 1374 1015 1374 1039 1346 c 128,-1,44
 1063 1318 1063 1318 1057 1278 c 0,45,46
 1051 1239 1051 1239 1018.5 1211.5 c 128,-1,47
 986 1184 986 1184 946 1184 c 128,-1,48
 906 1184 906 1184 883 1211 c 128,-1,40
 860 1238 860 1238 866 1278 c 128,-1,41
EndSplineSet
Validated: 33
EndChar

StartChar: divide
Encoding: 247 247 184
Width: 911
GlyphClass: 2
Flags: W
LayerCount: 2
Fore
SplineSet
156 434 m 1,0,-1
 174 561 l 1,1,-1
 905 561 l 1,2,-1
 887 434 l 1,3,-1
 156 434 l 1,0,-1
385 170 m 0,4,5
 391 210 391 210 424.5 239 c 128,-1,6
 458 268 458 268 498 268 c 0,7,8
 536 268 536 268 556.5 239 c 128,-1,9
 577 210 577 210 571 170 c 0,10,11
 565 128 565 128 534 99 c 128,-1,12
 503 70 503 70 465 70 c 0,13,14
 425 70 425 70 402 98.5 c 128,-1,15
 379 127 379 127 385 170 c 0,4,5
485 823 m 0,16,17
 491 867 491 867 523.5 895.5 c 128,-1,18
 556 924 556 924 596 924 c 128,-1,19
 636 924 636 924 659 895 c 128,-1,20
 682 866 682 866 676 823 c 0,21,22
 668 782 668 782 636.5 753.5 c 128,-1,23
 605 725 605 725 565 725 c 128,-1,24
 525 725 525 725 501.5 753 c 128,-1,25
 478 781 478 781 485 823 c 0,16,17
EndSplineSet
Validated: 33
EndChar

StartChar: oslash
Encoding: 248 248 185
Width: 1067
GlyphClass: 2
Flags: W
LayerCount: 2
Fore
SplineSet
61 -211 m 1,0,-1
 266 84 l 1,1,2
 126 214 126 214 168 481 c 0,3,4
 194 640 194 640 273.5 756 c 128,-1,5
 353 872 353 872 461.5 928.5 c 128,-1,6
 570 985 570 985 694 985 c 0,7,8
 799 985 799 985 872 952 c 1,9,-1
 1018 1159 l 1,10,-1
 1147 1159 l 1,11,-1
 963 895 l 1,12,13
 1104 764 1104 764 1059 481 c 0,14,15
 1041 362 1041 362 987 266 c 128,-1,16
 933 170 933 170 858.5 111 c 128,-1,17
 784 52 784 52 699 21 c 128,-1,18
 614 -10 614 -10 526 -10 c 0,19,20
 428 -10 428 -10 358 23 c 1,21,-1
 197 -211 l 1,22,-1
 61 -211 l 1,0,-1
266 84 m 1,23,24
 306 44 306 44 358 23 c 1,25,-1
 434 133 l 1,26,27
 387 159 387 159 356 213 c 1,28,-1
 266 84 l 1,23,24
328 498 m 0,29,30
 298 319 298 319 356 213 c 1,31,-1
 797 842 l 1,32,33
 742 872 742 872 662 872 c 0,34,35
 548 872 548 872 452 773.5 c 128,-1,36
 356 675 356 675 328 498 c 0,29,30
434 133 m 1,37,38
 484 100 484 100 561 100 c 0,39,40
 610 100 610 100 662.5 123.5 c 128,-1,41
 715 147 715 147 763.5 191 c 128,-1,42
 812 235 812 235 849.5 308 c 128,-1,43
 887 381 887 381 901 471 c 0,44,45
 933 665 933 665 874 766 c 1,46,-1
 434 133 l 1,37,38
797 842 m 1,47,48
 845 819 845 819 874 766 c 1,49,-1
 963 895 l 1,50,51
 920 932 920 932 872 952 c 1,52,-1
 797 842 l 1,47,48
EndSplineSet
Validated: 37
EndChar

StartChar: ugrave
Encoding: 249 249 186
Width: 1024
GlyphClass: 2
Flags: W
LayerCount: 2
Fore
SplineSet
162 868 m 1,0,-1
 444 995 l 1,1,-1
 330 274 l 2,2,3
 323 234 323 234 332 194 c 128,-1,4
 341 154 341 154 372.5 123 c 128,-1,5
 404 92 404 92 455 92 c 0,6,7
 561 92 561 92 760 172 c 1,8,-1
 887 975 l 1,9,-1
 1040 975 l 1,10,-1
 887 0 l 1,11,-1
 733 0 l 1,12,-1
 741 51 l 1,13,14
 573 -18 573 -18 444 -18 c 0,15,16
 295 -18 295 -18 224.5 59.5 c 128,-1,17
 154 137 154 137 174 256 c 2,18,-1
 254 764 l 2,19,20
 259 792 259 792 230 828 c 128,-1,21
 201 864 201 864 162 868 c 1,0,-1
377 1366 m 1,22,-1
 561 1366 l 1,23,-1
 791 1092 l 1,24,-1
 670 1094 l 1,25,-1
 377 1366 l 1,22,-1
EndSplineSet
Validated: 33
EndChar

StartChar: uacute
Encoding: 250 250 187
Width: 1024
GlyphClass: 2
Flags: W
LayerCount: 2
Fore
SplineSet
162 868 m 1,0,-1
 444 995 l 1,1,-1
 330 274 l 2,2,3
 323 234 323 234 332 194 c 128,-1,4
 341 154 341 154 372.5 123 c 128,-1,5
 404 92 404 92 455 92 c 0,6,7
 561 92 561 92 760 172 c 1,8,-1
 887 975 l 1,9,-1
 1040 975 l 1,10,-1
 887 0 l 1,11,-1
 733 0 l 1,12,-1
 741 51 l 1,13,14
 573 -18 573 -18 444 -18 c 0,15,16
 295 -18 295 -18 224.5 59.5 c 128,-1,17
 154 137 154 137 174 256 c 2,18,-1
 254 764 l 2,19,20
 259 792 259 792 230 828 c 128,-1,21
 201 864 201 864 162 868 c 1,0,-1
564 1092 m 1,22,-1
 883 1366 l 1,23,-1
 1055 1366 l 1,24,-1
 676 1094 l 1,25,-1
 564 1092 l 1,22,-1
EndSplineSet
Validated: 33
EndChar

StartChar: ucircumflex
Encoding: 251 251 188
Width: 1024
GlyphClass: 2
Flags: W
LayerCount: 2
Fore
SplineSet
162 868 m 1,0,-1
 444 995 l 1,1,-1
 330 274 l 2,2,3
 323 234 323 234 332 194 c 128,-1,4
 341 154 341 154 372.5 123 c 128,-1,5
 404 92 404 92 455 92 c 0,6,7
 561 92 561 92 760 172 c 1,8,-1
 887 975 l 1,9,-1
 1040 975 l 1,10,-1
 887 0 l 1,11,-1
 733 0 l 1,12,-1
 741 51 l 1,13,14
 573 -18 573 -18 444 -18 c 0,15,16
 295 -18 295 -18 224.5 59.5 c 128,-1,17
 154 137 154 137 174 256 c 2,18,-1
 254 764 l 2,19,20
 259 792 259 792 230 828 c 128,-1,21
 201 864 201 864 162 868 c 1,0,-1
416 1081 m 1,22,-1
 740 1434 l 1,23,-1
 953 1081 l 1,24,-1
 832 1081 l 1,25,-1
 719 1280 l 1,26,-1
 539 1081 l 1,27,-1
 416 1081 l 1,22,-1
EndSplineSet
Validated: 33
EndChar

StartChar: udieresis
Encoding: 252 252 189
Width: 1024
GlyphClass: 2
Flags: W
LayerCount: 2
Fore
SplineSet
162 868 m 1,0,-1
 444 995 l 1,1,-1
 330 274 l 2,2,3
 323 234 323 234 332 194 c 128,-1,4
 341 154 341 154 372.5 123 c 128,-1,5
 404 92 404 92 455 92 c 0,6,7
 561 92 561 92 760 172 c 1,8,-1
 887 975 l 1,9,-1
 1040 975 l 1,10,-1
 887 0 l 1,11,-1
 733 0 l 1,12,-1
 741 51 l 1,13,14
 573 -18 573 -18 444 -18 c 0,15,16
 295 -18 295 -18 224.5 59.5 c 128,-1,17
 154 137 154 137 174 256 c 2,18,-1
 254 764 l 2,19,20
 259 792 259 792 230 828 c 128,-1,21
 201 864 201 864 162 868 c 1,0,-1
430 1278 m 128,-1,23
 436 1318 436 1318 467.5 1346 c 128,-1,24
 499 1374 499 1374 539 1374 c 128,-1,25
 579 1374 579 1374 603 1346 c 128,-1,26
 627 1318 627 1318 621 1278 c 0,27,28
 615 1239 615 1239 582.5 1211.5 c 128,-1,29
 550 1184 550 1184 510 1184 c 128,-1,30
 470 1184 470 1184 447 1211 c 128,-1,22
 424 1238 424 1238 430 1278 c 128,-1,23
807 1278 m 128,-1,32
 813 1318 813 1318 844 1346 c 128,-1,33
 875 1374 875 1374 915 1374 c 128,-1,34
 955 1374 955 1374 979 1346 c 128,-1,35
 1003 1318 1003 1318 997 1278 c 128,-1,36
 991 1238 991 1238 959 1211 c 128,-1,37
 927 1184 927 1184 887 1184 c 128,-1,38
 847 1184 847 1184 824 1211 c 128,-1,31
 801 1238 801 1238 807 1278 c 128,-1,32
EndSplineSet
Validated: 33
EndChar

StartChar: yacute
Encoding: 253 253 190
Width: 987
GlyphClass: 2
Flags: W
LayerCount: 2
Fore
SplineSet
141 -410 m 1,0,-1
 406 61 l 1,1,-1
 190 975 l 1,2,-1
 350 975 l 1,3,-1
 518 250 l 1,4,-1
 829 784 l 2,5,6
 861 844 861 844 854 898 c 128,-1,7
 847 952 847 952 811 975 c 1,8,-1
 1069 975 l 1,9,-1
 279 -410 l 1,10,-1
 141 -410 l 1,0,-1
551 1090 m 1,11,-1
 870 1364 l 1,12,-1
 1042 1364 l 1,13,-1
 664 1092 l 1,14,-1
 551 1090 l 1,11,-1
EndSplineSet
Validated: 33
EndChar

StartChar: thorn
Encoding: 254 254 191
Width: 1071
GlyphClass: 2
Flags: W
LayerCount: 2
Fore
SplineSet
68 -410 m 1,0,-1
 340 1311 l 2,1,2
 346 1347 346 1347 316.5 1387 c 128,-1,3
 287 1427 287 1427 254 1430 c 1,4,-1
 532 1556 l 1,5,-1
 432 913 l 1,6,7
 563 985 563 985 694 985 c 0,8,9
 894 985 894 985 989.5 853.5 c 128,-1,10
 1085 722 1085 722 1049 487 c 0,11,12
 1015 271 1015 271 870.5 130.5 c 128,-1,13
 726 -10 726 -10 537 -10 c 0,14,15
 437 -10 437 -10 291 27 c 1,16,-1
 221 -410 l 1,17,-1
 68 -410 l 1,0,-1
311 158 m 1,18,19
 458 104 458 104 563 104 c 0,20,21
 627 104 627 104 694 148.5 c 128,-1,22
 761 193 761 193 816 281.5 c 128,-1,23
 871 370 871 370 889 481 c 0,24,25
 919 668 919 668 863.5 770 c 128,-1,26
 808 872 808 872 672 872 c 0,27,28
 606 872 606 872 533.5 845 c 128,-1,29
 461 818 461 818 410 772 c 1,30,-1
 311 158 l 1,18,19
EndSplineSet
Validated: 33
EndChar

StartChar: ydieresis
Encoding: 255 255 192
Width: 987
GlyphClass: 2
Flags: W
LayerCount: 2
Fore
SplineSet
141 -410 m 1,0,-1
 406 61 l 1,1,-1
 190 975 l 1,2,-1
 350 975 l 1,3,-1
 518 250 l 1,4,-1
 829 784 l 2,5,6
 861 844 861 844 854 898 c 128,-1,7
 847 952 847 952 811 975 c 1,8,-1
 1069 975 l 1,9,-1
 279 -410 l 1,10,-1
 141 -410 l 1,0,-1
414 1278 m 128,-1,12
 420 1318 420 1318 451 1346 c 128,-1,13
 482 1374 482 1374 522 1374 c 128,-1,14
 562 1374 562 1374 586 1346 c 128,-1,15
 610 1318 610 1318 604 1278 c 128,-1,16
 598 1238 598 1238 566 1211 c 128,-1,17
 534 1184 534 1184 494 1184 c 128,-1,18
 454 1184 454 1184 431 1211 c 128,-1,11
 408 1238 408 1238 414 1278 c 128,-1,12
791 1278 m 128,-1,20
 797 1318 797 1318 828 1346 c 128,-1,21
 859 1374 859 1374 899 1374 c 128,-1,22
 939 1374 939 1374 963 1346 c 128,-1,23
 987 1318 987 1318 981 1278 c 0,24,25
 975 1239 975 1239 942.5 1211.5 c 128,-1,26
 910 1184 910 1184 870 1184 c 128,-1,27
 830 1184 830 1184 807.5 1211 c 128,-1,19
 785 1238 785 1238 791 1278 c 128,-1,20
EndSplineSet
Validated: 33
EndChar

StartChar: OE
Encoding: 338 338 193
Width: 1937
GlyphClass: 2
Flags: W
LayerCount: 2
Fore
SplineSet
174 676 m 0,0,1
 226 992 226 992 430 1187 c 128,-1,2
 634 1382 634 1382 893 1382 c 0,3,4
 1030 1382 1030 1382 1136 1318.5 c 128,-1,5
 1242 1255 1242 1255 1303 1143 c 1,6,-1
 1339 1368 l 1,7,-1
 2040 1368 l 1,8,-1
 2017 1184 l 1,9,10
 2003 1192 2003 1192 1979 1209 c 128,-1,11
 1955 1226 1955 1226 1940.5 1231.5 c 128,-1,12
 1926 1237 1926 1237 1881.5 1243 c 128,-1,13
 1837 1249 1837 1249 1763 1249 c 2,14,-1
 1466 1249 l 1,15,-1
 1391 780 l 1,16,-1
 1892 780 l 1,17,-1
 1872 664 l 1,18,-1
 1372 664 l 1,19,-1
 1286 115 l 1,20,-1
 1575 115 l 2,21,22
 1598 115 1598 115 1620.5 116.5 c 128,-1,23
 1643 118 1643 118 1660 119.5 c 128,-1,24
 1677 121 1677 121 1696.5 125 c 128,-1,25
 1716 129 1716 129 1727 131 c 128,-1,26
 1738 133 1738 133 1756 139 c 128,-1,27
 1774 145 1774 145 1780.5 147 c 128,-1,28
 1787 149 1787 149 1804 157 c 128,-1,29
 1821 165 1821 165 1823.5 166.5 c 128,-1,30
 1826 168 1826 168 1843.5 177 c 128,-1,31
 1861 186 1861 186 1862 186 c 1,32,-1
 1835 0 l 1,33,-1
 1122 0 l 1,34,-1
 1155 205 l 1,35,36
 1059 97 1059 97 934 39.5 c 128,-1,37
 809 -18 809 -18 672 -18 c 0,38,39
 497 -18 497 -18 372.5 73 c 128,-1,40
 248 164 248 164 196 322.5 c 128,-1,41
 144 481 144 481 174 676 c 0,0,1
360 731 m 0,42,43
 331 550 331 550 362 409 c 128,-1,44
 393 268 393 268 483.5 187 c 128,-1,45
 574 106 574 106 711 106 c 0,46,47
 886 106 886 106 1030.5 259 c 128,-1,48
 1175 412 1175 412 1214 659 c 0,49,50
 1227 728 1227 728 1224 799 c 128,-1,51
 1221 870 1221 870 1209.5 936 c 128,-1,52
 1198 1002 1198 1002 1168 1060.5 c 128,-1,53
 1138 1119 1138 1119 1097 1162 c 128,-1,54
 1056 1205 1056 1205 993 1230 c 128,-1,55
 930 1255 930 1255 854 1255 c 0,56,57
 769 1255 769 1255 690 1221 c 128,-1,58
 611 1187 611 1187 544 1123 c 128,-1,59
 477 1059 477 1059 428 958 c 128,-1,60
 379 857 379 857 360 731 c 0,42,43
EndSplineSet
Validated: 33
EndChar

StartChar: oe
Encoding: 339 339 194
Width: 1755
GlyphClass: 2
Flags: W
LayerCount: 2
Fore
SplineSet
164 481 m 0,0,1
 200 708 200 708 344 846.5 c 128,-1,2
 488 985 488 985 676 985 c 0,3,4
 799 985 799 985 885 936 c 128,-1,5
 971 887 971 887 1012 795 c 1,6,7
 1084 888 1084 888 1183.5 937.5 c 128,-1,8
 1283 987 1283 987 1399 987 c 0,9,10
 1510 987 1510 987 1590 932.5 c 128,-1,11
 1670 878 1670 878 1707 789.5 c 128,-1,12
 1744 701 1744 701 1739 594 c 1,13,-1
 1026 346 l 1,14,15
 1039 244 1039 244 1117.5 179.5 c 128,-1,16
 1196 115 1196 115 1296 115 c 0,17,18
 1312 115 1312 115 1329.5 117 c 128,-1,19
 1347 119 1347 119 1362.5 122 c 128,-1,20
 1378 125 1378 125 1396.5 130.5 c 128,-1,21
 1415 136 1415 136 1428.5 140 c 128,-1,22
 1442 144 1442 144 1460 151.5 c 128,-1,23
 1478 159 1478 159 1488.5 163.5 c 128,-1,24
 1499 168 1499 168 1516 176 c 128,-1,25
 1533 184 1533 184 1539.5 187.5 c 128,-1,26
 1546 191 1546 191 1560.5 198.5 c 128,-1,27
 1575 206 1575 206 1577 207 c 1,28,-1
 1612 135 l 1,29,30
 1524 70 1524 70 1438.5 31 c 128,-1,31
 1353 -8 1353 -8 1251 -8 c 0,32,33
 1125 -8 1125 -8 1037.5 39 c 128,-1,34
 950 86 950 86 907 176 c 1,35,36
 834 86 834 86 735 38 c 128,-1,37
 636 -10 636 -10 528 -10 c 0,38,39
 333 -10 333 -10 231.5 127.5 c 128,-1,40
 130 265 130 265 164 481 c 0,0,1
317 500 m 0,41,42
 288 320 288 320 362 217.5 c 128,-1,43
 436 115 436 115 569 115 c 0,44,45
 614 115 614 115 662.5 137.5 c 128,-1,46
 711 160 711 160 757 203.5 c 128,-1,47
 803 247 803 247 839 319.5 c 128,-1,48
 875 392 875 392 889 481 c 0,49,50
 916 653 916 653 854 759.5 c 128,-1,51
 792 866 792 866 641 866 c 0,52,53
 592 866 592 866 543 845.5 c 128,-1,54
 494 825 494 825 448 783.5 c 128,-1,55
 402 742 402 742 367 668.5 c 128,-1,56
 332 595 332 595 317 500 c 0,41,42
1020 463 m 1,57,-1
 1587 653 l 1,58,59
 1583 753 1583 753 1518.5 806.5 c 128,-1,60
 1454 860 1454 860 1360 860 c 0,61,62
 1290 860 1290 860 1226.5 821.5 c 128,-1,63
 1163 783 1163 783 1120 723.5 c 128,-1,64
 1077 664 1077 664 1050.5 595 c 128,-1,65
 1024 526 1024 526 1020 463 c 1,57,-1
EndSplineSet
Validated: 33
EndChar

StartChar: Ydieresis
Encoding: 376 376 195
Width: 1142
GlyphClass: 2
Flags: W
LayerCount: 2
Fore
SplineSet
240 1366 m 1,0,-1
 492 1366 l 1,1,2
 429 1318 429 1318 477 1214 c 2,3,-1
 698 715 l 1,4,-1
 1188 1366 l 1,5,-1
 1329 1366 l 1,6,-1
 739 580 l 1,7,-1
 647 0 l 1,8,-1
 494 0 l 1,9,-1
 586 578 l 1,10,-1
 240 1366 l 1,0,-1
551 1669 m 128,-1,12
 557 1709 557 1709 588 1737 c 128,-1,13
 619 1765 619 1765 659 1765 c 128,-1,14
 699 1765 699 1765 723 1737 c 128,-1,15
 747 1709 747 1709 741 1669 c 128,-1,16
 735 1629 735 1629 703 1602 c 128,-1,17
 671 1575 671 1575 631 1575 c 128,-1,18
 591 1575 591 1575 568 1602 c 128,-1,11
 545 1629 545 1629 551 1669 c 128,-1,12
928 1669 m 128,-1,20
 934 1709 934 1709 965 1737 c 128,-1,21
 996 1765 996 1765 1036 1765 c 128,-1,22
 1076 1765 1076 1765 1100 1737 c 128,-1,23
 1124 1709 1124 1709 1118 1669 c 128,-1,24
 1112 1629 1112 1629 1080 1602 c 128,-1,25
 1048 1575 1048 1575 1008 1575 c 128,-1,26
 968 1575 968 1575 945 1602 c 128,-1,19
 922 1629 922 1629 928 1669 c 128,-1,20
EndSplineSet
Validated: 33
EndChar

StartChar: circumflex
Encoding: 710 710 196
Width: 958
GlyphClass: 2
Flags: W
LayerCount: 2
Fore
SplineSet
391 1081 m 1,0,-1
 715 1434 l 1,1,-1
 928 1081 l 1,2,-1
 807 1081 l 1,3,-1
 694 1280 l 1,4,-1
 514 1081 l 1,5,-1
 391 1081 l 1,0,-1
EndSplineSet
Validated: 1
EndChar

StartChar: tilde
Encoding: 732 732 197
Width: 987
GlyphClass: 2
Flags: W
LayerCount: 2
Fore
SplineSet
365 1145 m 0,0,1
 382 1230 382 1230 439.5 1306 c 128,-1,2
 497 1382 497 1382 567 1382 c 0,3,4
 611 1382 611 1382 655 1361 c 128,-1,5
 699 1340 699 1340 728.5 1314.5 c 128,-1,6
 758 1289 758 1289 792 1268 c 128,-1,7
 826 1247 826 1247 852 1247 c 0,8,9
 880 1247 880 1247 912 1283.5 c 128,-1,10
 944 1320 944 1320 961 1372 c 1,11,-1
 1018 1354 l 1,12,13
 1000 1273 1000 1273 943 1201.5 c 128,-1,14
 886 1130 886 1130 811 1130 c 0,15,16
 766 1130 766 1130 713.5 1162 c 128,-1,17
 661 1194 661 1194 617 1225.5 c 128,-1,18
 573 1257 573 1257 551 1257 c 0,19,20
 509 1257 509 1257 472.5 1221.5 c 128,-1,21
 436 1186 436 1186 422 1122 c 1,22,23
 416 1126 416 1126 391.5 1134.5 c 128,-1,24
 367 1143 367 1143 365 1145 c 0,0,1
EndSplineSet
Validated: 1
EndChar

StartChar: uni2010
Encoding: 8208 8208 209
Width: 759
GlyphClass: 2
Flags: W
LayerCount: 2
Fore
SplineSet
174 504 m 1,0,-1
 193 623 l 1,1,-1
 735 623 l 1,2,-1
 717 504 l 1,3,-1
 174 504 l 1,0,-1
EndSplineSet
Validated: 1
EndChar

StartChar: uni2011
Encoding: 8209 8209 210
Width: 759
GlyphClass: 2
Flags: W
LayerCount: 2
Fore
SplineSet
174 504 m 1,0,-1
 193 623 l 1,1,-1
 735 623 l 1,2,-1
 717 504 l 1,3,-1
 174 504 l 1,0,-1
EndSplineSet
Validated: 1
EndChar

StartChar: figuredash
Encoding: 8210 8210 211
Width: 759
GlyphClass: 2
Flags: W
LayerCount: 2
Fore
SplineSet
174 504 m 1,0,-1
 193 623 l 1,1,-1
 735 623 l 1,2,-1
 717 504 l 1,3,-1
 174 504 l 1,0,-1
EndSplineSet
Validated: 1
EndChar

StartChar: endash
Encoding: 8211 8211 212
Width: 966
GlyphClass: 2
Flags: W
LayerCount: 2
Fore
SplineSet
209 496 m 1,0,-1
 229 623 l 1,1,-1
 961 623 l 1,2,-1
 940 496 l 1,3,-1
 209 496 l 1,0,-1
EndSplineSet
Validated: 1
EndChar

StartChar: emdash
Encoding: 8212 8212 213
Width: 1529
GlyphClass: 2
Flags: W
LayerCount: 2
Fore
SplineSet
207 496 m 1,0,-1
 227 623 l 1,1,-1
 1528 623 l 1,2,-1
 1507 496 l 1,3,-1
 207 496 l 1,0,-1
EndSplineSet
Validated: 1
EndChar

StartChar: quoteleft
Encoding: 8216 8216 214
Width: 350
GlyphClass: 2
Flags: W
LayerCount: 2
Fore
SplineSet
211 887 m 1,0,1
 202 931 202 931 215 1020 c 0,2,3
 226 1090 226 1090 279.5 1187 c 128,-1,4
 333 1284 333 1284 397 1370 c 1,5,-1
 502 1348 l 1,6,7
 460 1283 460 1283 421 1184.5 c 128,-1,8
 382 1086 382 1086 373 1038 c 0,9,10
 361 964 361 964 381 915 c 1,11,12
 301 887 301 887 211 887 c 1,0,1
EndSplineSet
Validated: 33
EndChar

StartChar: quoteright
Encoding: 8217 8217 215
Width: 370
GlyphClass: 2
Flags: W
LayerCount: 2
Fore
SplineSet
209 909 m 1,0,1
 253 974 253 974 292 1073 c 128,-1,2
 331 1172 331 1172 338 1219 c 0,3,4
 350 1296 350 1296 332 1341 c 1,5,6
 411 1370 411 1370 502 1370 c 1,7,8
 510 1319 510 1319 498 1237 c 0,9,10
 478 1108 478 1108 315 887 c 1,11,-1
 209 909 l 1,0,1
EndSplineSet
Validated: 33
EndChar

StartChar: quotesinglbase
Encoding: 8218 8218 216
Width: 346
GlyphClass: 2
Flags: W
LayerCount: 2
Fore
SplineSet
72 12 m 0,0,1
 72 14 72 14 73 16.5 c 128,-1,2
 74 19 74 19 75.5 23 c 128,-1,3
 77 27 77 27 78 29 c 0,4,5
 108 76 108 76 140.5 149.5 c 128,-1,6
 173 223 173 223 178 252 c 0,7,8
 180 280 180 280 162 305 c 0,9,10
 146 321 146 321 150.5 344.5 c 128,-1,11
 155 368 155 368 176 375 c 1,12,-1
 285 389 l 1,13,-1
 311 365 l 1,14,15
 325 316 325 316 319 272 c 0,16,17
 314 235 314 235 274 166.5 c 128,-1,18
 234 98 234 98 179 40 c 128,-1,19
 124 -18 124 -18 86 -18 c 0,20,21
 78 -18 78 -18 74 -9 c 128,-1,22
 70 0 70 0 72 12 c 0,0,1
EndSplineSet
Validated: 33
EndChar

StartChar: quotedblleft
Encoding: 8220 8220 217
Width: 686
GlyphClass: 2
Flags: W
LayerCount: 2
Fore
SplineSet
211 887 m 1,0,1
 202 931 202 931 215 1020 c 0,2,3
 226 1090 226 1090 279.5 1187 c 128,-1,4
 333 1284 333 1284 397 1370 c 1,5,-1
 502 1348 l 1,6,7
 460 1283 460 1283 421 1184.5 c 128,-1,8
 382 1086 382 1086 373 1038 c 0,9,10
 361 964 361 964 381 915 c 1,11,12
 301 887 301 887 211 887 c 1,0,1
522 887 m 1,13,14
 513 931 513 931 526 1020 c 0,15,16
 546 1149 546 1149 709 1370 c 1,17,-1
 813 1348 l 1,18,19
 771 1283 771 1283 732 1184.5 c 128,-1,20
 693 1086 693 1086 684 1038 c 0,21,22
 672 964 672 964 692 915 c 1,23,24
 612 887 612 887 522 887 c 1,13,14
EndSplineSet
Validated: 33
EndChar

StartChar: quotedblright
Encoding: 8221 8221 218
Width: 686
GlyphClass: 2
Flags: W
LayerCount: 2
Fore
SplineSet
197 909 m 1,0,1
 241 974 241 974 280 1073 c 128,-1,2
 319 1172 319 1172 326 1219 c 0,3,4
 338 1294 338 1294 319 1341 c 1,5,6
 398 1370 398 1370 489 1370 c 1,7,8
 497 1319 497 1319 485 1237 c 0,9,10
 474 1167 474 1167 420.5 1070 c 128,-1,11
 367 973 367 973 303 887 c 1,12,-1
 197 909 l 1,0,1
508 909 m 1,13,14
 552 974 552 974 591 1073 c 128,-1,15
 630 1172 630 1172 637 1219 c 0,16,17
 649 1296 649 1296 631 1341 c 1,18,19
 710 1370 710 1370 801 1370 c 1,20,21
 809 1319 809 1319 797 1237 c 0,22,23
 777 1108 777 1108 614 887 c 1,24,-1
 508 909 l 1,13,14
EndSplineSet
Validated: 33
EndChar

StartChar: quotedblbase
Encoding: 8222 8222 219
Width: 651
GlyphClass: 2
Flags: W
LayerCount: 2
Fore
SplineSet
72 12 m 0,0,1
 72 14 72 14 73 16.5 c 128,-1,2
 74 19 74 19 75.5 23 c 128,-1,3
 77 27 77 27 78 29 c 0,4,5
 108 76 108 76 140.5 149.5 c 128,-1,6
 173 223 173 223 178 252 c 0,7,8
 180 280 180 280 162 305 c 0,9,10
 146 321 146 321 150.5 344.5 c 128,-1,11
 155 368 155 368 176 375 c 1,12,-1
 283 389 l 1,13,-1
 309 365 l 1,14,15
 323 316 323 316 317 272 c 0,16,17
 312 235 312 235 272.5 166.5 c 128,-1,18
 233 98 233 98 178.5 40 c 128,-1,19
 124 -18 124 -18 86 -18 c 0,20,21
 78 -18 78 -18 74 -9 c 128,-1,22
 70 0 70 0 72 12 c 0,0,1
356 12 m 0,23,24
 356 13 356 13 356.5 15.5 c 128,-1,25
 357 18 357 18 358 20 c 128,-1,26
 359 22 359 22 360 24.5 c 128,-1,27
 361 27 361 27 362 29 c 0,28,29
 393 76 393 76 425.5 150 c 128,-1,30
 458 224 458 224 463 252 c 0,31,32
 465 278 465 278 446 305 c 0,33,34
 430 321 430 321 434.5 344.5 c 128,-1,35
 439 368 439 368 461 375 c 1,36,-1
 567 389 l 1,37,-1
 596 365 l 1,38,39
 610 316 610 316 604 272 c 0,40,41
 599 235 599 235 559 166.5 c 128,-1,42
 519 98 519 98 464 40 c 128,-1,43
 409 -18 409 -18 371 -18 c 0,44,45
 362 -18 362 -18 358 -8.5 c 128,-1,46
 354 1 354 1 356 12 c 0,23,24
EndSplineSet
Validated: 33
EndChar

StartChar: bullet
Encoding: 8226 8226 220
Width: 489
GlyphClass: 2
Flags: W
LayerCount: 2
Fore
SplineSet
180 520 m 0,0,1
 191 583 191 583 242 628.5 c 128,-1,2
 293 674 293 674 354 674 c 0,3,4
 414 674 414 674 448 628.5 c 128,-1,5
 482 583 482 583 471 520 c 0,6,7
 461 453 461 453 413 409 c 128,-1,8
 365 365 365 365 305 365 c 0,9,10
 243 365 243 365 206.5 409 c 128,-1,11
 170 453 170 453 180 520 c 0,0,1
EndSplineSet
Validated: 33
EndChar

StartChar: ellipsis
Encoding: 8230 8230 221
Width: 1210
GlyphClass: 2
Flags: W
LayerCount: 2
Fore
SplineSet
113 88 m 0,0,1
 119 128 119 128 151.5 157 c 128,-1,2
 184 186 184 186 223 186 c 0,3,4
 261 186 261 186 283 157 c 128,-1,5
 305 128 305 128 299 88 c 0,6,7
 291 45 291 45 261 16.5 c 128,-1,8
 231 -12 231 -12 193 -12 c 0,9,10
 153 -12 153 -12 129.5 17 c 128,-1,11
 106 46 106 46 113 88 c 0,0,1
516 88 m 0,12,13
 522 128 522 128 554.5 157 c 128,-1,14
 587 186 587 186 627 186 c 0,15,16
 665 186 665 186 686.5 157 c 128,-1,17
 708 128 708 128 702 88 c 0,18,19
 694 45 694 45 664 16.5 c 128,-1,20
 634 -12 634 -12 596 -12 c 0,21,22
 556 -12 556 -12 532.5 17 c 128,-1,23
 509 46 509 46 516 88 c 0,12,13
920 88 m 0,24,25
 926 128 926 128 958.5 157 c 128,-1,26
 991 186 991 186 1030 186 c 0,27,28
 1068 186 1068 186 1090 157 c 128,-1,29
 1112 128 1112 128 1106 88 c 0,30,31
 1098 45 1098 45 1067.5 16.5 c 128,-1,32
 1037 -12 1037 -12 999 -12 c 0,33,34
 959 -12 959 -12 936 17 c 128,-1,35
 913 46 913 46 920 88 c 0,24,25
EndSplineSet
Validated: 33
EndChar

StartChar: guilsinglleft
Encoding: 8249 8249 223
Width: 759
GlyphClass: 2
Flags: W
LayerCount: 2
Fore
SplineSet
176 432 m 1,0,-1
 201 567 l 1,1,-1
 719 879 l 1,2,-1
 756 829 l 1,3,-1
 342 504 l 1,4,-1
 641 152 l 1,5,-1
 590 104 l 1,6,-1
 176 432 l 1,0,-1
EndSplineSet
Validated: 1
EndChar

StartChar: guilsinglright
Encoding: 8250 8250 224
Width: 759
GlyphClass: 2
Flags: W
LayerCount: 2
Fore
SplineSet
141 152 m 1,0,-1
 551 504 l 1,1,-1
 240 829 l 1,2,-1
 293 879 l 1,3,-1
 713 567 l 1,4,-1
 692 432 l 1,5,-1
 176 104 l 1,6,-1
 141 152 l 1,0,-1
EndSplineSet
Validated: 1
EndChar

StartChar: Euro
Encoding: 8364 8364 226
Width: 1382
GlyphClass: 2
Flags: W
LayerCount: 2
Fore
SplineSet
117 496 m 1,0,-1
 203 612 l 1,1,-1
 336 612 l 1,2,3
 340 675 340 675 360 776 c 1,4,-1
 172 776 l 1,5,-1
 246 889 l 1,6,-1
 393 889 l 1,7,8
 474 1109 474 1109 646 1243.5 c 128,-1,9
 818 1378 818 1378 1034 1378 c 0,10,11
 1110 1378 1110 1378 1177 1365.5 c 128,-1,12
 1244 1353 1244 1353 1283.5 1339.5 c 128,-1,13
 1323 1326 1323 1326 1362 1301 c 128,-1,14
 1401 1276 1401 1276 1412 1266 c 128,-1,15
 1423 1256 1423 1256 1444 1237 c 1,16,-1
 1413 1044 l 1,17,18
 1392 1078 1392 1078 1373.5 1103 c 128,-1,19
 1355 1128 1355 1128 1320 1161 c 128,-1,20
 1285 1194 1285 1194 1246.5 1215 c 128,-1,21
 1208 1236 1208 1236 1148.5 1251 c 128,-1,22
 1089 1266 1089 1266 1020 1266 c 0,23,24
 876 1266 876 1266 745.5 1164.5 c 128,-1,25
 615 1063 615 1063 549 889 c 1,26,-1
 948 889 l 1,27,-1
 872 776 l 1,28,-1
 516 776 l 1,29,30
 499 718 499 718 494 612 c 1,31,-1
 903 612 l 1,32,-1
 827 496 l 1,33,-1
 496 496 l 1,34,35
 504 398 504 398 536 320.5 c 128,-1,36
 568 243 568 243 616.5 195 c 128,-1,37
 665 147 665 147 724.5 122.5 c 128,-1,38
 784 98 784 98 850 98 c 128,-1,39
 916 98 916 98 967.5 107.5 c 128,-1,40
 1019 117 1019 117 1066 142 c 128,-1,41
 1113 167 1113 167 1136 183 c 128,-1,42
 1159 199 1159 199 1208 239 c 0,43,44
 1221 249 1221 249 1227 254 c 0,45,46
 1275 293 1275 293 1303 334 c 1,47,-1
 1237 113 l 1,48,49
 1213 101 1213 101 1162 73 c 128,-1,50
 1111 45 1111 45 1089 35.5 c 128,-1,51
 1067 26 1067 26 1023.5 11 c 128,-1,52
 980 -4 980 -4 932.5 -9 c 128,-1,53
 885 -14 885 -14 821 -14 c 0,54,55
 599 -14 599 -14 470 119 c 128,-1,56
 341 252 341 252 334 496 c 1,57,-1
 117 496 l 1,0,-1
EndSplineSet
Validated: 1
EndChar

StartChar: trademark
Encoding: 8482 8482 227
Width: 1806
GlyphClass: 2
Flags: W
LayerCount: 2
Fore
SplineSet
246 1264 m 1,0,1
 248 1282 248 1282 260 1315 c 128,-1,2
 272 1348 272 1348 283 1362 c 1,3,-1
 930 1362 l 1,4,5
 948 1339 948 1339 938 1264 c 1,6,7
 889 1278 889 1278 866 1278 c 2,8,-1
 639 1278 l 1,9,-1
 526 567 l 1,10,-1
 430 567 l 1,11,-1
 543 1278 l 1,12,-1
 328 1278 l 2,13,14
 309 1278 309 1278 246 1264 c 1,0,1
918 567 m 1,15,-1
 1102 1362 l 1,16,-1
 1159 1362 l 2,17,18
 1181 1362 1181 1362 1198 1349.5 c 128,-1,19
 1215 1337 1215 1337 1221 1313 c 2,20,-1
 1348 768 l 1,21,22
 1406 866 1406 866 1591 1198 c 2,23,-1
 1681 1362 l 1,24,-1
 1782 1362 l 1,25,-1
 1718 567 l 1,26,-1
 1622 567 l 1,27,-1
 1673 1200 l 1,28,-1
 1505 887 l 2,29,30
 1478 838 1478 838 1419 730 c 128,-1,31
 1360 622 1360 622 1331 567 c 1,32,-1
 1292 567 l 1,33,-1
 1153 1169 l 1,34,-1
 1014 567 l 1,35,-1
 918 567 l 1,15,-1
EndSplineSet
Validated: 33
EndChar

StartChar: uniE000
Encoding: 57344 57344 228
Width: 972
GlyphClass: 2
Flags: W
LayerCount: 2
Fore
SplineSet
0 0 m 1,0,-1
 0 973 l 1,1,-1
 973 973 l 1,2,-1
 973 0 l 1,3,-1
 0 0 l 1,0,-1
EndSplineSet
Validated: 1
EndChar
